<?xml version="1.0" encoding="UTF-8"?>
<svg version="1.1" xmlns="http://www.w3.org/2000/svg" width="451" height="452">
<path d="M0 0 C148.83 0 297.66 0 451 0 C451 149.16 451 298.32 451 452 C302.17 452 153.34 452 0 452 C0 302.84 0 153.68 0 0 Z " fill="#438A26" transform="translate(0,0)"/>
<path d="M0 0 C3.70994847 2.15553471 6.64300305 4.52485653 9.4375 7.8125 C10.159375 8.616875 10.88125 9.42125 11.625 10.25 C16.44057257 17.05822329 16.04026957 24.80297103 15.4375 32.8125 C14.44092363 37.32439714 12.84838441 40.65002734 9.4375 43.8125 C10.85032984 46.87549787 12.53789043 49.38955383 14.625 52.03515625 C15.24117188 52.82083984 15.85734375 53.60652344 16.4921875 54.41601562 C17.13414062 55.22748047 17.77609375 56.03894531 18.4375 56.875 C19.70922056 58.49018725 20.9800901 60.10604501 22.25 61.72265625 C23.09498047 62.79205444 23.09498047 62.79205444 23.95703125 63.88305664 C25.18149576 65.47885859 26.32175297 67.13887945 27.4375 68.8125 C31.03589607 67.13092508 34.28508667 65.01781177 37.625 62.875 C49.83124486 55.2214565 64.23531396 52.56283867 78.51123047 55.19482422 C87.43292793 57.3917785 95.0634957 61.43010712 102.4375 66.8125 C103.46875 67.534375 104.5 68.25625 105.5625 69 C110.64342585 73.44022259 117.44644033 81.03755109 118.4375 87.8125 C119.12150879 87.32378418 119.80551758 86.83506836 120.51025391 86.33154297 C123.99268203 84.52439803 126.37637531 84.58546456 130.2734375 84.5078125 C134.83195899 83.92832935 136.77273457 83.57748406 139.82128906 80.06933594 C141.84105332 76.34348686 143.49494046 72.61730444 145.0625 68.6875 C145.63425027 67.36498293 146.21104369 66.0446342 146.79296875 64.7265625 C147.89506022 62.21428575 148.9699213 59.69340659 150.02050781 57.15917969 C151.66416033 53.27716923 153.48864266 49.54860212 155.4375 45.8125 C154.7775 45.8125 154.1175 45.8125 153.4375 45.8125 C152.21875 44.4921875 152.21875 44.4921875 150.9375 42.6875 C150.5146875 42.10742188 150.091875 41.52734375 149.65625 40.9296875 C145.39579943 33.52852016 145.27437848 24.57358626 146.9375 16.3359375 C149.46208616 8.90562142 154.80665744 3.68985709 161.4375 -0.1875 C168.03212616 -3.39509028 176.07410216 -3.31188949 183.10546875 -1.5 C191.7053937 2.05246469 197.84098726 8.10017198 201.6875 16.5625 C203.50300354 24.429682 202.99109914 32.50159221 199.4375 39.8125 C194.51822365 47.01498478 189.08142958 52.03428041 180.4375 53.8125 C177.80530623 53.90536123 175.22959692 53.94360141 172.6015625 53.8984375 C171.9103833 53.89223389 171.2192041 53.88603027 170.50708008 53.87963867 C168.81714824 53.8635719 167.12730175 53.83891566 165.4375 53.8125 C163.17460263 58.31357817 160.91433449 62.81596306 158.65649414 67.31958008 C157.88801057 68.85151808 157.11880941 70.38309632 156.34887695 71.91430664 C155.24241363 74.11510571 154.13853621 76.31718504 153.03515625 78.51953125 C152.69033707 79.20400833 152.34551788 79.88848541 151.99024963 80.59370422 C150.63178659 83.31030993 149.39951436 85.92645691 148.4375 88.8125 C149.015 89.039375 149.5925 89.26625 150.1875 89.5 C155.41513586 92.54945425 158.27346503 98.32475582 160.4375 103.8125 C160.97784818 106.17931436 161.23514416 108.38422989 161.4375 110.8125 C162.613125 110.9053125 162.613125 110.9053125 163.8125 111 C172.69951043 112.99191613 180.5163876 117.90830214 186.4375 124.8125 C193.54947458 136.45163487 195.20045004 148.25226596 192.8125 161.6875 C190.16991001 171.25549824 184.03029544 177.77200941 176.4375 183.8125 C177.98916733 188.41519859 180.47287141 191.93802134 183.3125 195.8125 C183.74691406 196.41578125 184.18132812 197.0190625 184.62890625 197.640625 C187.13992085 201.10929381 189.7326168 204.49115505 192.4375 207.8125 C193.4275 207.4825 194.4175 207.1525 195.4375 206.8125 C204.8969424 206.00320689 212.99889897 206.6369363 220.69140625 212.54296875 C227.69485577 219.004715 230.59818814 225.24045275 231 234.75 C230.7231618 243.31352846 227.9097365 249.34376691 222.25 255.6875 C215.43313625 261.88864702 207.67326932 263.57743892 198.6171875 263.2578125 C190.28516386 262.09091975 183.49892394 257.43128515 178.4375 250.8125 C173.71749732 243.79552272 173.32784155 236.04635216 174.4375 227.8125 C175.72308736 224.19293116 177.42430384 221.07021742 179.4375 217.8125 C180.11690342 216.48561145 180.78788674 215.15422458 181.4375 213.8125 C180.96441406 213.16925781 180.49132812 212.52601563 180.00390625 211.86328125 C179.01197266 210.50783203 179.01197266 210.50783203 178 209.125 C177.28565292 208.16752365 176.57130585 207.2100473 175.83531189 206.22355652 C174.20898634 203.98460371 172.89530013 201.8372443 171.53858948 199.39692688 C167.7105331 192.60935162 167.7105331 192.60935162 161.20529175 188.67514038 C157.35502476 188.31037617 153.6285632 188.34494132 149.77734375 188.54296875 C148.37781884 188.56726273 146.97818219 188.58574547 145.57850647 188.59870911 C141.9208523 188.64799802 138.27007536 188.77530918 134.6151123 188.91986084 C130.87521439 189.05365426 127.13418702 189.11238686 123.39257812 189.17773438 C116.07110622 189.31652803 108.7552718 189.53789496 101.4375 189.8125 C101.31061798 190.60424622 101.18373596 191.39599243 101.05300903 192.21173096 C100.17488387 197.60139703 99.28278421 202.93964874 97.9296875 208.234375 C97.53330078 209.80058594 97.53330078 209.80058594 97.12890625 211.3984375 C96.72478516 212.96464844 96.72478516 212.96464844 96.3125 214.5625 C96.03535156 215.65304687 95.75820312 216.74359375 95.47265625 217.8671875 C94.79863856 220.51677428 94.12021242 223.1651429 93.4375 225.8125 C94.37464844 226.10769531 95.31179687 226.40289062 96.27734375 226.70703125 C102.4065273 228.85110905 106.30946332 233.25886294 109.4375 238.8125 C112.57356902 246.64720902 113.0339423 256.02271807 109.6875 263.875 C108.97433801 265.20787517 108.22822096 266.52412249 107.4375 267.8125 C106.90125 268.699375 106.365 269.58625 105.8125 270.5 C98.01919761 278.08821548 90.26730134 280.19627317 79.6953125 280.08984375 C75.14825813 279.7027444 72.12665842 278.42667186 68.4375 275.8125 C67.82261719 275.38839844 67.20773438 274.96429688 66.57421875 274.52734375 C60.85481239 270.13062665 56.80685431 263.94974067 55.4375 256.8125 C54.44297254 247.51937459 56.74911173 239.86832559 62.5 232.5 C67.0794955 227.62377693 73.50970539 223.98562593 80.2734375 223.6875 C80.98757812 223.72875 81.70171875 223.77 82.4375 223.8125 C82.55222656 222.55050781 82.66695312 221.28851563 82.78515625 219.98828125 C83.39128197 214.54806324 84.58172022 209.31262744 85.875 204 C86.09220703 203.07251953 86.30941406 202.14503906 86.53320312 201.18945312 C87.51280615 197.10924473 88.51220319 193.55022684 90.4375 189.8125 C81.52569213 189.47626548 72.61973627 189.25391914 63.70199203 189.16740799 C59.55796854 189.12382742 55.4217513 189.04458747 51.28076172 188.87646484 C30.77974004 187.45071023 30.77974004 187.45071023 12.67773438 195.38476562 C7.66247227 200.06041039 3.33989552 205.17993155 -0.5625 210.8125 C0.51949539 213.59746205 1.63621814 216.17936427 3.0625 218.8125 C5.77035007 225.28047349 5.49125348 232.47960548 3.40625 239.07421875 C-0.45292675 247.61800727 -5.97369539 253.02020039 -14.5625 256.75 C-23.12401854 259.45185989 -30.60086428 257.58901461 -38.5625 253.8125 C-45.12922742 249.92776231 -49.1649721 242.88941349 -51.5625 235.8125 C-52.90265656 226.21234005 -50.9803468 218.80112111 -45.5625 210.8125 C-40.76950532 205.01659159 -33.70055554 201.51394103 -26.2734375 200.5 C-23.07938043 200.40970863 -20.29174187 200.57727055 -17.234375 201.56347656 C-14.54074958 202.41392362 -12.39439842 202.87676476 -9.5625 202.8125 C-6.08306351 200.76889106 -3.67598033 197.97818385 -1.0625 194.9375 C0.31930872 193.41598635 1.7045471 191.89757797 3.09375 190.3828125 C3.98803711 189.35824951 3.98803711 189.35824951 4.90039062 188.31298828 C6.4375 186.8125 6.4375 186.8125 8.4375 186.8125 C8.4375 186.1525 8.4375 185.4925 8.4375 184.8125 C7.633125 184.6475 6.82875 184.4825 6 184.3125 C-2.71647692 180.64240445 -8.72892474 173.30288622 -12.5625 164.8125 C-16.34463402 154.11077988 -17.1380934 144.05983675 -12.82421875 133.44921875 C-8.04123874 123.45382709 -1.44411326 116.75330663 8.4375 111.8125 C9.4275 111.8125 10.4175 111.8125 11.4375 111.8125 C11.375625 110.575 11.31375 109.3375 11.25 108.0625 C11.30070796 97.26170374 15.32514446 88.14378973 20.4375 78.8125 C20.08558594 78.38018066 19.73367187 77.94786133 19.37109375 77.50244141 C12.69426174 69.29804437 6.02367803 61.08999263 -0.5625 52.8125 C-1.24957031 52.96976563 -1.93664062 53.12703125 -2.64453125 53.2890625 C-11.26645675 54.83569974 -19.68578691 54.92772836 -27.37890625 50.41796875 C-34.20634362 45.39815344 -38.50394692 39.04671232 -40.5625 30.8125 C-41.7424728 22.19991502 -39.93490589 15.75929167 -35.08984375 8.65234375 C-26.4687726 -2.25137509 -12.86943476 -6.04153793 0 0 Z " fill="#FBFCFA" transform="translate(136.5625,87.1875)"/>
<path d="M0 0 C6.38466849 6.38466849 11.10542138 13.75389713 14.90234375 21.9140625 C15.66627966 23.77692227 15.66627966 23.77692227 16.8125 24.8125 C22.98262285 24.5705344 25.47567276 22.8467579 29.8125 18.8125 C33.29383825 17.07183088 37.0061633 17.36885603 40.8125 17.8125 C46.31326477 20.35131451 49.38734147 24.37903413 51.8125 29.8125 C52.45202492 32.41297783 52.91599105 34.95791222 53.2578125 37.61328125 C53.93902021 40.31412588 54.55480504 41.1854192 56.8125 42.8125 C58.8502621 43.49547088 60.9183442 44.09055379 63 44.625 C72.37070172 47.39456295 77.42383522 51.49495525 82.68359375 59.6640625 C86.16467535 66.28895828 85.94539515 75.38449839 84.12890625 82.484375 C81.03340252 89.93413502 76.43431084 95.49557317 69.1328125 98.98828125 C61.21381331 101.80125908 54.04108611 102.10925321 45.6862793 102.10302734 C44.38604828 102.10974457 43.08581726 102.11646179 41.7461853 102.12338257 C38.19849385 102.14095851 34.65089904 102.14573436 31.10316825 102.14701414 C28.8811804 102.14844106 26.6592167 102.15272083 24.43723488 102.15800858 C16.66981079 102.1764809 8.90245509 102.18468269 1.13500977 102.18310547 C-6.08027227 102.18190476 -13.29525485 102.2030003 -20.51046115 102.2345928 C-26.72646836 102.26083039 -32.9423782 102.27146965 -39.15844029 102.27019465 C-42.86158153 102.26968722 -46.56445632 102.27524812 -50.26754189 102.29655075 C-54.40293145 102.31969359 -58.53765876 102.31036675 -62.6730957 102.29833984 C-63.88332901 102.30957886 -65.09356232 102.32081787 -66.34046936 102.33239746 C-77.94446337 102.24696689 -86.7389718 99.41745064 -95.08203125 91.20703125 C-101.49561641 83.91291677 -102.04793305 76.25986085 -101.62890625 66.8515625 C-101.02869153 59.59214099 -97.71302126 55.05492169 -92.625 50.0625 C-88.40492816 46.57811118 -83.73273714 44.72708633 -78.62890625 42.85546875 C-76.04266604 42.06185435 -76.04266604 42.06185435 -75.1875 39.8125 C-75.09357841 37.90902238 -75.00457084 36.00507991 -74.94897461 34.10009766 C-74.49616333 20.09731983 -70.26295238 9.79772386 -60.08984375 -0.26171875 C-41.28327416 -15.99643487 -19.12107488 -13.12230629 0 0 Z " fill="#478C2A" transform="translate(234.1875,164.1875)"/>
<path d="M0 0 C0 4.29 0 8.58 0 13 C-1.546875 13.721875 -3.09375 14.44375 -4.6875 15.1875 C-8.97380918 17.31545491 -11.90014082 19.38349762 -15 23 C-13.68201416 23.40774658 -13.68201416 23.40774658 -12.33740234 23.82373047 C-9.20626233 24.92730271 -6.50144947 26.21684559 -3.6015625 27.8203125 C-2.14169922 28.62275391 -2.14169922 28.62275391 -0.65234375 29.44140625 C0.34667969 29.99699219 1.34570312 30.55257812 2.375 31.125 C3.39722656 31.68832031 4.41945313 32.25164062 5.47265625 32.83203125 C7.98425792 34.2169331 10.49323719 35.60636455 13 37 C13.21972656 43.04858398 13.21972656 43.04858398 13 45 C10.75 47.0625 10.75 47.0625 8 48 C4.36122236 47.48094775 1.36611864 45.75362357 -1.859375 44.05859375 C-2.97441406 43.47529297 -4.08945313 42.89199219 -5.23828125 42.29101562 C-6.39714844 41.67935547 -7.55601562 41.06769531 -8.75 40.4375 C-9.93599267 39.81536379 -11.1221885 39.19361469 -12.30859375 38.57226562 C-15.20775144 37.05197562 -18.10477151 35.52775569 -21 34 C-22.96175246 37.5778765 -23.03080533 39.79290037 -22.875 43.875 C-23.05078125 47.0703125 -23.05078125 47.0703125 -24 50 C-27.69420157 52.86445959 -31.59856868 54.48638561 -36 56 C-39.14675714 49.70648571 -37.70914727 37.26867403 -35.9375 30.5625 C-30.77532285 16.65330046 -20.84250285 7.44043198 -7.76171875 0.99609375 C-5 0 -5 0 0 0 Z " fill="#F9FBF9" transform="translate(252,205)"/>
<path d="M0 0 C9.51406826 0 18.23732114 6.33397491 25 12.7734375 C34.75471805 23.63318221 37.47870243 34.30942971 37.203125 48.4609375 C37.04691117 51.18266306 36.81901572 53.42406347 36 56 C31.34666097 54.67047456 27.53175005 53.36748261 24 50 C23.38006722 47.2490483 23.18877605 44.66814272 23.10546875 41.8515625 C22.99363303 38.82785593 22.52064125 35.97752182 22 33 C21.23333008 33.41886475 20.46666016 33.83772949 19.67675781 34.26928711 C16.82356748 35.82531737 13.9682082 37.37726972 11.11132812 38.92651367 C9.87672257 39.59709363 8.64298744 40.26927876 7.41015625 40.94311523 C5.63512703 41.91293967 3.85666296 42.87646902 2.078125 43.83984375 C1.00981445 44.42113037 -0.05849609 45.00241699 -1.15917969 45.60131836 C-3.52328144 46.76528699 -5.40459599 47.64675632 -8 48 C-10.75 47.0625 -10.75 47.0625 -13 45 C-13.30336538 42.30577833 -13.09879541 39.71961816 -13 37 C-9.05197447 34.77651078 -5.1031967 32.5543989 -1.15234375 30.3359375 C1.23521326 28.9948554 3.61806534 27.64705004 5.99609375 26.2890625 C6.78113281 25.84304687 7.56617188 25.39703125 8.375 24.9375 C9.04273438 24.55464844 9.71046875 24.17179687 10.3984375 23.77734375 C12 23 12 23 14 23 C10.50297017 17.43654345 5.79587405 15.66915252 0 13 C0 8.71 0 4.42 0 0 Z " fill="#F9FBF9" transform="translate(163,205)"/>
<path d="M0 0 C2.31 0.99 4.62 1.98 7 3 C7 13.23 7 23.46 7 34 C16.0156724 30.53995129 16.0156724 30.53995129 25 27 C27.67578125 28.046875 27.67578125 28.046875 30.3125 29.75 C31.63701172 30.57757813 31.63701172 30.57757813 32.98828125 31.421875 C33.65214844 31.94265625 34.31601563 32.4634375 35 33 C35 33.66 35 34.32 35 35 C23.01286371 44.71202675 9.25103816 48.42954925 -5.8828125 47.24804688 C-16.84926824 45.96323149 -27.63370932 41.3167798 -35 33 C-33.28428776 31.93631851 -31.55176399 30.89971828 -29.8125 29.875 C-28.84957031 29.29492188 -27.88664063 28.71484375 -26.89453125 28.1171875 C-24 27 -24 27 -21.45703125 27.69140625 C-20.24080078 28.33916016 -20.24080078 28.33916016 -19 29 C-17.29184216 29.68793591 -15.58350982 30.37543871 -13.875 31.0625 C-13.02679688 31.40410156 -12.17859375 31.74570313 -11.3046875 32.09765625 C-9.55548578 32.78251319 -7.78209487 33.40596838 -6 34 C-6 23.77 -6 13.54 -6 3 C-4.02 2.01 -2.04 1.02 0 0 Z " fill="#FAFCF9" transform="translate(207,157)"/>
<path d="M0 0 C5.21746061 2.75143984 9.20307063 6.63264939 11.09765625 12.31640625 C11.46589113 17.93198814 11.33657031 21.51027571 8.09765625 26.31640625 C3.7599152 30.69516613 0.6274724 33.15051667 -5.71484375 33.56640625 C-10.61873989 33.46779042 -14.02070299 32.1804204 -17.5703125 28.6640625 C-21.69893747 24.0254886 -23.23871193 20.79876037 -23.109375 14.3671875 C-22.50932347 8.4232808 -18.95498241 5.13670302 -14.62109375 1.515625 C-10.37170589 -1.4492888 -4.80515471 -1.7266983 0 0 Z " fill="#488D2B" transform="translate(344.90234375,305.68359375)"/>
<path d="M0 0 C4.07166495 2.90833211 7.01178079 6.03534238 8.625 10.875 C9.16331595 17.2271282 8.26647114 21.57724682 4.625 26.875 C-0.23539326 31.49830091 -4.30123456 32.23766602 -10.8046875 32.15234375 C-14.96024246 31.703948 -17.03218505 30.41553936 -20.375 27.875 C-24.08086409 23.09638577 -25.80894131 19.18814158 -25.71875 13.06640625 C-24.88417651 7.74600027 -21.53927998 3.98383808 -17.75 0.375 C-11.88544854 -2.23146731 -6.04425376 -2.01475125 0 0 Z " fill="#347B1F" transform="translate(121.375,301.125)"/>
<path d="M0 0 C4.16164957 2.43533567 7.17997049 4.97279125 9.859375 9.046875 C10.9518157 14.65652451 11.2013357 20.53163581 8.4609375 25.66796875 C4.19172873 30.74814076 0.64899633 32.77248602 -5.953125 33.421875 C-11.48181727 33.23410809 -15.92193116 31.37838378 -19.75390625 27.3515625 C-22.92253282 22.94226243 -23.93324333 18.91403062 -23.6171875 13.5078125 C-22.64323571 8.4783893 -20.40640935 4.75708323 -16.30859375 1.6640625 C-11.02171849 -1.31827739 -5.68691377 -2.53212949 0 0 Z " fill="#589B34" transform="translate(317.140625,96.953125)"/>
<path d="M0 0 C4.37244206 1.97569604 7.22371439 4.15399446 9.859375 8.265625 C11.53455431 13.29116292 11.86018637 18.52040877 10.0234375 23.55859375 C7.12887531 28.73578049 3.53670099 31.56980035 -2.140625 33.265625 C-6.9479169 34.24575247 -10.24152611 33.5025472 -14.453125 31.015625 C-18.40994005 28.26912985 -20.60320385 25.87788846 -22.140625 21.265625 C-22.63478824 16.10526461 -22.76607742 11.67289295 -20.640625 6.890625 C-14.70306851 0.65619069 -8.56174696 -2.93724166 0 0 Z " fill="#3B8223" transform="translate(226.140625,322.734375)"/>
<path d="M0 0 C4.70710299 1.96938831 7.59644759 4.62068895 10.04296875 9.09765625 C11.89610717 14.0450258 11.89610717 18.6971617 10.04296875 23.64453125 C7.19824363 28.85018471 3.56289902 31.67794493 -2.10546875 33.37109375 C-6.91276065 34.35122122 -10.20636986 33.60801595 -14.41796875 31.12109375 C-18.3747838 28.3745986 -20.5680476 25.98335721 -22.10546875 21.37109375 C-22.59963199 16.21073336 -22.73092117 11.7783617 -20.60546875 6.99609375 C-14.58110994 0.670517 -8.66746386 -2.58898271 0 0 Z " fill="#478C2A" transform="translate(130.10546875,96.62890625)"/>
</svg>
