<svg version="1.1" id="Layer_1" xmlns="http://www.w3.org/2000/svg" xmlns:xlink="http://www.w3.org/1999/xlink" x="0px" y="0px"
	 width="100%" viewBox="0 0 1080 1080" enable-background="new 0 0 1080 1080" xml:space="preserve">
<path fill="#03A9F5" opacity="1.000000" stroke="none" 
	d="
M469.000000,1081.000000 
	C312.684662,1081.000000 156.869293,1081.000000 1.026973,1081.000000 
	C1.026973,721.059509 1.026973,361.119049 1.026973,1.089287 
	C360.898895,1.089287 720.797852,1.089287 1080.848389,1.089287 
	C1080.848389,360.999939 1080.848389,720.999939 1080.848389,1081.000000 
	C877.118591,1081.000000 673.309265,1081.000000 469.000000,1081.000000 
M561.500000,774.779358 
	C640.659119,774.755310 719.819153,774.911987 798.976318,774.509155 
	C810.634583,774.449829 822.502136,772.688293 833.875977,770.021484 
	C849.368896,766.389038 863.903137,759.991760 877.398071,751.183960 
	C897.562744,738.023132 914.185791,721.653503 925.141052,700.097412 
	C936.583923,677.581848 942.361023,653.827454 941.931641,628.246948 
	C941.567993,606.583557 934.812500,587.154541 924.852356,568.661316 
	C914.835449,550.062683 901.193909,534.435059 884.069824,521.624329 
	C867.335388,509.105072 848.469849,502.131744 828.593140,497.220947 
	C823.582458,495.983002 820.565918,492.966187 819.484070,488.467346 
	C816.890503,477.682495 813.667419,467.213501 809.062378,457.055450 
	C801.620728,440.640259 791.559692,426.198639 778.215088,414.205719 
	C763.912537,401.351868 747.738647,391.357422 729.289368,385.563416 
	C720.003601,382.647217 710.598633,379.540344 701.015625,378.271515 
	C686.035339,376.288025 670.888367,376.336700 655.899475,379.359528 
	C640.632385,382.438568 626.144348,387.679108 612.790955,395.610687 
	C609.079590,397.815186 607.488831,397.482300 605.265137,394.243317 
	C600.488281,387.285461 595.618896,380.378967 590.499695,373.670959 
	C581.773865,362.236938 571.212524,352.613800 559.706787,344.083374 
	C543.216248,331.857147 525.422302,321.910156 505.669952,316.047485 
	C494.578430,312.755432 483.306335,309.350159 471.884308,308.086517 
	C459.245239,306.688293 446.335938,307.404663 433.555450,307.692963 
	C415.826050,308.092957 398.847412,312.670288 382.225922,318.404327 
	C362.413757,325.239044 344.844482,336.108826 328.547363,349.222046 
	C315.998474,359.319305 305.256470,371.065857 295.682678,383.911163 
	C286.644775,396.037384 279.244049,409.101257 273.363892,423.091980 
	C268.065552,435.698425 264.493073,448.701385 262.685425,462.198486 
	C261.339691,472.247040 260.428864,482.354370 259.036652,492.395630 
	C258.809692,494.032745 257.410309,496.271912 255.997940,496.830902 
	C252.357101,498.271973 248.425125,499.015411 244.574509,499.882172 
	C224.402161,504.422729 206.854904,514.289978 191.063202,527.200928 
	C179.712524,536.481018 170.648270,547.872192 162.538666,560.216064 
	C154.876328,571.879089 150.078354,584.707397 145.238724,597.486938 
	C140.500717,609.998047 140.443008,623.383789 140.187820,636.740112 
	C139.849487,654.446899 144.579575,670.723450 151.380875,686.681641 
	C157.739288,701.600769 166.335693,715.094482 176.927490,727.367615 
	C194.312805,747.512756 215.730972,761.566040 241.294876,768.698730 
	C257.791534,773.301453 274.908936,774.660767 292.025726,774.680542 
	C381.517059,774.783936 471.008575,774.758972 561.500000,774.779358 
z"/>
<path fill="#FCFEFD" opacity="1.000000" stroke="none" 
	d="
M561.000000,774.778992 
	C471.008575,774.758972 381.517059,774.783936 292.025726,774.680542 
	C274.908936,774.660767 257.791534,773.301453 241.294876,768.698730 
	C215.730972,761.566040 194.312805,747.512756 176.927490,727.367615 
	C166.335693,715.094482 157.739288,701.600769 151.380875,686.681641 
	C144.579575,670.723450 139.849487,654.446899 140.187820,636.740112 
	C140.443008,623.383789 140.500717,609.998047 145.238724,597.486938 
	C150.078354,584.707397 154.876328,571.879089 162.538666,560.216064 
	C170.648270,547.872192 179.712524,536.481018 191.063202,527.200928 
	C206.854904,514.289978 224.402161,504.422729 244.574509,499.882172 
	C248.425125,499.015411 252.357101,498.271973 255.997940,496.830902 
	C257.410309,496.271912 258.809692,494.032745 259.036652,492.395630 
	C260.428864,482.354370 261.339691,472.247040 262.685425,462.198486 
	C264.493073,448.701385 268.065552,435.698425 273.363892,423.091980 
	C279.244049,409.101257 286.644775,396.037384 295.682678,383.911163 
	C305.256470,371.065857 315.998474,359.319305 328.547363,349.222046 
	C344.844482,336.108826 362.413757,325.239044 382.225922,318.404327 
	C398.847412,312.670288 415.826050,308.092957 433.555450,307.692963 
	C446.335938,307.404663 459.245239,306.688293 471.884308,308.086517 
	C483.306335,309.350159 494.578430,312.755432 505.669952,316.047485 
	C525.422302,321.910156 543.216248,331.857147 559.706787,344.083374 
	C571.212524,352.613800 581.773865,362.236938 590.499695,373.670959 
	C595.618896,380.378967 600.488281,387.285461 605.265137,394.243317 
	C607.488831,397.482300 609.079590,397.815186 612.790955,395.610687 
	C626.144348,387.679108 640.632385,382.438568 655.899475,379.359528 
	C670.888367,376.336700 686.035339,376.288025 701.015625,378.271515 
	C710.598633,379.540344 720.003601,382.647217 729.289368,385.563416 
	C747.738647,391.357422 763.912537,401.351868 778.215088,414.205719 
	C791.559692,426.198639 801.620728,440.640259 809.062378,457.055450 
	C813.667419,467.213501 816.890503,477.682495 819.484070,488.467346 
	C820.565918,492.966187 823.582458,495.983002 828.593140,497.220947 
	C848.469849,502.131744 867.335388,509.105072 884.069824,521.624329 
	C901.193909,534.435059 914.835449,550.062683 924.852356,568.661316 
	C934.812500,587.154541 941.567993,606.583557 941.931641,628.246948 
	C942.361023,653.827454 936.583923,677.581848 925.141052,700.097412 
	C914.185791,721.653503 897.562744,738.023132 877.398071,751.183960 
	C863.903137,759.991760 849.368896,766.389038 833.875977,770.021484 
	C822.502136,772.688293 810.634583,774.449829 798.976318,774.509155 
	C719.819153,774.911987 640.659119,774.755310 561.000000,774.778992 
M847.085632,591.740112 
	C847.188477,593.176025 847.291382,594.611938 847.318604,596.773376 
	C847.342041,597.506104 847.365479,598.238892 847.081116,599.846497 
	C847.036926,602.002075 846.928345,604.158813 846.966125,606.312988 
	C847.006226,608.597412 846.615295,611.384155 850.094727,611.411621 
	C853.653809,611.439758 853.748657,608.698242 853.772095,606.117859 
	C853.820435,600.807739 853.595459,595.483765 853.906067,590.190308 
	C854.276550,583.876709 856.945801,577.989746 864.644836,577.703003 
	C865.721130,577.662903 867.610352,575.451599 867.523987,574.373474 
	C867.420166,573.076599 865.503418,570.810669 864.549561,570.898438 
	C861.262512,571.200989 858.053040,572.346313 855.020203,573.118103 
	C853.059998,572.420044 850.942810,571.666016 848.825623,570.912048 
	C848.192505,572.983521 847.275085,575.019531 847.010193,577.137024 
	C846.769958,579.058228 847.240479,581.068359 847.315063,583.922485 
	C847.346008,586.256775 847.376953,588.591064 847.085632,591.740112 
M272.561401,702.961975 
	C279.499939,703.006958 286.438507,703.051880 294.063721,703.465942 
	C300.689362,703.547546 307.334900,703.988586 313.935730,703.622803 
	C322.831421,703.129761 329.559357,698.227966 332.858673,690.306396 
	C336.106689,682.508118 336.425507,674.154785 330.878052,666.680176 
	C328.531921,663.518982 326.276733,660.289856 324.001343,657.076660 
	C321.205017,653.127869 320.252991,647.635620 314.402527,645.447632 
	C310.011047,640.226013 303.892029,638.857178 297.585175,637.886719 
	C283.733612,635.755005 268.415863,644.870728 264.363953,657.497986 
	C261.915955,660.403992 259.407623,663.261597 257.030975,666.224792 
	C248.766998,676.528442 251.805649,693.080505 263.569733,699.204163 
	C265.824219,700.310486 268.078735,701.416870 270.270813,702.873657 
	C270.707458,702.850525 271.144073,702.827393 272.561401,702.961975 
M835.060486,581.139526 
	C835.085266,579.642578 835.162964,578.144287 835.122864,576.649048 
	C835.057678,574.223938 835.672607,571.413208 831.640442,571.502747 
	C828.060852,571.582092 827.748413,573.812622 827.748779,576.550659 
	C827.749695,583.206299 827.796631,589.865540 827.593689,596.516296 
	C827.444092,601.417297 823.030151,605.955261 818.629944,606.139038 
	C813.808716,606.340271 810.005493,602.596191 809.763428,596.899231 
	C809.452820,589.588745 809.642517,582.253662 809.189331,574.955688 
	C809.112183,573.712341 807.041138,572.038391 805.602478,571.659424 
	C804.841064,571.458801 802.539062,573.588074 802.503296,574.715454 
	C802.250122,582.692383 802.053101,590.703308 802.530090,598.661926 
	C802.980835,606.183228 808.593384,612.119324 815.444092,612.090881 
	C819.218201,612.075256 822.984253,610.129395 827.475281,608.847900 
	C827.205811,608.666809 827.697205,609.211426 828.285400,609.352539 
	C830.119202,609.792480 832.097290,610.571594 833.796509,610.200012 
	C834.545105,610.036255 835.142700,607.414062 835.145264,605.906860 
	C835.157837,598.597168 834.945251,591.287048 834.973938,583.332458 
	C834.919556,582.896179 834.865173,582.459961 835.060486,581.139526 
M730.894958,595.399414 
	C733.886292,595.456055 736.896973,595.752625 739.864624,595.514282 
	C744.589478,595.134705 748.763977,595.532166 750.890869,601.444702 
	C753.029480,609.711731 754.778320,611.209839 761.247559,609.716858 
	C760.829895,607.845032 760.643677,605.869507 759.951904,604.090454 
	C754.373291,589.743530 748.641541,575.455933 743.105591,561.092773 
	C742.049866,558.353577 740.809204,555.685791 737.627014,556.887817 
	C735.369202,557.740601 732.850525,559.790405 731.923889,561.941589 
	C728.518372,569.847473 725.748901,578.026306 722.700073,586.087280 
	C720.740662,591.267883 718.711426,596.422119 716.598755,601.884766 
	C721.214294,602.936279 724.827881,603.939209 725.903015,598.081604 
	C726.124878,596.873108 728.585693,596.075500 730.894958,595.399414 
M429.487823,548.624023 
	C417.383972,547.655640 405.155853,547.463196 393.203491,545.548889 
	C371.782867,542.118347 350.950745,536.318298 331.544281,526.220642 
	C327.123779,523.920593 322.767975,521.465759 318.208679,519.481262 
	C316.836884,518.884155 314.878143,519.635315 313.188293,519.768860 
	C313.604980,520.906860 313.694122,522.400696 314.486786,523.130188 
	C329.996124,537.404907 347.989105,547.755737 367.651001,554.917419 
	C377.249695,558.413635 387.527191,560.062622 397.517822,562.462830 
	C413.977051,566.417053 430.747253,565.395081 447.199707,563.660461 
	C459.803406,562.331604 472.502136,559.026062 484.383301,554.544373 
	C495.895538,550.201782 506.470337,543.329407 517.302856,537.291870 
	C518.521973,536.612427 518.741821,534.140015 519.425049,532.499023 
	C517.624146,532.087952 515.633301,530.969788 514.056519,531.393250 
	C508.454376,532.897461 502.915955,534.724365 497.492493,536.793518 
	C475.898621,545.031921 453.224243,547.007141 429.487823,548.624023 
M398.530182,482.322876 
	C399.571960,486.159363 400.692291,489.976624 401.635132,493.837280 
	C402.750946,498.406403 406.311584,498.425018 409.857483,498.356049 
	C413.082001,498.293304 416.547943,498.927063 417.617218,494.211151 
	C420.685944,480.677063 423.994171,467.196930 427.278961,453.712799 
	C427.535919,452.657959 428.341583,451.736847 429.508759,449.652710 
	C430.866058,453.406860 432.032898,455.817139 432.601410,458.361176 
	C434.262939,465.796356 435.579681,473.308563 437.240723,480.743866 
	C438.287415,485.428955 439.624542,490.055328 440.986969,494.661987 
	C442.342957,499.246918 446.299744,498.863861 449.652313,498.346344 
	C451.943848,497.992615 455.194183,496.782288 455.979584,495.038086 
	C458.535492,489.361725 460.233368,483.288544 462.119354,477.323151 
	C466.251953,464.251648 470.424316,451.189270 474.231903,438.022369 
	C474.761230,436.192017 473.971832,432.612976 472.658722,431.882599 
	C469.208282,429.963379 462.923859,431.911499 462.212036,434.542419 
	C459.708374,443.796082 457.476349,453.123230 454.973907,462.377258 
	C453.278107,468.648224 451.301819,474.843292 449.450989,481.072327 
	C448.954987,481.002289 448.458954,480.932220 447.962952,480.862152 
	C446.178040,473.614014 444.358307,466.374237 442.617584,459.115479 
	C440.650452,450.912537 438.808899,442.678772 436.750336,434.499298 
	C436.522614,433.594574 435.361023,432.664917 434.412018,432.243866 
	C428.355316,429.556702 423.247803,431.787994 421.239868,437.921753 
	C420.723755,439.498291 420.375366,441.132355 419.997314,442.751068 
	C417.887054,451.787323 415.853760,460.842102 413.660522,469.858063 
	C412.761688,473.553040 411.528259,477.166595 410.447021,480.817169 
	C409.978424,480.829620 409.509857,480.842072 409.041260,480.854553 
	C407.581482,475.268860 406.070038,469.696045 404.674011,464.094452 
	C402.555237,455.593018 400.742371,447.008148 398.374603,438.578064 
	C396.372559,431.449982 395.635895,431.289459 388.515350,431.504791 
	C385.332245,431.601074 383.732361,432.556885 384.654907,436.001343 
	C386.362030,442.375183 387.847809,448.813934 389.744659,455.129913 
	C392.407471,463.996399 395.361328,472.775452 398.530182,482.322876 
M412.101624,691.553162 
	C416.435822,691.964600 420.870331,693.151733 425.080933,692.607300 
	C431.550903,691.770569 434.059998,686.218384 436.051666,679.288513 
	C439.785736,687.094238 443.559387,693.197449 451.885651,693.662964 
	C460.340759,694.135803 465.008667,688.510437 469.274597,681.275513 
	C474.071625,691.198669 480.609680,696.011780 490.579834,692.621399 
	C490.999390,693.371826 491.183502,693.575623 491.142090,693.645203 
	C489.907166,695.720459 488.911102,699.237183 487.337494,699.519714 
	C484.696808,699.993896 480.973969,699.217957 479.006561,697.488770 
	C476.384705,695.184509 474.323792,695.753723 472.569946,697.369751 
	C472.023926,697.872925 473.309784,701.008179 474.398621,702.455933 
	C475.433990,703.832703 477.213898,704.768127 478.829407,705.568787 
	C484.890533,708.572510 496.791260,705.158630 497.543549,697.888123 
	C498.447510,689.152222 498.668335,680.335327 498.926117,671.545959 
	C499.137512,664.338562 498.970398,664.355347 491.615509,664.640869 
	C490.650116,664.678345 489.664642,664.390625 488.699066,664.200073 
	C480.958588,662.672791 476.070160,664.710876 471.630371,671.349792 
	C470.920074,672.411865 470.255157,673.504272 469.313660,674.984497 
	C464.439392,669.400818 460.615631,663.249939 452.024261,663.584534 
	C443.302521,663.924072 440.258087,670.776062 435.670990,677.133057 
	C433.437073,668.863770 429.162720,664.406860 421.267242,663.646667 
	C412.914215,662.842346 409.004608,668.674500 404.086914,675.342590 
	C404.249756,667.812744 400.038116,668.071594 395.708588,668.285217 
	C392.550171,668.440979 389.377594,668.326843 386.211517,668.306824 
	C383.921600,668.292358 381.715820,668.332825 381.749939,671.533386 
	C381.786499,674.961548 384.332642,674.379211 386.413055,674.418152 
	C389.609436,674.477966 392.807770,674.433899 396.005280,674.433899 
	C396.259735,675.024231 396.514221,675.614502 396.768677,676.204834 
	C395.241211,678.415649 393.987427,680.894226 392.135284,682.787537 
	C386.411621,688.638367 375.431885,687.905396 369.558228,680.978394 
	C365.084595,675.702576 364.377625,666.182556 368.684692,660.694580 
	C373.648254,654.370056 382.987305,652.058228 389.174225,656.055359 
	C393.244110,658.684814 395.474060,657.519714 397.251740,653.702881 
	C390.363068,644.838989 372.465485,644.546570 363.419952,656.096558 
	C356.084930,665.462463 356.529022,680.412354 368.022400,689.208130 
	C373.220764,693.186462 379.418671,694.488770 385.999207,693.282410 
	C395.113586,691.611450 401.076569,686.410339 403.080994,677.854858 
	C405.950745,682.299866 408.770050,686.666809 412.101624,691.553162 
M364.618744,491.180817 
	C365.760986,492.516266 367.018341,493.771149 368.021545,495.203949 
	C370.127106,498.211395 372.400269,499.492371 375.945923,497.177765 
	C379.094940,495.122131 380.468170,492.991455 379.339142,488.952087 
	C378.013367,484.208771 377.226685,479.218506 376.968231,474.295349 
	C376.567047,466.654297 377.084656,458.966309 376.720093,451.321716 
	C376.068359,437.655670 367.510712,429.473511 353.820282,429.856750 
	C347.285370,430.039703 340.712677,431.235107 334.294250,432.611450 
	C326.466553,434.289978 325.487213,436.538025 327.943512,444.959839 
	C332.901062,443.356750 337.810944,441.556732 342.839630,440.195435 
	C349.483978,438.396790 356.032135,439.032379 360.863403,444.255707 
	C364.898926,448.618683 364.809265,454.345795 364.244568,460.315216 
	C362.477051,459.964142 361.528198,459.650543 360.566467,459.604034 
	C351.071503,459.145233 341.480591,456.846008 332.382843,462.019409 
	C324.909821,466.268951 319.931458,476.424744 321.934570,484.435669 
	C323.970764,492.578644 332.960663,500.190674 341.346802,500.286285 
	C350.433258,500.389893 357.292511,496.728912 364.618744,491.180817 
M673.761169,569.601196 
	C667.114136,558.107178 660.467102,546.613098 653.820068,535.119080 
	C653.269470,535.215454 652.718872,535.311890 652.168274,535.408264 
	C647.744812,547.949768 643.181030,560.445374 639.047852,573.081848 
	C638.421265,574.997498 639.122498,578.075134 640.374207,579.739441 
	C643.951965,584.496582 648.828674,588.372009 651.915405,593.382263 
	C657.193909,601.950195 664.535400,603.748962 673.753479,602.810486 
	C679.596008,602.215698 685.548279,602.699402 693.025757,602.699402 
	C686.229431,590.975464 680.208679,580.589417 673.761169,569.601196 
M483.713959,457.707916 
	C486.822205,463.243347 491.605835,466.441162 497.680084,468.033844 
	C502.327606,469.252411 506.966522,470.571838 511.487732,472.186615 
	C516.863770,474.106720 519.553162,481.382629 515.879883,485.100067 
	C513.538147,487.469910 509.813507,489.129822 506.465546,489.714447 
	C499.107697,490.999329 491.942871,489.164368 485.100159,486.356293 
	C481.646942,484.939178 479.896912,486.466522 480.581299,489.563019 
	C481.152313,492.146484 482.716553,495.734863 484.772369,496.561493 
	C495.800507,500.995605 507.173126,502.397278 518.446777,497.110199 
	C524.246521,494.390289 528.635559,490.187683 529.713013,483.610779 
	C531.042358,475.495758 529.669312,468.016785 521.443054,464.164978 
	C514.167480,460.758331 506.446991,458.313690 498.998016,455.261078 
	C494.651978,453.480072 492.343658,447.417023 495.305664,444.178802 
	C497.439484,441.846008 501.207184,439.734985 504.228668,439.758575 
	C510.070557,439.804199 515.882202,441.571167 521.746704,442.300598 
	C523.338989,442.498657 526.291382,441.886444 526.531799,441.047668 
	C527.490295,437.703583 527.095215,434.295105 523.104858,432.811768 
	C513.032593,429.067627 503.062317,427.983612 492.670929,432.321869 
	C482.758972,436.459900 479.160431,446.722260 483.713959,457.707916 
M628.871216,572.564331 
	C632.077759,565.491699 635.223755,558.390808 638.507935,551.354431 
	C641.728149,544.455078 645.088928,537.621277 648.387939,530.758728 
	C647.807068,530.404846 647.226196,530.050964 646.645325,529.697083 
	C640.390320,534.784973 633.972961,539.688110 627.920837,545.006836 
	C620.131714,551.852112 611.753479,558.077271 606.903992,567.832520 
	C602.776306,576.135437 597.621155,583.923523 593.041565,592.007935 
	C591.288757,595.102112 589.871582,598.386353 587.759460,602.688049 
	C596.093872,602.688049 603.196106,602.543213 610.288025,602.750977 
	C613.682556,602.850342 615.586975,601.262390 616.871887,598.487244 
	C620.766968,590.074585 624.626404,581.645386 628.871216,572.564331 
M877.842773,608.674255 
	C884.712524,613.317993 891.731628,613.138306 899.098267,609.752380 
	C902.694031,608.099609 903.003845,605.954590 901.518127,602.357117 
	C899.225342,603.295776 897.259521,604.098999 895.294922,604.905151 
	C888.290833,607.779236 881.918518,605.336121 878.681824,598.534912 
	C876.898499,594.787476 877.708679,593.328552 881.944824,593.228516 
	C887.925659,593.087463 893.922852,593.352295 899.886780,592.999390 
	C901.315247,592.914917 903.595032,591.275940 903.856384,590.014832 
	C905.459167,582.278687 901.890625,574.787170 895.698059,571.874695 
	C889.792297,569.097107 879.478333,571.486328 875.341797,577.112305 
	C869.247986,585.400452 868.751953,600.615601 877.842773,608.674255 
M776.799500,600.947266 
	C782.440552,591.088562 791.432739,583.316772 796.144104,571.399841 
	C786.035522,571.399841 777.258362,571.315002 768.488220,571.524658 
	C767.562744,571.546875 765.791016,573.537170 765.967651,574.199402 
	C766.295471,575.428223 767.595703,576.775085 768.819092,577.283630 
	C770.098328,577.815369 771.765076,577.381897 773.260132,577.434326 
	C776.905762,577.561951 780.550049,577.726685 785.230286,577.919006 
	C783.431580,580.804871 782.496399,582.532349 781.349731,584.105652 
	C776.281433,591.059998 771.095032,597.929260 766.098511,604.934265 
	C765.211182,606.178406 764.290955,608.205750 764.735229,609.345520 
	C765.111389,610.310608 767.434387,610.964111 768.904297,610.980103 
	C776.380005,611.061462 783.864441,611.023682 791.330322,610.685242 
	C792.678650,610.624146 793.954590,608.964966 795.263977,608.043579 
	C793.932373,606.982971 792.680908,605.156006 791.254089,605.006958 
	C787.139587,604.577148 782.953857,604.857666 778.797241,604.790771 
	C776.769165,604.758118 774.871765,604.473694 776.799500,600.947266 
M566.958801,652.273315 
	C551.879700,657.619690 548.273743,675.837646 558.742859,687.447205 
	C566.588623,696.147766 584.368896,695.716431 589.569946,685.662415 
	C587.948059,682.861511 586.349792,682.180969 583.349731,684.550476 
	C577.077942,689.504150 568.676575,689.110413 563.797241,684.143127 
	C557.763306,678.000427 557.110413,668.572937 562.260925,661.959534 
	C566.487671,656.532227 575.496521,655.552002 582.802429,659.430481 
	C584.004150,660.068359 585.874634,659.446350 587.436035,659.406677 
	C586.850525,657.944885 586.679260,655.966492 585.609497,655.108582 
	C580.287231,650.840576 574.120178,650.385193 566.958801,652.273315 
M687.007996,655.949951 
	C687.007996,659.301270 687.007996,662.652649 687.007996,666.407471 
	C675.892578,662.044128 671.774109,663.203064 666.404114,671.455933 
	C663.350464,676.148743 663.983032,683.453247 667.862305,688.294495 
	C672.007935,693.468140 676.724548,694.723572 682.934021,692.697754 
	C684.623535,692.146606 686.659302,692.185791 688.442383,692.495056 
	C691.695007,693.059143 693.074646,692.102844 693.042419,688.669739 
	C692.939209,677.673950 693.097595,666.674866 692.890625,655.682007 
	C692.865601,654.352783 691.223206,653.053955 690.330383,651.741028 
	C689.226196,652.857788 688.122009,653.974609 687.007996,655.949951 
M525.007874,693.553528 
	C530.652039,693.984375 535.586609,692.800354 538.874023,687.358948 
	C537.125305,684.944092 535.973877,682.010376 532.096802,685.504395 
	C530.698486,686.764465 527.687805,686.566467 525.449951,686.429504 
	C524.262634,686.356812 523.154602,684.989502 522.010742,684.206665 
	C522.917114,683.233765 523.644775,681.872253 524.762207,681.358215 
	C528.675903,679.557800 532.804504,678.214966 536.672791,676.331360 
	C537.862671,675.751953 539.385864,673.848755 539.214172,672.805603 
	C538.060547,665.799438 526.443848,661.277954 520.095947,665.010742 
	C513.575928,668.844910 511.726105,674.691040 512.824951,681.653687 
	C513.840210,688.086670 517.900818,691.911072 525.007874,693.553528 
M501.125092,524.648071 
	C508.075043,524.507507 515.068115,523.828491 521.962524,524.380798 
	C528.600525,524.912537 529.401123,526.879089 527.307495,533.426453 
	C525.539124,538.956482 523.485840,544.405029 521.975647,550.002136 
	C521.532166,551.645874 522.511719,553.673584 522.839050,555.525269 
	C524.465942,554.771484 526.535278,554.421021 527.648926,553.199341 
	C535.620605,544.454651 540.412292,534.290405 540.478821,522.243103 
	C540.511841,516.263977 538.820740,514.147156 532.785706,513.465088 
	C527.849121,512.907227 522.677185,512.061829 517.910950,512.953796 
	C511.654572,514.124512 505.635498,516.726929 499.655426,519.073120 
	C498.460754,519.541809 497.900238,521.626831 497.047333,522.966614 
	C498.134735,523.515320 499.222107,524.064026 501.125092,524.648071 
M629.873657,687.353760 
	C630.373718,686.488159 630.943298,685.654907 631.362671,684.751892 
	C634.414307,678.181763 631.808960,670.198975 625.132935,665.575867 
	C620.075012,662.073364 612.151062,663.405701 607.475708,668.544739 
	C602.985229,673.480530 602.876221,682.371887 606.447205,687.764587 
	C611.332642,695.142273 624.038757,696.129883 629.873657,687.353760 
M660.692078,672.657898 
	C660.691162,671.659485 660.731689,670.658875 660.681030,669.663025 
	C660.567444,667.429443 661.214783,664.307800 657.684265,664.738892 
	C656.627014,664.867920 655.343872,667.767578 655.160889,669.502991 
	C654.744141,673.456787 655.122070,677.487976 654.844971,681.464600 
	C654.559265,685.565063 651.282959,688.546021 647.696045,688.172058 
	C643.662170,687.751465 642.059082,685.226135 642.111267,681.324219 
	C642.166809,677.165283 642.345093,672.978271 641.928528,668.858215 
	C641.774170,667.330811 640.083069,665.958740 639.092773,664.515808 
	C638.117310,665.885864 636.395630,667.206665 636.301453,668.634766 
	C635.973877,673.603333 636.079895,678.614014 636.263245,683.599731 
	C636.536804,691.042969 642.461426,695.077820 649.652649,693.171143 
	C652.029419,692.540955 654.727417,693.086426 657.076782,692.402039 
	C658.476562,691.994263 660.411926,690.310608 660.506042,689.078369 
	C660.897705,683.949219 660.681641,678.773621 660.692078,672.657898 
M502.279816,681.461670 
	C502.272278,683.617676 502.324554,685.775879 502.242249,687.929077 
	C502.135376,690.725464 502.530701,692.724304 506.167267,692.752625 
	C509.791809,692.780762 510.158386,690.839233 510.144775,688.014587 
	C510.088837,676.405640 510.099518,664.796021 510.151215,653.186951 
	C510.163513,650.421509 509.916443,648.350281 506.246521,648.348389 
	C502.657745,648.346497 502.217194,650.267029 502.238586,653.110474 
	C502.307220,662.231384 502.268768,671.353149 502.279816,681.461670 
M600.119324,666.456360 
	C600.134521,662.807129 600.393860,659.133728 600.037231,655.521240 
	C599.906067,654.192444 598.319580,653.007324 597.396912,651.756714 
	C596.329956,653.071899 594.368652,654.366028 594.337158,655.705444 
	C594.080078,666.648010 594.078064,677.601135 594.307068,688.544617 
	C594.336365,689.941162 595.945312,692.241455 597.162476,692.495728 
	C600.452026,693.183044 600.170837,690.368164 600.175903,688.232727 
	C600.192444,681.265747 600.164246,674.298584 600.119324,666.456360 
z"/>
<path fill="#F9A018" opacity="1.000000" stroke="none" 
	d="
M429.981445,548.621338 
	C453.224243,547.007141 475.898621,545.031921 497.492493,536.793518 
	C502.915955,534.724365 508.454376,532.897461 514.056519,531.393250 
	C515.633301,530.969788 517.624146,532.087952 519.425049,532.499023 
	C518.741821,534.140015 518.521973,536.612427 517.302856,537.291870 
	C506.470337,543.329407 495.895538,550.201782 484.383301,554.544373 
	C472.502136,559.026062 459.803406,562.331604 447.199707,563.660461 
	C430.747253,565.395081 413.977051,566.417053 397.517822,562.462830 
	C387.527191,560.062622 377.249695,558.413635 367.651001,554.917419 
	C347.989105,547.755737 329.996124,537.404907 314.486786,523.130188 
	C313.694122,522.400696 313.604980,520.906860 313.188293,519.768860 
	C314.878143,519.635315 316.836884,518.884155 318.208679,519.481262 
	C322.767975,521.465759 327.123779,523.920593 331.544281,526.220642 
	C350.950745,536.318298 371.782867,542.118347 393.203491,545.548889 
	C405.155853,547.463196 417.383972,547.655640 429.981445,548.621338 
z"/>
<path fill="#353D49" opacity="1.000000" stroke="none" 
	d="
M398.360474,481.957397 
	C395.361328,472.775452 392.407471,463.996399 389.744659,455.129913 
	C387.847809,448.813934 386.362030,442.375183 384.654907,436.001343 
	C383.732361,432.556885 385.332245,431.601074 388.515350,431.504791 
	C395.635895,431.289459 396.372559,431.449982 398.374603,438.578064 
	C400.742371,447.008148 402.555237,455.593018 404.674011,464.094452 
	C406.070038,469.696045 407.581482,475.268860 409.041260,480.854553 
	C409.509857,480.842072 409.978424,480.829620 410.447021,480.817169 
	C411.528259,477.166595 412.761688,473.553040 413.660522,469.858063 
	C415.853760,460.842102 417.887054,451.787323 419.997314,442.751068 
	C420.375366,441.132355 420.723755,439.498291 421.239868,437.921753 
	C423.247803,431.787994 428.355316,429.556702 434.412018,432.243866 
	C435.361023,432.664917 436.522614,433.594574 436.750336,434.499298 
	C438.808899,442.678772 440.650452,450.912537 442.617584,459.115479 
	C444.358307,466.374237 446.178040,473.614014 447.962952,480.862152 
	C448.458954,480.932220 448.954987,481.002289 449.450989,481.072327 
	C451.301819,474.843292 453.278107,468.648224 454.973907,462.377258 
	C457.476349,453.123230 459.708374,443.796082 462.212036,434.542419 
	C462.923859,431.911499 469.208282,429.963379 472.658722,431.882599 
	C473.971832,432.612976 474.761230,436.192017 474.231903,438.022369 
	C470.424316,451.189270 466.251953,464.251648 462.119354,477.323151 
	C460.233368,483.288544 458.535492,489.361725 455.979584,495.038086 
	C455.194183,496.782288 451.943848,497.992615 449.652313,498.346344 
	C446.299744,498.863861 442.342957,499.246918 440.986969,494.661987 
	C439.624542,490.055328 438.287415,485.428955 437.240723,480.743866 
	C435.579681,473.308563 434.262939,465.796356 432.601410,458.361176 
	C432.032898,455.817139 430.866058,453.406860 429.508759,449.652710 
	C428.341583,451.736847 427.535919,452.657959 427.278961,453.712799 
	C423.994171,467.196930 420.685944,480.677063 417.617218,494.211151 
	C416.547943,498.927063 413.082001,498.293304 409.857483,498.356049 
	C406.311584,498.425018 402.750946,498.406403 401.635132,493.837280 
	C400.692291,489.976624 399.571960,486.159363 398.360474,481.957397 
z"/>
<path fill="#747679" opacity="1.000000" stroke="none" 
	d="
M411.845520,691.293457 
	C408.770050,686.666809 405.950745,682.299866 403.080994,677.854858 
	C401.076569,686.410339 395.113586,691.611450 385.999207,693.282410 
	C379.418671,694.488770 373.220764,693.186462 368.022400,689.208130 
	C356.529022,680.412354 356.084930,665.462463 363.419952,656.096558 
	C372.465485,644.546570 390.363068,644.838989 397.251740,653.702881 
	C395.474060,657.519714 393.244110,658.684814 389.174225,656.055359 
	C382.987305,652.058228 373.648254,654.370056 368.684692,660.694580 
	C364.377625,666.182556 365.084595,675.702576 369.558228,680.978394 
	C375.431885,687.905396 386.411621,688.638367 392.135284,682.787537 
	C393.987427,680.894226 395.241211,678.415649 396.768677,676.204834 
	C396.514221,675.614502 396.259735,675.024231 396.005280,674.433899 
	C392.807770,674.433899 389.609436,674.477966 386.413055,674.418152 
	C384.332642,674.379211 381.786499,674.961548 381.749939,671.533386 
	C381.715820,668.332825 383.921600,668.292358 386.211517,668.306824 
	C389.377594,668.326843 392.550171,668.440979 395.708588,668.285217 
	C400.038116,668.071594 404.249756,667.812744 404.086914,675.342590 
	C409.004608,668.674500 412.914215,662.842346 421.267242,663.646667 
	C429.162720,664.406860 433.437073,668.863770 435.670990,677.133057 
	C440.258087,670.776062 443.302521,663.924072 452.024261,663.584534 
	C460.615631,663.249939 464.439392,669.400818 469.313660,674.984497 
	C470.255157,673.504272 470.920074,672.411865 471.630371,671.349792 
	C476.070160,664.710876 480.958588,662.672791 488.699066,664.200073 
	C489.664642,664.390625 490.650116,664.678345 491.615509,664.640869 
	C498.970398,664.355347 499.137512,664.338562 498.926117,671.545959 
	C498.668335,680.335327 498.447510,689.152222 497.543549,697.888123 
	C496.791260,705.158630 484.890533,708.572510 478.829407,705.568787 
	C477.213898,704.768127 475.433990,703.832703 474.398621,702.455933 
	C473.309784,701.008179 472.023926,697.872925 472.569946,697.369751 
	C474.323792,695.753723 476.384705,695.184509 479.006561,697.488770 
	C480.973969,699.217957 484.696808,699.993896 487.337494,699.519714 
	C488.911102,699.237183 489.907166,695.720459 491.142090,693.645203 
	C491.183502,693.575623 490.999390,693.371826 490.579834,692.621399 
	C480.609680,696.011780 474.071625,691.198669 469.274597,681.275513 
	C465.008667,688.510437 460.340759,694.135803 451.885651,693.662964 
	C443.559387,693.197449 439.785736,687.094238 436.051666,679.288513 
	C434.059998,686.218384 431.550903,691.770569 425.080933,692.607300 
	C420.870331,693.151733 416.435822,691.964600 411.845520,691.293457 
M415.159515,685.542480 
	C416.721344,685.965088 418.259613,686.562012 419.849487,686.776733 
	C424.212250,687.366089 427.341583,685.094849 427.777863,681.113159 
	C428.113007,678.053833 427.451447,673.559692 425.435577,671.937683 
	C423.380524,670.284302 418.727692,670.349304 415.927307,671.461853 
	C410.844849,673.481079 410.614197,679.264343 415.159515,685.542480 
M450.956451,670.124207 
	C445.845459,672.184204 444.325836,674.913025 445.267822,680.594299 
	C445.820343,683.926636 447.057404,686.552246 451.122345,686.807373 
	C456.739716,687.160034 460.193695,684.572754 460.783173,679.191528 
	C461.370850,673.826843 458.046875,670.437500 450.956451,670.124207 
M477.909607,674.628418 
	C477.777100,676.446350 477.159454,678.403259 477.630615,680.048340 
	C478.269196,682.277954 479.229431,685.044006 480.968262,686.193787 
	C484.188812,688.323059 489.670837,686.597351 491.034485,683.806335 
	C492.997742,679.788086 492.099152,673.192993 489.329865,671.295837 
	C485.629028,668.760376 481.278137,669.763062 477.909607,674.628418 
z"/>
<path fill="#353D49" opacity="1.000000" stroke="none" 
	d="
M364.217896,491.259338 
	C357.292511,496.728912 350.433258,500.389893 341.346802,500.286285 
	C332.960663,500.190674 323.970764,492.578644 321.934570,484.435669 
	C319.931458,476.424744 324.909821,466.268951 332.382843,462.019409 
	C341.480591,456.846008 351.071503,459.145233 360.566467,459.604034 
	C361.528198,459.650543 362.477051,459.964142 364.244568,460.315216 
	C364.809265,454.345795 364.898926,448.618683 360.863403,444.255707 
	C356.032135,439.032379 349.483978,438.396790 342.839630,440.195435 
	C337.810944,441.556732 332.901062,443.356750 327.943512,444.959839 
	C325.487213,436.538025 326.466553,434.289978 334.294250,432.611450 
	C340.712677,431.235107 347.285370,430.039703 353.820282,429.856750 
	C367.510712,429.473511 376.068359,437.655670 376.720093,451.321716 
	C377.084656,458.966309 376.567047,466.654297 376.968231,474.295349 
	C377.226685,479.218506 378.013367,484.208771 379.339142,488.952087 
	C380.468170,492.991455 379.094940,495.122131 375.945923,497.177765 
	C372.400269,499.492371 370.127106,498.211395 368.021545,495.203949 
	C367.018341,493.771149 365.760986,492.516266 364.217896,491.259338 
M361.253510,483.594635 
	C362.467102,480.013885 363.878754,476.481049 364.764679,472.820953 
	C365.007111,471.819305 363.720367,469.416046 363.054260,469.384735 
	C356.015015,469.054260 348.879272,468.402649 341.936005,469.230499 
	C337.230011,469.791595 334.452850,476.110321 335.299713,481.159271 
	C336.246246,486.802826 339.816162,489.674377 345.494598,490.041016 
	C351.587433,490.434418 356.572449,488.469635 361.253510,483.594635 
z"/>
<path fill="#0DACF5" opacity="1.000000" stroke="none" 
	d="
M673.974548,569.902283 
	C680.208679,580.589417 686.229431,590.975464 693.025757,602.699402 
	C685.548279,602.699402 679.596008,602.215698 673.753479,602.810486 
	C664.535400,603.748962 657.193909,601.950195 651.915405,593.382263 
	C648.828674,588.372009 643.951965,584.496582 640.374207,579.739441 
	C639.122498,578.075134 638.421265,574.997498 639.047852,573.081848 
	C643.181030,560.445374 647.744812,547.949768 652.168274,535.408264 
	C652.718872,535.311890 653.269470,535.215454 653.820068,535.119080 
	C660.467102,546.613098 667.114136,558.107178 673.974548,569.902283 
z"/>
<path fill="#353D49" opacity="1.000000" stroke="none" 
	d="
M483.500061,457.398102 
	C479.160431,446.722260 482.758972,436.459900 492.670929,432.321869 
	C503.062317,427.983612 513.032593,429.067627 523.104858,432.811768 
	C527.095215,434.295105 527.490295,437.703583 526.531799,441.047668 
	C526.291382,441.886444 523.338989,442.498657 521.746704,442.300598 
	C515.882202,441.571167 510.070557,439.804199 504.228668,439.758575 
	C501.207184,439.734985 497.439484,441.846008 495.305664,444.178802 
	C492.343658,447.417023 494.651978,453.480072 498.998016,455.261078 
	C506.446991,458.313690 514.167480,460.758331 521.443054,464.164978 
	C529.669312,468.016785 531.042358,475.495758 529.713013,483.610779 
	C528.635559,490.187683 524.246521,494.390289 518.446777,497.110199 
	C507.173126,502.397278 495.800507,500.995605 484.772369,496.561493 
	C482.716553,495.734863 481.152313,492.146484 480.581299,489.563019 
	C479.896912,486.466522 481.646942,484.939178 485.100159,486.356293 
	C491.942871,489.164368 499.107697,490.999329 506.465546,489.714447 
	C509.813507,489.129822 513.538147,487.469910 515.879883,485.100067 
	C519.553162,481.382629 516.863770,474.106720 511.487732,472.186615 
	C506.966522,470.571838 502.327606,469.252411 497.680084,468.033844 
	C491.605835,466.441162 486.822205,463.243347 483.500061,457.398102 
z"/>
<path fill="#0DACF5" opacity="1.000000" stroke="none" 
	d="
M628.685486,572.893494 
	C624.626404,581.645386 620.766968,590.074585 616.871887,598.487244 
	C615.586975,601.262390 613.682556,602.850342 610.288025,602.750977 
	C603.196106,602.543213 596.093872,602.688049 587.759460,602.688049 
	C589.871582,598.386353 591.288757,595.102112 593.041565,592.007935 
	C597.621155,583.923523 602.776306,576.135437 606.903992,567.832520 
	C611.753479,558.077271 620.131714,551.852112 627.920837,545.006836 
	C633.972961,539.688110 640.390320,534.784973 646.645325,529.697083 
	C647.226196,530.050964 647.807068,530.404846 648.387939,530.758728 
	C645.088928,537.621277 641.728149,544.455078 638.507935,551.354431 
	C635.223755,558.390808 632.077759,565.491699 628.685486,572.893494 
z"/>
<path fill="#3397CD" opacity="1.000000" stroke="none" 
	d="
M877.572632,608.439636 
	C868.751953,600.615601 869.247986,585.400452 875.341797,577.112305 
	C879.478333,571.486328 889.792297,569.097107 895.698059,571.874695 
	C901.890625,574.787170 905.459167,582.278687 903.856384,590.014832 
	C903.595032,591.275940 901.315247,592.914917 899.886780,592.999390 
	C893.922852,593.352295 887.925659,593.087463 881.944824,593.228516 
	C877.708679,593.328552 876.898499,594.787476 878.681824,598.534912 
	C881.918518,605.336121 888.290833,607.779236 895.294922,604.905151 
	C897.259521,604.098999 899.225342,603.295776 901.518127,602.357117 
	C903.003845,605.954590 902.694031,608.099609 899.098267,609.752380 
	C891.731628,613.138306 884.712524,613.317993 877.572632,608.439636 
M888.569214,577.083862 
	C882.510315,577.452942 878.793884,580.976257 878.534546,586.665894 
	C884.796509,586.665894 891.043945,586.665894 897.344543,586.665894 
	C896.325012,578.658569 895.356750,577.553284 888.569214,577.083862 
z"/>
<path fill="#1DB1F4" opacity="1.000000" stroke="none" 
	d="
M730.014526,595.088501 
	C728.585693,596.075500 726.124878,596.873108 725.903015,598.081604 
	C724.827881,603.939209 721.214294,602.936279 716.598755,601.884766 
	C718.711426,596.422119 720.740662,591.267883 722.700073,586.087280 
	C725.748901,578.026306 728.518372,569.847473 731.923889,561.941589 
	C732.850525,559.790405 735.369202,557.740601 737.627014,556.887817 
	C740.809204,555.685791 742.049866,558.353577 743.105591,561.092773 
	C748.641541,575.455933 754.373291,589.743530 759.951904,604.090454 
	C760.643677,605.869507 760.829895,607.845032 761.247559,609.716858 
	C754.778320,611.209839 753.029480,609.711731 750.809692,600.713623 
	C749.282349,596.358765 747.836121,592.735046 746.287964,588.718872 
	C743.608093,581.357361 741.030273,574.388367 738.452454,567.419312 
	C734.706421,573.702026 732.122925,579.855408 729.887695,586.132812 
	C729.515137,587.179138 730.657776,588.764954 731.076782,590.430969 
	C730.707031,592.203125 730.360779,593.645813 730.014526,595.088501 
z"/>
<path fill="#3397CD" opacity="1.000000" stroke="none" 
	d="
M776.565735,601.294250 
	C774.871765,604.473694 776.769165,604.758118 778.797241,604.790771 
	C782.953857,604.857666 787.139587,604.577148 791.254089,605.006958 
	C792.680908,605.156006 793.932373,606.982971 795.263977,608.043579 
	C793.954590,608.964966 792.678650,610.624146 791.330322,610.685242 
	C783.864441,611.023682 776.380005,611.061462 768.904297,610.980103 
	C767.434387,610.964111 765.111389,610.310608 764.735229,609.345520 
	C764.290955,608.205750 765.211182,606.178406 766.098511,604.934265 
	C771.095032,597.929260 776.281433,591.059998 781.349731,584.105652 
	C782.496399,582.532349 783.431580,580.804871 785.230286,577.919006 
	C780.550049,577.726685 776.905762,577.561951 773.260132,577.434326 
	C771.765076,577.381897 770.098328,577.815369 768.819092,577.283630 
	C767.595703,576.775085 766.295471,575.428223 765.967651,574.199402 
	C765.791016,573.537170 767.562744,571.546875 768.488220,571.524658 
	C777.258362,571.315002 786.035522,571.399841 796.144104,571.399841 
	C791.432739,583.316772 782.440552,591.088562 776.565735,601.294250 
z"/>
<path fill="#E25143" opacity="1.000000" stroke="none" 
	d="
M264.939880,657.328735 
	C268.415863,644.870728 283.733612,635.755005 297.585175,637.886719 
	C303.892029,638.857178 310.011047,640.226013 314.277893,645.876465 
	C311.101440,649.399963 308.049652,652.494629 304.656494,655.369995 
	C297.187958,651.149719 290.188141,650.320557 283.070496,656.061523 
	C277.214142,657.003235 271.740753,657.902100 266.249329,658.672363 
	C265.882874,658.723755 265.379547,657.799316 264.939880,657.328735 
z"/>
<path fill="#3397CD" opacity="1.000000" stroke="none" 
	d="
M834.812378,583.977112 
	C834.945251,591.287048 835.157837,598.597168 835.145264,605.906860 
	C835.142700,607.414062 834.545105,610.036255 833.796509,610.200012 
	C832.097290,610.571594 830.119202,609.792480 828.285400,609.352539 
	C827.697205,609.211426 827.205811,608.666809 827.475281,608.847900 
	C822.984253,610.129395 819.218201,612.075256 815.444092,612.090881 
	C808.593384,612.119324 802.980835,606.183228 802.530090,598.661926 
	C802.053101,590.703308 802.250122,582.692383 802.503296,574.715454 
	C802.539062,573.588074 804.841064,571.458801 805.602478,571.659424 
	C807.041138,572.038391 809.112183,573.712341 809.189331,574.955688 
	C809.642517,582.253662 809.452820,589.588745 809.763428,596.899231 
	C810.005493,602.596191 813.808716,606.340271 818.629944,606.139038 
	C823.030151,605.955261 827.444092,601.417297 827.593689,596.516296 
	C827.796631,589.865540 827.749695,583.206299 827.748779,576.550659 
	C827.748413,573.812622 828.060852,571.582092 831.640442,571.502747 
	C835.672607,571.413208 835.057678,574.223938 835.122864,576.649048 
	C835.162964,578.144287 835.085266,579.642578 834.622070,581.442444 
	C833.505615,580.052063 832.827576,578.358765 832.149475,576.665466 
	C831.735535,576.689392 831.321533,576.713379 830.907593,576.737366 
	C830.322021,585.755188 829.642639,594.768982 829.258606,603.795349 
	C829.205078,605.054565 830.603455,606.375549 831.329773,607.667969 
	C831.909851,607.544312 832.489929,607.420593 833.070007,607.296936 
	C833.070007,601.440247 832.928589,595.578186 833.150085,589.729919 
	C833.223389,587.794128 834.231567,585.893677 834.812378,583.977112 
z"/>
<path fill="#7A7B7E" opacity="1.000000" stroke="none" 
	d="
M567.317566,652.090454 
	C574.120178,650.385193 580.287231,650.840576 585.609497,655.108582 
	C586.679260,655.966492 586.850525,657.944885 587.436035,659.406677 
	C585.874634,659.446350 584.004150,660.068359 582.802429,659.430481 
	C575.496521,655.552002 566.487671,656.532227 562.260925,661.959534 
	C557.110413,668.572937 557.763306,678.000427 563.797241,684.143127 
	C568.676575,689.110413 577.077942,689.504150 583.349731,684.550476 
	C586.349792,682.180969 587.948059,682.861511 589.569946,685.662415 
	C584.368896,695.716431 566.588623,696.147766 558.742859,687.447205 
	C548.273743,675.837646 551.879700,657.619690 567.317566,652.090454 
z"/>
<path fill="#7A7B7E" opacity="1.000000" stroke="none" 
	d="
M687.012939,655.520691 
	C688.122009,653.974609 689.226196,652.857788 690.330383,651.741028 
	C691.223206,653.053955 692.865601,654.352783 692.890625,655.682007 
	C693.097595,666.674866 692.939209,677.673950 693.042419,688.669739 
	C693.074646,692.102844 691.695007,693.059143 688.442383,692.495056 
	C686.659302,692.185791 684.623535,692.146606 682.934021,692.697754 
	C676.724548,694.723572 672.007935,693.468140 667.862305,688.294495 
	C663.983032,683.453247 663.350464,676.148743 666.404114,671.455933 
	C671.774109,663.203064 675.892578,662.044128 687.007996,666.407471 
	C687.007996,662.652649 687.007996,659.301270 687.012939,655.520691 
M671.406555,673.947449 
	C669.706970,678.629211 669.692017,683.203491 673.828308,686.526550 
	C677.679016,689.620117 682.682861,688.623779 685.697632,684.770813 
	C688.144104,681.644043 687.598267,673.749390 684.777222,671.460815 
	C681.127991,668.500183 675.008911,669.312317 671.406555,673.947449 
z"/>
<path fill="#747679" opacity="1.000000" stroke="none" 
	d="
M524.618103,693.449646 
	C517.900818,691.911072 513.840210,688.086670 512.824951,681.653687 
	C511.726105,674.691040 513.575928,668.844910 520.095947,665.010742 
	C526.443848,661.277954 538.060547,665.799438 539.214172,672.805603 
	C539.385864,673.848755 537.862671,675.751953 536.672791,676.331360 
	C532.804504,678.214966 528.675903,679.557800 524.762207,681.358215 
	C523.644775,681.872253 522.917114,683.233765 522.010742,684.206665 
	C523.154602,684.989502 524.262634,686.356812 525.449951,686.429504 
	C527.687805,686.566467 530.698486,686.764465 532.096802,685.504395 
	C535.973877,682.010376 537.125305,684.944092 538.874023,687.358948 
	C535.586609,692.800354 530.652039,693.984375 524.618103,693.449646 
M524.285278,675.809753 
	C526.682251,674.677917 529.079224,673.546021 531.909424,672.209595 
	C527.890381,668.829895 524.512878,669.495239 521.456299,671.895081 
	C520.562744,672.596558 520.583130,674.462219 520.184631,675.794373 
	C521.326477,675.912842 522.468323,676.031311 524.285278,675.809753 
z"/>
<path fill="#F2B95F" opacity="1.000000" stroke="none" 
	d="
M500.717285,524.630371 
	C499.222107,524.064026 498.134735,523.515320 497.047302,522.966614 
	C497.900238,521.626831 498.460754,519.541809 499.655426,519.073120 
	C505.635498,516.726929 511.654572,514.124512 517.910950,512.953796 
	C522.677185,512.061829 527.849121,512.907227 532.785706,513.465088 
	C538.820740,514.147156 540.511841,516.263977 540.478821,522.243103 
	C540.412292,534.290405 535.620605,544.454651 527.648926,553.199341 
	C526.535278,554.421021 524.465942,554.771484 522.839050,555.525269 
	C522.511719,553.673584 521.532166,551.645874 521.975647,550.002136 
	C523.485840,544.405029 525.539124,538.956482 527.307495,533.426453 
	C529.401123,526.879089 528.600525,524.912537 521.962524,524.380798 
	C515.068115,523.828491 508.075043,524.507507 500.717285,524.630371 
M504.743622,519.041809 
	C502.058105,522.217651 504.550903,522.018250 506.659363,521.897095 
	C510.464264,521.678711 514.262085,521.140381 518.064941,521.119812 
	C529.920715,521.055664 532.745605,524.966370 529.219604,536.256409 
	C528.624695,538.161316 527.957825,540.045471 527.419434,541.965881 
	C526.641785,544.740051 525.951233,547.538635 525.192627,550.445007 
	C526.162415,550.445007 526.632080,550.585449 526.784241,550.424866 
	C534.731506,542.041077 537.968628,531.825195 537.781372,520.525391 
	C537.756531,519.026917 535.290344,516.361511 533.851624,516.289246 
	C524.296936,515.808960 514.559204,514.170105 504.743622,519.041809 
z"/>
<path fill="#7A7B7E" opacity="1.000000" stroke="none" 
	d="
M629.670593,687.656921 
	C624.038757,696.129883 611.332642,695.142273 606.447205,687.764587 
	C602.876221,682.371887 602.985229,673.480530 607.475708,668.544739 
	C612.151062,663.405701 620.075012,662.073364 625.132935,665.575867 
	C631.808960,670.198975 634.414307,678.181763 631.362671,684.751892 
	C630.943298,685.654907 630.373718,686.488159 629.670593,687.656921 
M615.979736,688.092834 
	C619.072632,686.969604 623.780029,686.670776 624.874573,684.527161 
	C626.458679,681.424805 626.285767,676.708801 625.158142,673.234253 
	C624.575928,671.440308 620.318909,669.965210 617.717041,669.956665 
	C615.320984,669.948792 611.983215,671.480774 610.705444,673.419006 
	C607.709290,677.963745 610.200439,684.757019 615.979736,688.092834 
z"/>
<path fill="#7A7B7E" opacity="1.000000" stroke="none" 
	d="
M660.690308,673.136475 
	C660.681641,678.773621 660.897705,683.949219 660.506042,689.078369 
	C660.411926,690.310608 658.476562,691.994263 657.076782,692.402039 
	C654.727417,693.086426 652.029419,692.540955 649.652649,693.171143 
	C642.461426,695.077820 636.536804,691.042969 636.263245,683.599731 
	C636.079895,678.614014 635.973877,673.603333 636.301453,668.634766 
	C636.395630,667.206665 638.117310,665.885864 639.092773,664.515808 
	C640.083069,665.958740 641.774170,667.330811 641.928528,668.858215 
	C642.345093,672.978271 642.166809,677.165283 642.111267,681.324219 
	C642.059082,685.226135 643.662170,687.751465 647.696045,688.172058 
	C651.282959,688.546021 654.559265,685.565063 654.844971,681.464600 
	C655.122070,677.487976 654.744141,673.456787 655.160889,669.502991 
	C655.343872,667.767578 656.627014,664.867920 657.684265,664.738892 
	C661.214783,664.307800 660.567444,667.429443 660.681030,669.663025 
	C660.731689,670.658875 660.691162,671.659485 660.690308,673.136475 
z"/>
<path fill="#EFC448" opacity="1.000000" stroke="none" 
	d="
M264.651917,657.413330 
	C265.379547,657.799316 265.882874,658.723755 266.249329,658.672363 
	C271.740753,657.902100 277.214142,657.003235 283.287048,656.363831 
	C284.806946,657.271423 285.696594,658.004761 286.661652,658.619690 
	C296.216583,664.708862 296.957855,666.510925 288.541290,673.024719 
	C285.806000,675.141724 284.125641,676.215576 281.024353,673.572083 
	C277.200531,670.312683 273.420807,671.077393 270.185883,674.901978 
	C266.784821,678.922974 266.853790,682.092285 270.463318,685.835449 
	C271.372223,686.778015 272.361725,687.642883 272.987732,688.723145 
	C269.429718,692.190796 266.198151,695.478821 262.966614,698.766846 
	C251.805649,693.080505 248.766998,676.528442 257.030975,666.224792 
	C259.407623,663.261597 261.915955,660.403992 264.651917,657.413330 
M288.381134,663.176819 
	C278.812164,656.772339 270.781342,657.466125 261.955292,665.459839 
	C256.066132,670.793579 253.764999,679.775940 256.638580,687.217834 
	C257.391632,689.168091 258.599304,691.210999 260.185455,692.473511 
	C261.177124,693.262817 263.954987,693.338257 264.713470,692.554871 
	C266.075958,691.147705 267.774200,688.060791 267.141907,687.061401 
	C263.751190,681.701538 264.235107,676.946777 268.454498,672.662720 
	C272.504761,668.550415 277.465210,669.809998 282.409882,670.924744 
	C283.996796,671.282532 286.190308,670.863770 287.532288,669.953735 
	C289.645294,668.520813 291.146423,666.344910 288.381134,663.176819 
z"/>
<path fill="#7B9FDC" opacity="1.000000" stroke="none" 
	d="
M304.997864,655.589355 
	C308.049652,652.494629 311.101440,649.399963 314.429321,646.150208 
	C320.252991,647.635620 321.205017,653.127869 324.001343,657.076660 
	C326.276733,660.289856 328.531921,663.518982 330.878052,666.680176 
	C336.425507,674.154785 336.106689,682.508118 332.858673,690.306396 
	C329.559357,698.227966 322.831421,703.129761 313.935730,703.622803 
	C307.334900,703.988586 300.689362,703.547546 293.854736,702.997803 
	C293.767029,702.357727 293.888306,702.185852 294.232849,701.990051 
	C295.041779,701.642151 295.627502,701.318054 296.652527,701.020264 
	C303.038879,701.050110 309.014496,701.425476 314.926147,700.970215 
	C323.776062,700.288696 329.050842,694.248718 331.940033,686.737122 
	C334.275726,680.664673 334.141327,674.258606 329.356201,668.502014 
	C325.811859,664.238037 323.270813,659.145203 320.225098,654.459167 
	C319.014771,652.596863 317.648712,650.835815 316.376770,649.061096 
	C308.976471,653.922852 308.821472,654.484802 311.966248,661.254272 
	C312.513733,662.432739 312.461853,663.899841 313.051117,665.046448 
	C314.074768,667.038330 314.960663,669.482239 316.652649,670.675659 
	C321.206512,673.887573 322.903229,677.805969 321.371124,683.136841 
	C320.047882,687.741028 316.297577,690.500793 310.325348,690.812683 
	C305.350952,691.072449 300.357147,690.960571 295.260132,690.778381 
	C295.053101,690.214233 294.957794,689.885010 295.312500,689.389404 
	C300.735748,689.143677 305.739258,689.373901 310.672974,688.890869 
	C314.924744,688.474792 318.896729,686.773254 319.854675,681.922974 
	C320.781677,677.229370 318.673553,673.998840 314.340088,671.945190 
	C313.047211,671.332520 311.335754,669.900757 311.248962,668.737427 
	C310.855377,663.461121 308.313965,659.381409 304.997864,655.589355 
z"/>
<path fill="#7A7B7E" opacity="1.000000" stroke="none" 
	d="
M502.275726,680.968140 
	C502.268768,671.353149 502.307220,662.231384 502.238586,653.110474 
	C502.217194,650.267029 502.657745,648.346497 506.246521,648.348389 
	C509.916443,648.350281 510.163513,650.421509 510.151215,653.186951 
	C510.099518,664.796021 510.088837,676.405640 510.144775,688.014587 
	C510.158386,690.839233 509.791809,692.780762 506.167267,692.752625 
	C502.530701,692.724304 502.135376,690.725464 502.242249,687.929077 
	C502.324554,685.775879 502.272278,683.617676 502.275726,680.968140 
z"/>
<path fill="#43A857" opacity="1.000000" stroke="none" 
	d="
M294.009583,702.013916 
	C293.888306,702.185852 293.767029,702.357727 293.511383,702.813232 
	C286.438507,703.051880 279.499939,703.006958 271.988647,702.700378 
	C271.054993,702.466919 270.694092,702.495056 270.333221,702.523193 
	C268.078735,701.416870 265.824219,700.310486 263.268158,698.985474 
	C266.198151,695.478821 269.429718,692.190796 273.307007,688.988403 
	C275.670898,689.326538 277.386536,689.772766 279.107544,689.794373 
	C283.815063,689.853394 288.524780,689.733704 293.225067,690.166382 
	C293.480865,694.436707 293.745239,698.225342 294.009583,702.013916 
z"/>
<path fill="#7A7B7E" opacity="1.000000" stroke="none" 
	d="
M600.136230,666.893921 
	C600.164246,674.298584 600.192444,681.265747 600.175903,688.232727 
	C600.170837,690.368164 600.452026,693.183044 597.162476,692.495728 
	C595.945312,692.241455 594.336365,689.941162 594.307068,688.544617 
	C594.078064,677.601135 594.080078,666.648010 594.337158,655.705444 
	C594.368652,654.366028 596.329956,653.071899 597.396912,651.756714 
	C598.319580,653.007324 599.906067,654.192444 600.037231,655.521240 
	C600.393860,659.133728 600.134521,662.807129 600.136230,666.893921 
z"/>
<path fill="#7B9FDC" opacity="1.000000" stroke="none" 
	d="
M847.397583,583.039246 
	C847.240479,581.068359 846.769958,579.058228 847.010193,577.137024 
	C847.275085,575.019531 848.192505,572.983521 848.825623,570.912048 
	C850.942810,571.666016 853.059998,572.420044 855.020203,573.118103 
	C858.053040,572.346313 861.262512,571.200989 864.549561,570.898438 
	C865.503418,570.810669 867.420166,573.076599 867.523987,574.373474 
	C867.610352,575.451599 865.721130,577.662903 864.644836,577.703003 
	C856.945801,577.989746 854.276550,583.876709 853.906067,590.190308 
	C853.595459,595.483765 853.820435,600.807739 853.772095,606.117859 
	C853.748657,608.698242 853.653809,611.439758 850.094727,611.411621 
	C846.615295,611.384155 847.006226,608.597412 846.966125,606.312988 
	C846.928345,604.158813 847.036926,602.002075 847.524780,599.603394 
	C848.421204,602.452576 848.874023,605.544983 849.326782,608.637329 
	C849.847229,608.684814 850.367615,608.732361 850.888062,608.779846 
	C851.336426,607.269531 852.048401,605.783203 852.188110,604.244873 
	C852.828613,597.193665 853.670593,590.128784 853.687805,583.067017 
	C853.695923,579.739075 852.010071,576.406982 851.091797,573.076721 
	C850.572876,573.201904 850.054016,573.327087 849.535095,573.452209 
	C848.822632,576.647888 848.110168,579.843567 847.397583,583.039246 
M857.950623,577.083740 
	C860.790588,576.443359 863.630615,575.802979 867.258667,574.984924 
	C862.204590,571.603516 860.136902,572.157227 856.576477,577.033875 
	C856.777710,577.090027 856.978943,577.146179 857.950623,577.083740 
z"/>
<path fill="#148BCC" opacity="1.000000" stroke="none" 
	d="
M847.356323,583.480835 
	C848.110168,579.843567 848.822632,576.647888 849.535095,573.452209 
	C850.054016,573.327087 850.572876,573.201904 851.091797,573.076721 
	C852.010071,576.406982 853.695923,579.739075 853.687805,583.067017 
	C853.670593,590.128784 852.828613,597.193665 852.188110,604.244873 
	C852.048401,605.783203 851.336426,607.269531 850.888062,608.779846 
	C850.367615,608.732361 849.847229,608.684814 849.326782,608.637329 
	C848.874023,605.544983 848.421204,602.452576 847.678711,599.165894 
	C847.365479,598.238892 847.342041,597.506104 847.619385,596.268921 
	C847.749451,594.151367 847.578674,592.538391 847.407959,590.925354 
	C847.376953,588.591064 847.346008,586.256775 847.356323,583.480835 
z"/>
<path fill="#3397CD" opacity="1.000000" stroke="none" 
	d="
M746.389893,589.111328 
	C747.836121,592.735046 749.282349,596.358765 750.792725,600.305237 
	C748.763977,595.532166 744.589478,595.134705 739.864624,595.514282 
	C736.896973,595.752625 733.886292,595.456055 730.454712,595.243958 
	C730.360779,593.645813 730.707031,592.203125 731.518005,590.326050 
	C736.785095,589.631592 741.587463,589.371460 746.389893,589.111328 
z"/>
<path fill="#148BCC" opacity="1.000000" stroke="none" 
	d="
M834.893188,583.654785 
	C834.231567,585.893677 833.223389,587.794128 833.150085,589.729919 
	C832.928589,595.578186 833.070007,601.440247 833.070007,607.296936 
	C832.489929,607.420593 831.909851,607.544312 831.329773,607.667969 
	C830.603455,606.375549 829.205078,605.054565 829.258606,603.795349 
	C829.642639,594.768982 830.322021,585.755188 830.907593,576.737366 
	C831.321533,576.713379 831.735535,576.689392 832.149475,576.665466 
	C832.827576,578.358765 833.505615,580.052063 834.497192,581.884521 
	C834.865173,582.459961 834.919556,582.896179 834.893188,583.654785 
z"/>
<path fill="#7B9FDC" opacity="1.000000" stroke="none" 
	d="
M847.246765,591.332764 
	C847.578674,592.538391 847.749451,594.151367 847.657227,595.906128 
	C847.291382,594.611938 847.188477,593.176025 847.246765,591.332764 
z"/>
<path fill="#7B9FDC" opacity="1.000000" stroke="none" 
	d="
M270.302002,702.698425 
	C270.694092,702.495056 271.054993,702.466919 271.498291,702.621521 
	C271.144073,702.827393 270.707458,702.850525 270.302002,702.698425 
z"/>
<path fill="#F1F2F3" opacity="1.000000" stroke="none" 
	d="
M414.907776,685.235779 
	C410.614197,679.264343 410.844849,673.481079 415.927307,671.461853 
	C418.727692,670.349304 423.380524,670.284302 425.435577,671.937683 
	C427.451447,673.559692 428.113007,678.053833 427.777863,681.113159 
	C427.341583,685.094849 424.212250,687.366089 419.849487,686.776733 
	C418.259613,686.562012 416.721344,685.965088 414.907776,685.235779 
z"/>
<path fill="#F1F2F3" opacity="1.000000" stroke="none" 
	d="
M451.355774,670.055054 
	C458.046875,670.437500 461.370850,673.826843 460.783173,679.191528 
	C460.193695,684.572754 456.739716,687.160034 451.122345,686.807373 
	C447.057404,686.552246 445.820343,683.926636 445.267822,680.594299 
	C444.325836,674.913025 445.845459,672.184204 451.355774,670.055054 
z"/>
<path fill="#F1F2F3" opacity="1.000000" stroke="none" 
	d="
M478.027161,674.251038 
	C481.278137,669.763062 485.629028,668.760376 489.329865,671.295837 
	C492.099152,673.192993 492.997742,679.788086 491.034485,683.806335 
	C489.670837,686.597351 484.188812,688.323059 480.968262,686.193787 
	C479.229431,685.044006 478.269196,682.277954 477.630615,680.048340 
	C477.159454,678.403259 477.777100,676.446350 478.027161,674.251038 
z"/>
<path fill="#F1F2F3" opacity="1.000000" stroke="none" 
	d="
M360.987762,483.854309 
	C356.572449,488.469635 351.587433,490.434418 345.494598,490.041016 
	C339.816162,489.674377 336.246246,486.802826 335.299713,481.159271 
	C334.452850,476.110321 337.230011,469.791595 341.936005,469.230499 
	C348.879272,468.402649 356.015015,469.054260 363.054260,469.384735 
	C363.720367,469.416046 365.007111,471.819305 364.764679,472.820953 
	C363.878754,476.481049 362.467102,480.013885 360.987762,483.854309 
z"/>
<path fill="#DEF5FD" opacity="1.000000" stroke="none" 
	d="
M888.989014,577.086548 
	C895.356750,577.553284 896.325012,578.658569 897.344543,586.665894 
	C891.043945,586.665894 884.796509,586.665894 878.534546,586.665894 
	C878.793884,580.976257 882.510315,577.452942 888.989014,577.086548 
z"/>
<path fill="#DEF5FD" opacity="1.000000" stroke="none" 
	d="
M746.287964,588.718872 
	C741.587463,589.371460 736.785095,589.631592 731.541504,589.996582 
	C730.657776,588.764954 729.515137,587.179138 729.887695,586.132812 
	C732.122925,579.855408 734.706421,573.702026 738.452454,567.419312 
	C741.030273,574.388367 743.608093,581.357361 746.287964,588.718872 
z"/>
<path fill="#F8F9F3" opacity="1.000000" stroke="none" 
	d="
M293.233643,689.684692 
	C288.524780,689.733704 283.815063,689.853394 279.107544,689.794373 
	C277.386536,689.772766 275.670898,689.326538 273.633514,688.808716 
	C272.361725,687.642883 271.372223,686.778015 270.463318,685.835449 
	C266.853790,682.092285 266.784821,678.922974 270.185883,674.901978 
	C273.420807,671.077393 277.200531,670.312683 281.024353,673.572083 
	C284.125641,676.215576 285.806000,675.141724 288.541290,673.024719 
	C296.957855,666.510925 296.216583,664.708862 286.661652,658.619690 
	C285.696594,658.004761 284.806946,657.271423 283.665710,656.290771 
	C290.188141,650.320557 297.187958,651.149719 304.656494,655.369995 
	C308.313965,659.381409 310.855377,663.461121 311.248962,668.737427 
	C311.335754,669.900757 313.047211,671.332520 314.340088,671.945190 
	C318.673553,673.998840 320.781677,677.229370 319.854675,681.922974 
	C318.896729,686.773254 314.924744,688.474792 310.672974,688.890869 
	C305.739258,689.373901 300.735748,689.143677 295.102478,689.319580 
	C294.039520,689.505676 293.636566,689.595154 293.233643,689.684692 
z"/>
<path fill="#F1F2F3" opacity="1.000000" stroke="none" 
	d="
M671.539429,673.573853 
	C675.008911,669.312317 681.127991,668.500183 684.777222,671.460815 
	C687.598267,673.749390 688.144104,681.644043 685.697632,684.770813 
	C682.682861,688.623779 677.679016,689.620117 673.828308,686.526550 
	C669.692017,683.203491 669.706970,678.629211 671.539429,673.573853 
z"/>
<path fill="#F1F2F3" opacity="1.000000" stroke="none" 
	d="
M523.947754,675.979797 
	C522.468323,676.031311 521.326477,675.912842 520.184631,675.794312 
	C520.583130,674.462219 520.562744,672.596558 521.456299,671.895081 
	C524.512878,669.495239 527.890381,668.829895 531.909424,672.209595 
	C529.079224,673.546021 526.682251,674.677917 523.947754,675.979797 
z"/>
<path fill="#F9A018" opacity="1.000000" stroke="none" 
	d="
M505.071655,518.851013 
	C514.559204,514.170105 524.296936,515.808960 533.851624,516.289246 
	C535.290344,516.361511 537.756531,519.026917 537.781372,520.525391 
	C537.968628,531.825195 534.731506,542.041077 526.784241,550.424866 
	C526.632080,550.585449 526.162415,550.445007 525.192627,550.445007 
	C525.951233,547.538635 526.641785,544.740051 527.419434,541.965881 
	C527.957825,540.045471 528.624695,538.161316 529.219604,536.256409 
	C532.745605,524.966370 529.920715,521.055664 518.064941,521.119812 
	C514.262085,521.140381 510.464264,521.678711 506.659363,521.897095 
	C504.550903,522.018250 502.058105,522.217651 505.071655,518.851013 
z"/>
<path fill="#F1F2F3" opacity="1.000000" stroke="none" 
	d="
M615.583984,687.981995 
	C610.200439,684.757019 607.709290,677.963745 610.705444,673.419006 
	C611.983215,671.480774 615.320984,669.948792 617.717041,669.956665 
	C620.318909,669.965210 624.575928,671.440308 625.158142,673.234253 
	C626.285767,676.708801 626.458679,681.424805 624.874573,684.527161 
	C623.780029,686.670776 619.072632,686.969604 615.583984,687.981995 
z"/>
<path fill="#F9BC08" opacity="1.000000" stroke="none" 
	d="
M288.673615,663.412720 
	C291.146423,666.344910 289.645294,668.520813 287.532288,669.953735 
	C286.190308,670.863770 283.996796,671.282532 282.409882,670.924744 
	C277.465210,669.809998 272.504761,668.550415 268.454498,672.662720 
	C264.235107,676.946777 263.751190,681.701538 267.141907,687.061401 
	C267.774200,688.060791 266.075958,691.147705 264.713470,692.554871 
	C263.954987,693.338257 261.177124,693.262817 260.185455,692.473511 
	C258.599304,691.210999 257.391632,689.168091 256.638580,687.217834 
	C253.764999,679.775940 256.066132,670.793579 261.955292,665.459839 
	C270.781342,657.466125 278.812164,656.772339 288.673615,663.412720 
z"/>
<path fill="#4585F0" opacity="1.000000" stroke="none" 
	d="
M295.371918,691.013245 
	C300.357147,690.960571 305.350952,691.072449 310.325348,690.812683 
	C316.297577,690.500793 320.047882,687.741028 321.371124,683.136841 
	C322.903229,677.805969 321.206512,673.887573 316.652649,670.675659 
	C314.960663,669.482239 314.074768,667.038330 313.051117,665.046448 
	C312.461853,663.899841 312.513733,662.432739 311.966248,661.254272 
	C308.821472,654.484802 308.976471,653.922852 316.376770,649.061096 
	C317.648712,650.835815 319.014771,652.596863 320.225098,654.459167 
	C323.270813,659.145203 325.811859,664.238037 329.356201,668.502014 
	C334.141327,674.258606 334.275726,680.664673 331.940033,686.737122 
	C329.050842,694.248718 323.776062,700.288696 314.926147,700.970215 
	C309.014496,701.425476 303.038879,701.050110 296.591248,700.607178 
	C295.851074,697.116333 295.611511,694.064758 295.371918,691.013245 
z"/>
<path fill="#3397CD" opacity="1.000000" stroke="none" 
	d="
M295.260132,690.778381 
	C295.611511,694.064758 295.851074,697.116333 296.151917,700.580933 
	C295.627502,701.318054 295.041779,701.642151 294.232849,701.990051 
	C293.745239,698.225342 293.480865,694.436707 293.225067,690.166382 
	C293.636566,689.595154 294.039520,689.505676 294.652466,689.485962 
	C294.957794,689.885010 295.053101,690.214233 295.260132,690.778381 
z"/>
<path fill="#148BCC" opacity="1.000000" stroke="none" 
	d="
M856.806519,576.831665 
	C860.136902,572.157227 862.204590,571.603516 867.258667,574.984924 
	C863.630615,575.802979 860.790588,576.443359 857.473389,577.048950 
	C856.996094,577.014221 856.806519,576.831665 856.806519,576.831665 
z"/>
<path fill="#148BCC" opacity="1.000000" stroke="none" 
	d="
M857.088135,577.108276 
	C856.978943,577.146179 856.777710,577.090027 856.691528,576.932739 
	C856.806519,576.831665 856.996094,577.014221 857.088135,577.108276 
z"/>
</svg>