<svg version="1.1" id="Layer_1" xmlns="http://www.w3.org/2000/svg" xmlns:xlink="http://www.w3.org/1999/xlink" x="0px" y="0px"
	 width="100%" viewBox="0 0 702 701" enable-background="new 0 0 702 701" xml:space="preserve">
<path fill="#03A9F5" opacity="1.000000" stroke="none" 
	d="
M400.000000,702.000000 
	C266.666656,702.000000 133.833328,702.000000 1.000000,702.000000 
	C1.000000,468.333344 1.000000,234.666672 1.000000,1.000000 
	C235.000000,1.000000 469.000000,1.000000 703.000000,1.000000 
	C703.000000,234.666672 703.000000,468.333344 703.000000,702.000000 
	C602.166687,702.000000 501.333344,702.000000 400.000000,702.000000 
M579.500000,134.999115 
	C411.084473,134.999115 242.668961,134.999115 74.384766,134.999115 
	C74.384766,281.065979 74.384766,426.451324 74.384766,571.748413 
	C257.703461,571.748413 440.636383,571.748413 623.703369,571.748413 
	C623.703369,426.110901 623.703369,280.725739 623.703369,134.999115 
	C609.105835,134.999115 594.802917,134.999115 579.500000,134.999115 
z"/>
<path fill="#FFFFFF" opacity="1.000000" stroke="none" 
	d="
M580.000000,134.999115 
	C594.802917,134.999115 609.105835,134.999115 623.703369,134.999115 
	C623.703369,280.725739 623.703369,426.110901 623.703369,571.748413 
	C440.636383,571.748413 257.703461,571.748413 74.384766,571.748413 
	C74.384766,426.451324 74.384766,281.065979 74.384766,134.999115 
	C242.668961,134.999115 411.084473,134.999115 580.000000,134.999115 
M584.617554,297.500183 
	C584.617432,289.336823 584.625732,281.173492 584.613525,273.010132 
	C584.607544,268.966583 583.294128,266.829895 578.511414,266.840454 
	C514.371399,266.982117 450.230988,266.931458 386.090698,266.939606 
	C379.646393,266.940399 378.313812,268.311707 378.313202,274.817200 
	C378.309357,316.633331 378.309479,358.449493 378.313080,400.265625 
	C378.313690,407.563721 378.810455,408.056763 386.328857,408.057404 
	C450.302551,408.062775 514.276245,408.062042 578.249939,408.057068 
	C584.406799,408.056580 584.612610,407.844177 584.613892,401.457886 
	C584.620789,367.138672 584.617310,332.819427 584.617554,297.500183 
M258.542419,301.263794 
	C276.706329,301.263000 294.875580,300.992249 313.032440,301.349548 
	C326.754181,301.619598 335.923981,291.117340 335.986176,278.260468 
	C336.087708,257.264160 335.750641,236.262024 336.147736,215.272736 
	C336.300476,207.200043 333.746521,200.817780 328.164337,195.337601 
	C321.194794,188.495361 314.426941,181.431213 307.192139,174.882507 
	C303.541565,171.578110 300.143433,167.544678 294.243286,167.619354 
	C278.249176,167.821793 262.248413,167.539963 246.255692,167.792572 
	C236.956207,167.939468 229.224457,176.080673 228.969208,185.342026 
	C228.868240,189.005447 228.933319,192.673584 228.932037,196.339584 
	C228.928848,205.429260 228.931000,214.518951 228.931000,223.526947 
	C221.428497,223.896545 214.523743,224.236694 207.132721,224.600800 
	C207.132721,236.484268 207.293167,247.461517 207.059280,258.430389 
	C206.955582,263.293976 209.092758,265.020386 213.606644,264.931763 
	C218.563446,264.834473 223.523621,264.909607 228.933456,264.909607 
	C228.933456,270.424927 228.908707,275.546875 228.938477,280.668488 
	C229.004883,292.093048 237.619858,300.902222 249.062546,301.229706 
	C251.893311,301.310699 254.727936,301.256042 258.542419,301.263794 
M185.984726,318.567963 
	C184.549271,317.101105 183.158493,315.587158 181.670380,314.175812 
	C176.236053,309.021851 170.675095,303.997528 165.346588,298.737213 
	C161.559982,294.999054 158.185562,290.844452 154.416168,287.087433 
	C150.530136,283.214172 146.512650,279.449188 142.309082,275.927612 
	C140.034241,274.021820 137.337601,271.408203 134.097702,273.555054 
	C131.731705,275.122833 130.059875,277.708038 127.965202,279.721741 
	C123.654037,283.866180 119.177528,287.844391 115.003609,292.119934 
	C114.347069,292.792450 114.357719,295.171692 115.014999,295.901154 
	C119.482170,300.858795 124.058617,305.739014 128.878632,310.352966 
	C137.195053,318.313782 145.836288,325.939911 154.000549,334.049469 
	C155.071609,335.113342 155.046280,339.089935 153.968857,340.190857 
	C149.593475,344.661652 144.563538,348.485107 139.869278,352.653503 
	C137.440491,354.810211 135.196350,357.176453 132.891724,359.471039 
	C130.106201,362.244385 127.396500,365.095825 124.560623,367.816132 
	C120.818169,371.406128 116.984932,374.901520 113.090805,378.530670 
	C115.914047,381.409302 118.005600,383.380402 119.911369,385.517212 
	C124.534683,390.701019 129.276672,395.801605 133.548279,401.266022 
	C135.412323,403.650604 136.703705,403.620605 138.580826,401.846802 
	C140.194504,400.321991 141.741592,398.726562 143.313995,397.158234 
	C149.409698,391.078064 155.385193,384.871490 161.623779,378.941681 
	C173.607285,367.551270 185.651123,356.220673 197.851669,345.063995 
	C203.067505,340.294403 204.619720,337.579285 201.671234,334.378723 
	C196.793304,329.083801 191.347351,324.312164 185.984726,318.567963 
M228.894714,516.262939 
	C228.344543,520.536438 230.027512,522.070984 234.494431,522.053833 
	C272.978577,521.905762 311.463715,521.916077 349.948029,522.041504 
	C354.532959,522.056458 356.199066,520.314575 356.191193,515.886475 
	C356.123474,477.735077 356.168610,439.583435 356.079712,401.432129 
	C356.075775,399.749695 355.581390,397.616272 354.496246,396.465302 
	C349.258759,390.910004 343.820190,385.536011 338.298279,380.259583 
	C333.251373,375.436951 328.147491,370.651093 322.773865,366.205383 
	C320.844910,364.609528 318.062836,363.177673 315.657776,363.157715 
	C289.669891,362.941864 263.679535,363.015869 237.689835,363.026581 
	C229.569901,363.029907 228.900360,363.705933 228.899200,371.863800 
	C228.892349,419.678162 228.895111,467.492523 228.894714,516.262939 
z"/>
<path fill="#1E1C48" opacity="1.000000" stroke="none" 
	d="
M584.617493,298.000183 
	C584.617310,332.819427 584.620789,367.138672 584.613892,401.457886 
	C584.612610,407.844177 584.406799,408.056580 578.249939,408.057068 
	C514.276245,408.062042 450.302551,408.062775 386.328857,408.057404 
	C378.810455,408.056763 378.313690,407.563721 378.313080,400.265625 
	C378.309479,358.449493 378.309357,316.633331 378.313202,274.817200 
	C378.313812,268.311707 379.646393,266.940399 386.090698,266.939606 
	C450.230988,266.931458 514.371399,266.982117 578.511414,266.840454 
	C583.294128,266.829895 584.607544,268.966583 584.613525,273.010132 
	C584.625732,281.173492 584.617432,289.336823 584.617493,298.000183 
M486.536133,275.180023 
	C486.536133,281.934082 486.536133,288.688171 486.536133,295.634827 
	C500.768402,295.634827 514.643433,295.634827 528.717896,295.634827 
	C528.717896,288.520721 528.717896,281.645538 528.717896,274.554840 
	C514.696533,274.554840 500.945038,274.554840 486.536133,275.180023 
M389.812164,274.335083 
	C389.096252,274.859222 387.769165,275.370026 387.757416,275.909546 
	C387.614136,282.469513 387.664398,289.033722 387.664398,295.552246 
	C401.786133,295.552246 415.168182,295.552246 428.503601,295.552246 
	C428.503601,288.362091 428.503601,281.495850 428.503601,274.326050 
	C415.670868,274.326050 403.217316,274.326050 389.812164,274.335083 
M436.558960,277.685577 
	C436.558960,283.616241 436.558960,289.546875 436.558960,295.555054 
	C450.409027,295.555054 463.629425,295.555054 476.742157,295.555054 
	C476.742157,288.356628 476.742157,281.478210 476.742157,274.328156 
	C464.052704,274.328156 451.752899,274.274170 439.455811,274.431732 
	C438.483093,274.444214 437.529205,275.925659 436.558960,277.685577 
M564.481873,274.325745 
	C555.715454,274.325745 546.948975,274.325745 538.112122,274.325745 
	C538.112122,281.821014 538.112122,288.676422 538.112122,295.586090 
	C551.232910,295.586090 563.947144,295.586090 576.674927,295.586090 
	C576.674927,288.420441 576.674927,281.541229 576.674927,274.325775 
	C572.733276,274.325775 569.102661,274.325775 564.481873,274.325745 
M486.297180,391.501343 
	C486.297180,394.415863 486.297180,397.330353 486.297180,400.278015 
	C500.947723,400.278015 514.836670,400.278015 528.742188,400.278015 
	C528.742188,394.692017 528.742188,389.425568 528.742188,383.938354 
	C514.619446,383.938354 500.745026,383.938354 486.297211,383.938354 
	C486.297211,386.316803 486.297211,388.433472 486.297180,391.501343 
M396.567749,400.588989 
	C407.183655,400.588989 417.799561,400.588989 428.515808,400.588989 
	C428.515808,394.688721 428.515808,389.322754 428.515808,384.032196 
	C414.747101,384.032196 401.351044,384.032196 387.903931,384.032196 
	C387.903931,389.641785 387.903931,394.890656 387.903931,400.588928 
	C390.661194,400.588928 393.127014,400.588928 396.567749,400.588989 
M451.506592,400.585846 
	C459.936432,400.585846 468.366241,400.585846 476.766479,400.585846 
	C476.766479,394.633270 476.766479,389.242737 476.766479,383.796692 
	C463.326874,383.796692 450.256012,383.796692 436.870605,383.796692 
	C436.870605,389.396484 436.870605,394.762054 436.870605,400.585754 
	C441.598328,400.585754 446.054626,400.585754 451.506592,400.585846 
M576.901184,384.622406 
	C574.574585,384.266937 572.251038,383.628998 569.920959,383.604523 
	C559.358765,383.493713 548.794739,383.556061 537.976807,383.556061 
	C537.976807,389.477509 537.976807,394.715027 537.976807,400.271118 
	C551.017151,400.271118 563.868896,400.271118 576.982422,400.271118 
	C576.982422,395.210510 576.982422,390.408295 576.901184,384.622406 
M486.336365,343.484650 
	C486.336365,346.897217 486.336365,350.309814 486.336365,353.719421 
	C500.848145,353.719421 514.749146,353.719421 528.664551,353.719421 
	C528.664551,349.395325 528.664551,345.343689 528.664551,341.042999 
	C515.069763,341.042999 501.782837,341.020935 488.496643,341.104034 
	C487.784607,341.108521 487.078064,341.997650 486.336365,343.484650 
M391.586365,353.980804 
	C403.987854,353.980804 416.389343,353.980804 428.585938,353.980804 
	C428.585938,349.232941 428.585938,345.294983 428.585938,341.266724 
	C414.879059,341.266724 401.455963,341.266724 387.643127,341.266724 
	C387.643127,344.943268 387.464050,348.419861 387.777802,351.851349 
	C387.849945,352.640350 389.614319,353.274658 391.586365,353.980804 
M473.345337,341.041016 
	C461.145142,341.041016 448.944946,341.041016 436.790710,341.041016 
	C436.790710,345.700775 436.790710,349.633942 436.790710,353.624817 
	C450.341339,353.624817 463.677765,353.624817 477.112701,353.624817 
	C477.112701,350.117126 477.337494,346.937988 476.984253,343.824463 
	C476.869019,342.808899 475.247162,341.964294 473.345337,341.041016 
M571.387817,353.980469 
	C573.159912,353.980469 574.932068,353.980469 576.665405,353.980469 
	C576.665405,349.372986 576.665405,345.312805 576.665405,341.329468 
	C563.591919,341.329468 550.833008,341.329468 537.909180,341.329468 
	C537.909180,345.558136 537.909180,349.497101 537.909180,353.980469 
	C548.843628,353.980469 559.628601,353.980469 571.387817,353.980469 
M547.515137,362.610107 
	C544.409485,362.610107 541.303894,362.610107 537.961914,362.610107 
	C537.961914,367.099365 537.961914,371.001221 537.961914,375.241333 
	C551.018127,375.241333 563.856384,375.241333 576.685059,375.241333 
	C576.685059,370.922089 576.685059,366.848969 576.685059,362.610046 
	C567.086670,362.610046 557.798157,362.610046 547.515137,362.610107 
M486.329498,366.439453 
	C486.329498,369.213898 486.329498,371.988312 486.329498,375.037903 
	C500.742859,375.037903 514.611023,375.037903 528.581421,375.037903 
	C528.581421,370.832153 528.581421,366.825012 528.581421,362.636230 
	C515.395447,362.636230 502.601715,362.564117 489.811981,362.756989 
	C488.639435,362.774628 487.492462,364.486389 486.329498,366.439453 
M387.629303,370.487976 
	C387.699982,372.059692 387.770660,373.631409 387.834717,375.055603 
	C401.821472,375.055603 415.099457,375.055603 428.609680,375.055603 
	C428.609680,370.887238 428.609680,366.979767 428.609680,362.887421 
	C414.940765,362.887421 401.532745,362.887421 387.629120,362.887421 
	C387.629120,365.247711 387.629120,367.366058 387.629303,370.487976 
M436.780853,374.491852 
	C450.084747,374.491852 463.388611,374.491852 476.869263,374.491852 
	C476.869263,370.854004 476.869263,366.950287 476.869263,362.906677 
	C463.416107,362.906677 450.214905,362.906677 436.595093,362.906677 
	C436.595093,366.609283 436.595093,370.055084 436.780853,374.491852 
M500.507263,313.996765 
	C509.911774,313.996765 519.316284,313.996765 528.719971,313.996765 
	C528.719971,310.184357 528.719971,306.947906 528.719971,303.707153 
	C514.471924,303.707153 500.499725,303.707153 486.509644,303.707153 
	C486.509644,307.265137 486.509644,310.371613 486.509644,313.996765 
	C490.976105,313.996765 495.244049,313.996765 500.507263,313.996765 
M428.882538,305.821381 
	C427.671448,304.952576 426.484955,303.375305 425.245239,303.332336 
	C418.257446,303.090057 411.256836,303.216675 404.260620,303.217102 
	C398.826904,303.217407 393.393188,303.217163 387.874237,303.217163 
	C387.874237,307.158142 387.874237,310.401367 387.874237,313.609131 
	C401.690430,313.609131 415.236481,313.609131 428.884796,313.609131 
	C428.884796,311.064117 428.884796,308.901093 428.882538,305.821381 
M442.627686,303.264740 
	C440.719574,303.264740 438.811462,303.264740 436.880493,303.264740 
	C436.880493,307.283478 436.880493,310.504059 436.880493,313.688171 
	C450.454987,313.688171 463.698700,313.688171 476.810242,313.688171 
	C476.810242,310.130646 476.810242,306.881683 476.810242,303.264954 
	C465.525116,303.264954 454.562012,303.264954 442.627686,303.264740 
M569.434570,313.993652 
	C571.869751,313.993652 574.304871,313.993652 576.735657,313.993652 
	C576.735657,310.187683 576.735657,306.941956 576.735657,303.542786 
	C563.752319,303.542786 551.027954,303.542786 538.003479,303.542786 
	C538.003479,307.044769 538.003479,310.270355 538.003479,313.993652 
	C548.233337,313.993652 558.342834,313.993652 569.434570,313.993652 
M488.490753,322.918030 
	C483.561707,325.465820 487.686768,329.520325 486.214539,333.079590 
	C500.733490,333.079590 514.614075,333.079590 528.687439,333.079590 
	C528.687439,329.655029 528.687439,326.429047 528.687439,322.909149 
	C515.432007,322.909149 502.464355,322.909149 488.490753,322.918030 
M415.490814,322.911530 
	C406.252991,322.911530 397.015167,322.911530 388.090698,322.911530 
	C388.090698,326.818726 388.090698,330.030548 388.090698,333.171539 
	C401.804871,333.171539 415.053711,333.171539 428.585541,333.171539 
	C428.585541,329.726379 428.585541,326.511597 428.585541,322.911530 
	C424.394379,322.911530 420.440674,322.911530 415.490814,322.911530 
M469.451752,322.913513 
	C458.544769,322.913513 447.637756,322.913513 436.889099,322.913513 
	C436.889099,326.741638 436.889099,329.843140 436.889099,333.062531 
	C450.390930,333.062531 463.576202,333.062531 476.757507,333.062531 
	C476.757507,329.503479 476.757507,326.292603 476.757507,322.913483 
	C474.410919,322.913483 472.425171,322.913483 469.451752,322.913513 
M537.907654,323.635132 
	C537.907654,326.726196 537.907654,329.817230 537.907654,333.147461 
	C551.128235,333.147461 563.829651,333.147461 576.724976,333.147461 
	C576.724976,329.697083 576.724976,326.466553 576.724976,323.054901 
	C563.876160,323.054901 551.281860,323.054901 537.907654,323.635132 
z"/>
<path fill="#090909" opacity="1.000000" stroke="none" 
	d="
M258.051605,301.263794 
	C254.727936,301.256042 251.893311,301.310699 249.062546,301.229706 
	C237.619858,300.902222 229.004883,292.093048 228.938477,280.668488 
	C228.908707,275.546875 228.933456,270.424927 228.933456,264.909607 
	C223.523621,264.909607 218.563446,264.834473 213.606644,264.931763 
	C209.092758,265.020386 206.955582,263.293976 207.059280,258.430389 
	C207.293167,247.461517 207.132721,236.484268 207.132721,224.600800 
	C214.523743,224.236694 221.428497,223.896545 228.931000,223.526947 
	C228.931000,214.518951 228.928848,205.429260 228.932037,196.339584 
	C228.933319,192.673584 228.868240,189.005447 228.969208,185.342026 
	C229.224457,176.080673 236.956207,167.939468 246.255692,167.792572 
	C262.248413,167.539963 278.249176,167.821793 294.243286,167.619354 
	C300.143433,167.544678 303.541565,171.578110 307.192139,174.882507 
	C314.426941,181.431213 321.194794,188.495361 328.164337,195.337601 
	C333.746521,200.817780 336.300476,207.200043 336.147736,215.272736 
	C335.750641,236.262024 336.087708,257.264160 335.986176,278.260468 
	C335.923981,291.117340 326.754181,301.619598 313.032440,301.349548 
	C294.875580,300.992249 276.706329,301.263000 258.051605,301.263794 
M292.432281,200.960342 
	C292.382629,194.628418 292.306976,188.296524 292.294556,181.964539 
	C292.288666,178.944611 290.976074,177.320282 287.843323,177.326736 
	C275.012360,177.353149 262.177551,177.182632 249.352234,177.458984 
	C243.851852,177.577499 239.525650,181.151276 239.374985,186.072754 
	C238.994431,198.503433 239.248856,210.953522 239.248856,223.895584 
	C242.197144,223.895584 244.652832,223.895554 247.108505,223.895584 
	C264.940338,223.895782 282.772217,223.873138 300.604004,223.907013 
	C308.115143,223.921295 308.692291,224.530807 308.721405,232.095398 
	C308.753479,240.427917 308.759247,248.760788 308.721039,257.093262 
	C308.688049,264.292908 308.060272,264.894653 300.652100,264.901276 
	C281.987000,264.917969 263.321869,264.906982 244.656769,264.907104 
	C242.909088,264.907104 241.161407,264.907104 239.180115,264.907104 
	C239.180115,270.472534 239.043045,275.290955 239.213684,280.098480 
	C239.443909,286.584442 243.750244,291.033264 250.285187,291.075775 
	C271.449036,291.213501 292.614777,291.212830 313.778748,291.084686 
	C320.547394,291.043671 324.889832,286.541870 324.921539,279.693024 
	C325.021881,258.028595 324.957031,236.363480 324.969238,214.698639 
	C324.971771,210.211990 322.914673,207.988617 318.285095,208.069717 
	C312.121063,208.177734 305.943542,207.858795 299.790527,208.137314 
	C295.087708,208.350220 292.399506,206.860458 292.432281,200.960342 
M291.831177,234.082031 
	C290.582245,237.161301 289.333313,240.240585 287.627594,244.446121 
	C285.284302,238.576157 283.438446,233.952301 281.641785,229.451691 
	C279.391418,229.451691 277.199646,229.451691 274.755096,229.451691 
	C275.532104,233.820038 275.950348,237.806686 276.990570,241.623825 
	C278.431152,246.909943 280.212738,252.116302 282.144745,257.245148 
	C282.578247,258.395966 284.127228,259.604401 285.359375,259.868439 
	C287.383881,260.302368 289.569214,259.986023 291.415924,259.986023 
	C294.579651,249.466125 297.560272,239.555008 300.821533,228.710831 
	C296.695343,229.878632 291.763672,226.452805 291.831177,234.082031 
M248.799011,241.369659 
	C251.432709,243.314911 254.140503,245.169632 256.670929,247.241043 
	C258.076172,248.391418 259.185425,249.903442 260.428070,251.252472 
	C260.129181,251.747253 259.830322,252.242035 259.531433,252.736801 
	C256.037354,252.541519 252.543259,252.346222 248.192093,252.103043 
	C248.483383,254.608673 248.495667,258.480133 249.009781,258.547974 
	C253.618958,259.156097 258.513275,259.961273 262.926056,258.958405 
	C266.501953,258.145752 268.845886,254.422836 268.650909,250.178894 
	C268.443756,245.670563 265.602814,243.079529 261.794189,241.182587 
	C259.771423,240.175140 257.919189,238.825272 255.989990,237.629990 
	C256.194214,237.056519 256.398468,236.483047 256.602692,235.909576 
	C259.499237,235.909576 262.395782,235.909576 265.570557,235.909576 
	C265.919464,234.209961 266.294983,232.380768 266.720245,230.309357 
	C261.673370,227.322266 256.302734,227.969788 251.608368,230.510757 
	C248.031799,232.446701 247.400314,236.596878 248.799011,241.369659 
M240.121216,257.297546 
	C239.792404,255.586472 239.463608,253.875397 239.150024,252.243591 
	C229.400162,252.867096 225.361908,250.296783 225.522614,243.983032 
	C225.678925,237.842545 230.069183,235.158966 239.150757,235.930313 
	C239.629913,234.161606 240.127792,232.323776 240.670227,230.321503 
	C234.566177,227.972198 228.516953,227.955536 223.639191,231.263229 
	C218.777969,234.559692 217.369919,240.125549 217.780518,246.322571 
	C218.518829,257.466217 230.046600,263.828461 240.121216,257.297546 
z"/>
<path fill="#000000" opacity="1.000000" stroke="none" 
	d="
M186.062744,318.944000 
	C191.347351,324.312164 196.793304,329.083801 201.671234,334.378723 
	C204.619720,337.579285 203.067505,340.294403 197.851669,345.063995 
	C185.651123,356.220673 173.607285,367.551270 161.623779,378.941681 
	C155.385193,384.871490 149.409698,391.078064 143.313995,397.158234 
	C141.741592,398.726562 140.194504,400.321991 138.580826,401.846802 
	C136.703705,403.620605 135.412323,403.650604 133.548279,401.266022 
	C129.276672,395.801605 124.534683,390.701019 119.911369,385.517212 
	C118.005600,383.380402 115.914047,381.409302 113.090805,378.530670 
	C116.984932,374.901520 120.818169,371.406128 124.560623,367.816132 
	C127.396500,365.095825 130.106201,362.244385 132.891724,359.471039 
	C135.196350,357.176453 137.440491,354.810211 139.869278,352.653503 
	C144.563538,348.485107 149.593475,344.661652 153.968857,340.190857 
	C155.046280,339.089935 155.071609,335.113342 154.000549,334.049469 
	C145.836288,325.939911 137.195053,318.313782 128.878632,310.352966 
	C124.058617,305.739014 119.482170,300.858795 115.014999,295.901154 
	C114.357719,295.171692 114.347069,292.792450 115.003609,292.119934 
	C119.177528,287.844391 123.654037,283.866180 127.965202,279.721741 
	C130.059875,277.708038 131.731705,275.122833 134.097702,273.555054 
	C137.337601,271.408203 140.034241,274.021820 142.309082,275.927612 
	C146.512650,279.449188 150.530136,283.214172 154.416168,287.087433 
	C158.185562,290.844452 161.559982,294.999054 165.346588,298.737213 
	C170.675095,303.997528 176.236053,309.021851 181.670380,314.175812 
	C183.158493,315.587158 184.549271,317.101105 186.062744,318.944000 
z"/>
<path fill="#0C0C0C" opacity="1.000000" stroke="none" 
	d="
M228.894684,515.784912 
	C228.895111,467.492523 228.892349,419.678162 228.899200,371.863800 
	C228.900360,363.705933 229.569901,363.029907 237.689835,363.026581 
	C263.679535,363.015869 289.669891,362.941864 315.657776,363.157715 
	C318.062836,363.177673 320.844910,364.609528 322.773865,366.205383 
	C328.147491,370.651093 333.251373,375.436951 338.298279,380.259583 
	C343.820190,385.536011 349.258759,390.910004 354.496246,396.465302 
	C355.581390,397.616272 356.075775,399.749695 356.079712,401.432129 
	C356.168610,439.583435 356.123474,477.735077 356.191193,515.886475 
	C356.199066,520.314575 354.532959,522.056458 349.948029,522.041504 
	C311.463715,521.916077 272.978577,521.905762 234.494431,522.053833 
	C230.027512,522.070984 228.344543,520.536438 228.894684,515.784912 
M318.663391,401.406586 
	C317.842499,400.957184 317.021606,400.507782 316.093353,399.119507 
	C316.093353,389.026276 316.093353,378.933014 316.093353,368.943970 
	C288.350983,368.943970 261.310089,368.943970 234.268860,368.943970 
	C234.268860,402.805756 234.268860,436.232788 234.268860,469.781921 
	C272.912048,469.781921 311.284973,469.781921 349.720703,469.781921 
	C349.720703,447.096832 349.720703,424.717621 349.720703,401.879150 
	C339.237762,401.879150 329.102081,401.879150 318.663391,401.406586 
M240.587006,475.962555 
	C238.495590,475.962555 236.404190,475.962555 234.329163,475.962555 
	C234.329163,490.320709 234.329163,504.028473 234.329163,517.659485 
	C273.039673,517.659485 311.402985,517.659485 349.723907,517.659485 
	C349.723907,503.645294 349.723907,489.934692 349.723907,475.962555 
	C313.429016,475.962555 277.499664,475.962555 240.587006,475.962555 
M326.793091,377.595612 
	C325.432983,376.414246 324.072876,375.232910 322.296387,373.689880 
	C322.296387,381.701477 322.296387,388.757874 322.296387,395.927979 
	C329.966614,395.927979 337.280060,395.927979 346.123260,395.927979 
	C339.184509,389.385376 333.226288,383.767365 326.793091,377.595612 
z"/>
<path fill="#F6F6F8" opacity="1.000000" stroke="none" 
	d="
M486.864807,274.867432 
	C500.945038,274.554840 514.696533,274.554840 528.717896,274.554840 
	C528.717896,281.645538 528.717896,288.520721 528.717896,295.634827 
	C514.643433,295.634827 500.768402,295.634827 486.536133,295.634827 
	C486.536133,288.688171 486.536133,281.934082 486.864807,274.867432 
z"/>
<path fill="#F8F8F9" opacity="1.000000" stroke="none" 
	d="
M390.287964,274.330566 
	C403.217316,274.326050 415.670868,274.326050 428.503601,274.326050 
	C428.503601,281.495850 428.503601,288.362091 428.503601,295.552246 
	C415.168182,295.552246 401.786133,295.552246 387.664398,295.552246 
	C387.664398,289.033722 387.614136,282.469513 387.757416,275.909546 
	C387.769165,275.370026 389.096252,274.859222 390.287964,274.330566 
z"/>
<path fill="#F9F9FA" opacity="1.000000" stroke="none" 
	d="
M436.562775,277.205017 
	C437.529205,275.925659 438.483093,274.444214 439.455811,274.431732 
	C451.752899,274.274170 464.052704,274.328156 476.742157,274.328156 
	C476.742157,281.478210 476.742157,288.356628 476.742157,295.555054 
	C463.629425,295.555054 450.409027,295.555054 436.558960,295.555054 
	C436.558960,289.546875 436.558960,283.616241 436.562775,277.205017 
z"/>
<path fill="#F8F8F9" opacity="1.000000" stroke="none" 
	d="
M564.976929,274.325745 
	C569.102661,274.325775 572.733276,274.325775 576.674927,274.325775 
	C576.674927,281.541229 576.674927,288.420441 576.674927,295.586090 
	C563.947144,295.586090 551.232910,295.586090 538.112122,295.586090 
	C538.112122,288.676422 538.112122,281.821014 538.112122,274.325745 
	C546.948975,274.325745 555.715454,274.325745 564.976929,274.325745 
z"/>
<path fill="#F5F5F7" opacity="1.000000" stroke="none" 
	d="
M486.297180,391.025726 
	C486.297211,388.433472 486.297211,386.316803 486.297211,383.938354 
	C500.745026,383.938354 514.619446,383.938354 528.742188,383.938354 
	C528.742188,389.425568 528.742188,394.692017 528.742188,400.278015 
	C514.836670,400.278015 500.947723,400.278015 486.297180,400.278015 
	C486.297180,397.330353 486.297180,394.415863 486.297180,391.025726 
z"/>
<path fill="#F7F7F8" opacity="1.000000" stroke="none" 
	d="
M396.080292,400.588959 
	C393.127014,400.588928 390.661194,400.588928 387.903931,400.588928 
	C387.903931,394.890656 387.903931,389.641785 387.903931,384.032196 
	C401.351044,384.032196 414.747101,384.032196 428.515808,384.032196 
	C428.515808,389.322754 428.515808,394.688721 428.515808,400.588989 
	C417.799561,400.588989 407.183655,400.588989 396.080292,400.588959 
z"/>
<path fill="#F8F8F9" opacity="1.000000" stroke="none" 
	d="
M451.008759,400.585815 
	C446.054626,400.585754 441.598328,400.585754 436.870605,400.585754 
	C436.870605,394.762054 436.870605,389.396484 436.870605,383.796692 
	C450.256012,383.796692 463.326874,383.796692 476.766479,383.796692 
	C476.766479,389.242737 476.766479,394.633270 476.766479,400.585846 
	C468.366241,400.585846 459.936432,400.585846 451.008759,400.585815 
z"/>
<path fill="#F7F7F9" opacity="1.000000" stroke="none" 
	d="
M576.941772,385.114227 
	C576.982422,390.408295 576.982422,395.210510 576.982422,400.271118 
	C563.868896,400.271118 551.017151,400.271118 537.976807,400.271118 
	C537.976807,394.715027 537.976807,389.477509 537.976807,383.556061 
	C548.794739,383.556061 559.358765,383.493713 569.920959,383.604523 
	C572.251038,383.628998 574.574585,384.266937 576.941772,385.114227 
z"/>
<path fill="#FCFCFC" opacity="1.000000" stroke="none" 
	d="
M486.352661,342.979797 
	C487.078064,341.997650 487.784607,341.108521 488.496643,341.104034 
	C501.782837,341.020935 515.069763,341.042999 528.664551,341.042999 
	C528.664551,345.343689 528.664551,349.395325 528.664551,353.719421 
	C514.749146,353.719421 500.848145,353.719421 486.336365,353.719421 
	C486.336365,350.309814 486.336365,346.897217 486.352661,342.979797 
z"/>
<path fill="#FDFDFE" opacity="1.000000" stroke="none" 
	d="
M391.093140,353.980499 
	C389.614319,353.274658 387.849945,352.640350 387.777802,351.851349 
	C387.464050,348.419861 387.643127,344.943268 387.643127,341.266724 
	C401.455963,341.266724 414.879059,341.266724 428.585938,341.266724 
	C428.585938,345.294983 428.585938,349.232941 428.585938,353.980804 
	C416.389343,353.980804 403.987854,353.980804 391.093140,353.980499 
z"/>
<path fill="#FEFEFE" opacity="1.000000" stroke="none" 
	d="
M473.829865,341.041260 
	C475.247162,341.964294 476.869019,342.808899 476.984253,343.824463 
	C477.337494,346.937988 477.112701,350.117126 477.112701,353.624817 
	C463.677765,353.624817 450.341339,353.624817 436.790710,353.624817 
	C436.790710,349.633942 436.790710,345.700775 436.790710,341.041016 
	C448.944946,341.041016 461.145142,341.041016 473.829865,341.041260 
z"/>
<path fill="#FEFEFE" opacity="1.000000" stroke="none" 
	d="
M570.900757,353.980469 
	C559.628601,353.980469 548.843628,353.980469 537.909180,353.980469 
	C537.909180,349.497101 537.909180,345.558136 537.909180,341.329468 
	C550.833008,341.329468 563.591919,341.329468 576.665405,341.329468 
	C576.665405,345.312805 576.665405,349.372986 576.665405,353.980469 
	C574.932068,353.980469 573.159912,353.980469 570.900757,353.980469 
z"/>
<path fill="#F5F5F7" opacity="1.000000" stroke="none" 
	d="
M548.012390,362.610077 
	C557.798157,362.610046 567.086670,362.610046 576.685059,362.610046 
	C576.685059,366.848969 576.685059,370.922089 576.685059,375.241333 
	C563.856384,375.241333 551.018127,375.241333 537.961914,375.241333 
	C537.961914,371.001221 537.961914,367.099365 537.961914,362.610107 
	C541.303894,362.610107 544.409485,362.610107 548.012390,362.610077 
z"/>
<path fill="#FBFBFC" opacity="1.000000" stroke="none" 
	d="
M486.331543,365.925476 
	C487.492462,364.486389 488.639435,362.774628 489.811981,362.756989 
	C502.601715,362.564117 515.395447,362.636230 528.581421,362.636230 
	C528.581421,366.825012 528.581421,370.832153 528.581421,375.037903 
	C514.611023,375.037903 500.742859,375.037903 486.329498,375.037903 
	C486.329498,371.988312 486.329498,369.213898 486.331543,365.925476 
z"/>
<path fill="#FDFDFD" opacity="1.000000" stroke="none" 
	d="
M387.629211,369.986176 
	C387.629120,367.366058 387.629120,365.247711 387.629120,362.887421 
	C401.532745,362.887421 414.940765,362.887421 428.609680,362.887421 
	C428.609680,366.979767 428.609680,370.887238 428.609680,375.055603 
	C415.099457,375.055603 401.821472,375.055603 387.834717,375.055603 
	C387.770660,373.631409 387.699982,372.059692 387.629211,369.986176 
z"/>
<path fill="#FCFCFD" opacity="1.000000" stroke="none" 
	d="
M436.687988,373.996368 
	C436.595093,370.055084 436.595093,366.609283 436.595093,362.906677 
	C450.214905,362.906677 463.416107,362.906677 476.869263,362.906677 
	C476.869263,366.950287 476.869263,370.854004 476.869263,374.491852 
	C463.388611,374.491852 450.084747,374.491852 436.687988,373.996368 
z"/>
<path fill="#F5F5F7" opacity="1.000000" stroke="none" 
	d="
M500.009613,313.996765 
	C495.244049,313.996765 490.976105,313.996765 486.509644,313.996765 
	C486.509644,310.371613 486.509644,307.265137 486.509644,303.707153 
	C500.499725,303.707153 514.471924,303.707153 528.719971,303.707153 
	C528.719971,306.947906 528.719971,310.184357 528.719971,313.996765 
	C519.316284,313.996765 509.911774,313.996765 500.009613,313.996765 
z"/>
<path fill="#F7F7F8" opacity="1.000000" stroke="none" 
	d="
M428.883667,306.279724 
	C428.884796,308.901093 428.884796,311.064117 428.884796,313.609131 
	C415.236481,313.609131 401.690430,313.609131 387.874237,313.609131 
	C387.874237,310.401367 387.874237,307.158142 387.874237,303.217163 
	C393.393188,303.217163 398.826904,303.217407 404.260620,303.217102 
	C411.256836,303.216675 418.257446,303.090057 425.245239,303.332336 
	C426.484955,303.375305 427.671448,304.952576 428.883667,306.279724 
z"/>
<path fill="#F7F7F8" opacity="1.000000" stroke="none" 
	d="
M443.113312,303.264832 
	C454.562012,303.264954 465.525116,303.264954 476.810242,303.264954 
	C476.810242,306.881683 476.810242,310.130646 476.810242,313.688171 
	C463.698700,313.688171 450.454987,313.688171 436.880493,313.688171 
	C436.880493,310.504059 436.880493,307.283478 436.880493,303.264740 
	C438.811462,303.264740 440.719574,303.264740 443.113312,303.264832 
z"/>
<path fill="#F6F6F8" opacity="1.000000" stroke="none" 
	d="
M568.943481,313.993652 
	C558.342834,313.993652 548.233337,313.993652 538.003479,313.993652 
	C538.003479,310.270355 538.003479,307.044769 538.003479,303.542786 
	C551.027954,303.542786 563.752319,303.542786 576.735657,303.542786 
	C576.735657,306.941956 576.735657,310.187683 576.735657,313.993652 
	C574.304871,313.993652 571.869751,313.993652 568.943481,313.993652 
z"/>
<path fill="#FAFAFB" opacity="1.000000" stroke="none" 
	d="
M488.993713,322.913574 
	C502.464355,322.909149 515.432007,322.909149 528.687439,322.909149 
	C528.687439,326.429047 528.687439,329.655029 528.687439,333.079590 
	C514.614075,333.079590 500.733490,333.079590 486.214539,333.079590 
	C487.686768,329.520325 483.561707,325.465820 488.993713,322.913574 
z"/>
<path fill="#FCFCFD" opacity="1.000000" stroke="none" 
	d="
M415.988892,322.911530 
	C420.440674,322.911530 424.394379,322.911530 428.585541,322.911530 
	C428.585541,326.511597 428.585541,329.726379 428.585541,333.171539 
	C415.053711,333.171539 401.804871,333.171539 388.090698,333.171539 
	C388.090698,330.030548 388.090698,326.818726 388.090698,322.911530 
	C397.015167,322.911530 406.252991,322.911530 415.988892,322.911530 
z"/>
<path fill="#FDFDFD" opacity="1.000000" stroke="none" 
	d="
M469.945587,322.913513 
	C472.425171,322.913483 474.410919,322.913483 476.757507,322.913483 
	C476.757507,326.292603 476.757507,329.503479 476.757507,333.062531 
	C463.576202,333.062531 450.390930,333.062531 436.889099,333.062531 
	C436.889099,329.843140 436.889099,326.741638 436.889099,322.913513 
	C447.637756,322.913513 458.544769,322.913513 469.945587,322.913513 
z"/>
<path fill="#FCFCFD" opacity="1.000000" stroke="none" 
	d="
M538.297607,323.345032 
	C551.281860,323.054901 563.876160,323.054901 576.724976,323.054901 
	C576.724976,326.466553 576.724976,329.697083 576.724976,333.147461 
	C563.829651,333.147461 551.128235,333.147461 537.907654,333.147461 
	C537.907654,329.817230 537.907654,326.726196 538.297607,323.345032 
z"/>
<path fill="#FBFBFB" opacity="1.000000" stroke="none" 
	d="
M292.436157,201.403320 
	C292.399506,206.860458 295.087708,208.350220 299.790527,208.137314 
	C305.943542,207.858795 312.121063,208.177734 318.285095,208.069717 
	C322.914673,207.988617 324.971771,210.211990 324.969238,214.698639 
	C324.957031,236.363480 325.021881,258.028595 324.921539,279.693024 
	C324.889832,286.541870 320.547394,291.043671 313.778748,291.084686 
	C292.614777,291.212830 271.449036,291.213501 250.285187,291.075775 
	C243.750244,291.033264 239.443909,286.584442 239.213684,280.098480 
	C239.043045,275.290955 239.180115,270.472534 239.180115,264.907104 
	C241.161407,264.907104 242.909088,264.907104 244.656769,264.907104 
	C263.321869,264.906982 281.987000,264.917969 300.652100,264.901276 
	C308.060272,264.894653 308.688049,264.292908 308.721039,257.093262 
	C308.759247,248.760788 308.753479,240.427917 308.721405,232.095398 
	C308.692291,224.530807 308.115143,223.921295 300.604004,223.907013 
	C282.772217,223.873138 264.940338,223.895782 247.108505,223.895584 
	C244.652832,223.895554 242.197144,223.895584 239.248856,223.895584 
	C239.248856,210.953522 238.994431,198.503433 239.374985,186.072754 
	C239.525650,181.151276 243.851852,177.577499 249.352234,177.458984 
	C262.177551,177.182632 275.012360,177.353149 287.843323,177.326736 
	C290.976074,177.320282 292.288666,178.944611 292.294556,181.964539 
	C292.306976,188.296524 292.382629,194.628418 292.436157,201.403320 
z"/>
<path fill="#EEEEEE" opacity="1.000000" stroke="none" 
	d="
M291.887329,233.669724 
	C291.763672,226.452805 296.695343,229.878632 300.821533,228.710831 
	C297.560272,239.555008 294.579651,249.466125 291.415924,259.986023 
	C289.569214,259.986023 287.383881,260.302368 285.359375,259.868439 
	C284.127228,259.604401 282.578247,258.395966 282.144745,257.245148 
	C280.212738,252.116302 278.431152,246.909943 276.990570,241.623825 
	C275.950348,237.806686 275.532104,233.820038 274.755096,229.451691 
	C277.199646,229.451691 279.391418,229.451691 281.641785,229.451691 
	C283.438446,233.952301 285.284302,238.576157 287.627594,244.446121 
	C289.333313,240.240585 290.582245,237.161301 291.887329,233.669724 
z"/>
<path fill="#EDEDED" opacity="1.000000" stroke="none" 
	d="
M248.644806,241.009888 
	C247.400314,236.596878 248.031799,232.446701 251.608368,230.510757 
	C256.302734,227.969788 261.673370,227.322266 266.720245,230.309357 
	C266.294983,232.380768 265.919464,234.209961 265.570557,235.909576 
	C262.395782,235.909576 259.499237,235.909576 256.602692,235.909576 
	C256.398468,236.483047 256.194214,237.056519 255.989990,237.629990 
	C257.919189,238.825272 259.771423,240.175140 261.794189,241.182587 
	C265.602814,243.079529 268.443756,245.670563 268.650909,250.178894 
	C268.845886,254.422836 266.501953,258.145752 262.926056,258.958405 
	C258.513275,259.961273 253.618958,259.156097 249.009781,258.547974 
	C248.495667,258.480133 248.483383,254.608673 248.192093,252.103043 
	C252.543259,252.346222 256.037354,252.541519 259.531433,252.736801 
	C259.830322,252.242035 260.129181,251.747253 260.428070,251.252472 
	C259.185425,249.903442 258.076172,248.391418 256.670929,247.241043 
	C254.140503,245.169632 251.432709,243.314911 248.644806,241.009888 
z"/>
<path fill="#EDEDED" opacity="1.000000" stroke="none" 
	d="
M240.029419,257.723083 
	C230.046600,263.828461 218.518829,257.466217 217.780518,246.322571 
	C217.369919,240.125549 218.777969,234.559692 223.639191,231.263229 
	C228.516953,227.955536 234.566177,227.972198 240.670227,230.321503 
	C240.127792,232.323776 239.629913,234.161606 239.150757,235.930313 
	C230.069183,235.158966 225.678925,237.842545 225.522614,243.983032 
	C225.361908,250.296783 229.400162,252.867096 239.150024,252.243591 
	C239.463608,253.875397 239.792404,255.586472 240.029419,257.723083 
z"/>
<path fill="#FBFBFB" opacity="1.000000" stroke="none" 
	d="
M318.966400,401.879150 
	C329.102081,401.879150 339.237762,401.879150 349.720703,401.879150 
	C349.720703,424.717621 349.720703,447.096832 349.720703,469.781921 
	C311.284973,469.781921 272.912048,469.781921 234.268860,469.781921 
	C234.268860,436.232788 234.268860,402.805756 234.268860,368.943970 
	C261.310089,368.943970 288.350983,368.943970 316.093353,368.943970 
	C316.093353,378.933014 316.093353,389.026276 315.753296,399.622375 
	C314.934906,399.995544 314.462860,399.789520 313.977203,399.749908 
	C312.232819,399.607452 309.708008,398.748047 308.891052,399.567749 
	C306.926147,401.539337 308.030731,403.043640 310.566895,404.354767 
	C311.900757,405.044312 312.777893,407.521362 312.996063,409.297546 
	C313.685242,414.907715 311.607880,421.008209 316.237000,425.890564 
	C316.528259,426.197784 316.402832,427.390015 316.046783,427.746368 
	C311.797699,432.000031 313.375366,437.398407 313.128937,442.404419 
	C313.004791,444.926453 313.394012,447.302063 309.986145,448.259857 
	C309.067444,448.518066 308.750275,450.916534 308.156982,452.332581 
	C309.595703,452.781097 311.161438,453.834930 312.449432,453.564758 
	C316.336945,452.749268 318.935364,450.342804 319.068573,446.071259 
	C319.172241,442.747681 318.964447,439.410767 319.154419,436.094635 
	C319.343414,432.795288 320.251892,429.954437 324.253967,429.199799 
	C325.530151,428.959137 326.595917,427.602448 327.757965,426.756409 
	C326.602417,425.829407 325.332672,425.011810 324.316467,423.951324 
	C322.518158,422.074646 319.710999,420.219574 319.395630,418.054108 
	C318.623840,412.753998 319.032715,407.281982 318.966400,401.879150 
M268.209503,443.341492 
	C267.921021,438.185883 269.374695,432.767303 265.560059,428.138275 
	C265.019104,427.481873 265.653259,425.777496 265.878784,424.583710 
	C266.621521,420.651855 267.999390,416.740692 268.061096,412.804810 
	C268.136566,407.986023 268.694336,403.975128 273.985443,402.462189 
	C271.631897,397.523743 269.772125,397.165375 266.183594,400.071198 
	C261.069214,404.212524 262.227661,409.835663 262.162476,415.195312 
	C262.109192,419.574097 261.043182,423.094177 256.105042,424.306519 
	C255.159866,424.538574 253.924500,425.978607 253.910294,426.878448 
	C253.898331,427.637909 255.391098,428.977661 256.342316,429.101013 
	C260.840851,429.684479 261.703308,433.012970 262.079987,436.501404 
	C262.399628,439.461609 261.997406,442.493622 262.208557,445.473053 
	C262.548889,450.275299 265.664764,453.739899 269.689697,453.698608 
	C270.985565,453.685333 272.271362,452.691437 273.561768,452.146088 
	C272.910065,450.922638 272.364014,449.626068 271.580414,448.493896 
	C270.555969,447.013733 269.343689,445.663605 268.209503,443.341492 
M290.456177,446.261047 
	C293.366638,444.211578 294.486542,433.992218 291.816711,432.263397 
	C291.070984,431.780487 289.134888,432.112335 288.423645,432.786560 
	C286.036011,435.049805 287.032715,443.798737 290.456177,446.261047 
M292.700073,419.945343 
	C292.900116,417.964569 293.604797,415.827576 293.062866,414.076477 
	C292.831696,413.329468 288.885284,412.680145 288.548035,413.209686 
	C287.403107,415.007507 287.115601,417.351349 286.316620,420.125366 
	C288.991852,420.125366 290.446503,420.125366 292.700073,419.945343 
z"/>
<path fill="#F4F4F4" opacity="1.000000" stroke="none" 
	d="
M241.078674,475.962555 
	C277.499664,475.962555 313.429016,475.962555 349.723907,475.962555 
	C349.723907,489.934692 349.723907,503.645294 349.723907,517.659485 
	C311.402985,517.659485 273.039673,517.659485 234.329163,517.659485 
	C234.329163,504.028473 234.329163,490.320709 234.329163,475.962555 
	C236.404190,475.962555 238.495590,475.962555 241.078674,475.962555 
M334.396484,512.237976 
	C336.114716,512.237976 337.832916,512.237976 339.483337,512.237976 
	C339.483337,502.783783 339.483337,493.879456 339.483337,484.434174 
	C337.499054,484.582581 335.841217,484.706573 333.817230,484.857941 
	C333.817230,490.177643 333.817230,494.882996 333.817230,499.696594 
	C327.623901,495.708069 328.777252,485.036926 318.977142,484.307861 
	C318.977142,494.073181 318.977142,503.119843 318.977142,512.143127 
	C322.527496,513.263062 323.846313,512.178040 323.695648,508.717712 
	C323.509277,504.437439 323.651062,500.142883 323.651062,495.854492 
	C324.215485,495.775543 324.779907,495.696625 325.344330,495.617676 
	C328.226501,500.942139 331.108704,506.266632 334.396484,512.237976 
M303.651947,484.495026 
	C297.688599,483.022705 293.646484,484.958435 290.021729,490.201996 
	C285.211853,497.159943 288.607025,509.272705 296.326630,511.989197 
	C302.832153,514.278442 308.571991,511.361633 310.965302,505.059875 
	C314.235901,496.448212 311.515533,488.026245 303.651947,484.495026 
M273.750641,489.469879 
	C276.147308,488.614624 278.544006,487.759399 281.669891,486.643951 
	C281.707947,486.794250 281.793091,485.222504 281.081573,484.661865 
	C278.504395,482.631134 270.707642,484.545013 268.847137,487.432739 
	C266.668030,490.814972 268.019592,495.758820 271.792114,498.077728 
	C273.885101,499.364197 276.094360,500.475739 278.110474,501.869720 
	C280.832520,503.751831 280.614838,506.823669 277.451996,507.717133 
	C274.746857,508.481232 271.734558,508.157837 267.935272,508.365997 
	C268.467346,509.472168 268.960541,511.591797 269.595093,511.635040 
	C273.130280,511.875824 277.082245,512.508911 280.123718,511.209839 
	C282.168854,510.336365 284.392609,506.186890 283.949005,504.036957 
	C283.264984,500.721497 281.778931,496.747040 276.885345,496.189301 
	C273.612213,495.816223 272.066101,493.558746 273.750641,489.469879 
M256.460968,512.088379 
	C257.678101,510.472015 259.863007,508.903839 259.946381,507.230957 
	C260.325256,499.625275 260.112366,491.990051 260.112366,484.365479 
	C259.583801,484.083771 259.055267,483.802063 258.526703,483.520355 
	C257.692230,484.814606 256.208099,486.074554 256.137604,487.409180 
	C255.857101,492.720520 255.925735,498.057190 256.044373,503.380493 
	C256.134003,507.402222 254.102951,508.767426 250.431305,508.341888 
	C249.281754,508.208649 248.154770,507.664032 247.021210,507.675629 
	C246.057388,507.685425 245.098984,508.224243 244.138168,508.528992 
	C244.719177,509.517120 245.171219,511.237946 245.903488,511.366852 
	C249.115875,511.932281 252.409348,512.037109 256.460968,512.088379 
z"/>
<path fill="#272727" opacity="1.000000" stroke="none" 
	d="
M318.814880,401.642883 
	C319.032715,407.281982 318.623840,412.753998 319.395630,418.054108 
	C319.710999,420.219574 322.518158,422.074646 324.316467,423.951324 
	C325.332672,425.011810 326.602417,425.829407 327.757965,426.756409 
	C326.595917,427.602448 325.530151,428.959137 324.253967,429.199799 
	C320.251892,429.954437 319.343414,432.795288 319.154419,436.094635 
	C318.964447,439.410767 319.172241,442.747681 319.068573,446.071259 
	C318.935364,450.342804 316.336945,452.749268 312.449432,453.564758 
	C311.161438,453.834930 309.595703,452.781097 308.156982,452.332581 
	C308.750275,450.916534 309.067444,448.518066 309.986145,448.259857 
	C313.394012,447.302063 313.004791,444.926453 313.128937,442.404419 
	C313.375366,437.398407 311.797699,432.000031 316.046783,427.746368 
	C316.402832,427.390015 316.528259,426.197784 316.237000,425.890564 
	C311.607880,421.008209 313.685242,414.907715 312.996063,409.297546 
	C312.777893,407.521362 311.900757,405.044312 310.566895,404.354767 
	C308.030731,403.043640 306.926147,401.539337 308.891052,399.567749 
	C309.708008,398.748047 312.232819,399.607452 313.977203,399.749908 
	C314.462860,399.789520 314.934906,399.995544 315.806946,400.091797 
	C317.021606,400.507782 317.842499,400.957184 318.814880,401.642883 
z"/>
<path fill="#ECECEC" opacity="1.000000" stroke="none" 
	d="
M327.030579,377.872498 
	C333.226288,383.767365 339.184509,389.385376 346.123260,395.927979 
	C337.280060,395.927979 329.966614,395.927979 322.296387,395.927979 
	C322.296387,388.757874 322.296387,381.701477 322.296387,373.689880 
	C324.072876,375.232910 325.432983,376.414246 327.030579,377.872498 
z"/>
<path fill="#1E1E1E" opacity="1.000000" stroke="none" 
	d="
M268.210876,443.799500 
	C269.343689,445.663605 270.555969,447.013733 271.580414,448.493896 
	C272.364014,449.626068 272.910065,450.922638 273.561768,452.146118 
	C272.271362,452.691437 270.985565,453.685333 269.689697,453.698608 
	C265.664764,453.739899 262.548889,450.275299 262.208557,445.473053 
	C261.997406,442.493622 262.399628,439.461609 262.079987,436.501404 
	C261.703308,433.012970 260.840851,429.684479 256.342316,429.101013 
	C255.391098,428.977661 253.898331,427.637909 253.910294,426.878448 
	C253.924500,425.978607 255.159866,424.538574 256.105042,424.306519 
	C261.043182,423.094177 262.109192,419.574097 262.162476,415.195312 
	C262.227661,409.835663 261.069214,404.212524 266.183594,400.071198 
	C269.772125,397.165375 271.631897,397.523743 273.985443,402.462189 
	C268.694336,403.975128 268.136566,407.986023 268.061096,412.804810 
	C267.999390,416.740692 266.621521,420.651855 265.878784,424.583710 
	C265.653259,425.777496 265.019104,427.481873 265.560059,428.138275 
	C269.374695,432.767303 267.921021,438.185883 268.210876,443.799500 
z"/>
<path fill="#232323" opacity="1.000000" stroke="none" 
	d="
M290.092834,446.242554 
	C287.032715,443.798737 286.036011,435.049805 288.423645,432.786560 
	C289.134888,432.112335 291.070984,431.780487 291.816711,432.263397 
	C294.486542,433.992218 293.366638,444.211578 290.092834,446.242554 
z"/>
<path fill="#141414" opacity="1.000000" stroke="none" 
	d="
M292.300598,420.035339 
	C290.446503,420.125366 288.991852,420.125366 286.316620,420.125366 
	C287.115601,417.351349 287.403107,415.007507 288.548035,413.209686 
	C288.885284,412.680145 292.831696,413.329468 293.062866,414.076477 
	C293.604797,415.827576 292.900116,417.964569 292.300598,420.035339 
z"/>
<path fill="#1E1E1E" opacity="1.000000" stroke="none" 
	d="
M334.193665,511.914551 
	C331.108704,506.266632 328.226501,500.942139 325.344330,495.617676 
	C324.779907,495.696625 324.215485,495.775543 323.651062,495.854492 
	C323.651062,500.142883 323.509277,504.437439 323.695648,508.717712 
	C323.846313,512.178040 322.527496,513.263062 318.977142,512.143127 
	C318.977142,503.119843 318.977142,494.073181 318.977142,484.307861 
	C328.777252,485.036926 327.623901,495.708069 333.817230,499.696594 
	C333.817230,494.882996 333.817230,490.177643 333.817230,484.857941 
	C335.841217,484.706573 337.499054,484.582581 339.483337,484.434174 
	C339.483337,493.879456 339.483337,502.783783 339.483337,512.237976 
	C337.832916,512.237976 336.114716,512.237976 334.193665,511.914551 
z"/>
<path fill="#212121" opacity="1.000000" stroke="none" 
	d="
M304.030396,484.628540 
	C311.515533,488.026245 314.235901,496.448212 310.965302,505.059875 
	C308.571991,511.361633 302.832153,514.278442 296.326630,511.989197 
	C288.607025,509.272705 285.211853,497.159943 290.021729,490.201996 
	C293.646484,484.958435 297.688599,483.022705 304.030396,484.628540 
M293.253357,493.317078 
	C293.441101,496.922821 292.997589,500.709259 293.965942,504.091492 
	C295.384674,509.047180 301.505371,510.382874 304.510773,506.651947 
	C310.341492,499.413727 308.750122,493.658142 302.686005,487.722992 
	C301.864838,486.919312 299.244812,486.973480 298.120392,487.682098 
	C296.284637,488.838928 294.994324,490.861298 293.253357,493.317078 
z"/>
<path fill="#232323" opacity="1.000000" stroke="none" 
	d="
M273.495575,489.782288 
	C272.066101,493.558746 273.612213,495.816223 276.885345,496.189301 
	C281.778931,496.747040 283.264984,500.721497 283.949005,504.036957 
	C284.392609,506.186890 282.168854,510.336365 280.123718,511.209839 
	C277.082245,512.508911 273.130280,511.875824 269.595093,511.635040 
	C268.960541,511.591797 268.467346,509.472168 267.935272,508.365997 
	C271.734558,508.157837 274.746857,508.481232 277.451996,507.717133 
	C280.614838,506.823669 280.832520,503.751831 278.110474,501.869720 
	C276.094360,500.475739 273.885101,499.364197 271.792114,498.077728 
	C268.019592,495.758820 266.668030,490.814972 268.847137,487.432739 
	C270.707642,484.545013 278.504395,482.631134 281.081573,484.661865 
	C281.793091,485.222504 281.707947,486.794250 281.669891,486.643951 
	C278.544006,487.759399 276.147308,488.614624 273.495575,489.782288 
z"/>
<path fill="#1E1E1E" opacity="1.000000" stroke="none" 
	d="
M256.067200,512.198730 
	C252.409348,512.037109 249.115875,511.932281 245.903488,511.366852 
	C245.171219,511.237946 244.719177,509.517120 244.138184,508.528992 
	C245.098984,508.224243 246.057388,507.685425 247.021210,507.675629 
	C248.154770,507.664032 249.281754,508.208649 250.431305,508.341888 
	C254.102951,508.767426 256.134003,507.402222 256.044373,503.380493 
	C255.925735,498.057190 255.857101,492.720520 256.137604,487.409180 
	C256.208099,486.074554 257.692230,484.814606 258.526703,483.520355 
	C259.055267,483.802063 259.583801,484.083771 260.112366,484.365479 
	C260.112366,491.990051 260.325256,499.625275 259.946381,507.230957 
	C259.863007,508.903839 257.678101,510.472015 256.067200,512.198730 
z"/>
<path fill="#EBECEB" opacity="1.000000" stroke="none" 
	d="
M293.363647,492.917816 
	C294.994324,490.861298 296.284637,488.838928 298.120392,487.682098 
	C299.244812,486.973480 301.864838,486.919312 302.686005,487.722992 
	C308.750122,493.658142 310.341492,499.413727 304.510773,506.651947 
	C301.505371,510.382874 295.384674,509.047180 293.965942,504.091492 
	C292.997589,500.709259 293.441101,496.922821 293.363647,492.917816 
z"/>
</svg>