<?xml version="1.0" encoding="UTF-8"?>
<svg version="1.1" xmlns="http://www.w3.org/2000/svg" width="149" height="144">
<path d="M0 0 C49.17 0 98.34 0 149 0 C149 47.52 149 95.04 149 144 C99.83 144 50.66 144 0 144 C0 96.48 0 48.96 0 0 Z " fill="#109DDD" transform="translate(0,0)"/>
<path d="M0 0 C0.9378685 -0.00004028 1.875737 -0.00008057 2.84202576 -0.00012207 C4.81980104 0.00522769 6.79757616 0.02278714 8.77514648 0.05175781 C11.80192996 0.09365775 14.82649066 0.09282101 17.85351562 0.0859375 C19.77735921 0.09642892 21.70119133 0.10936676 23.625 0.125 C24.5292421 0.12520142 25.43348419 0.12540283 26.36512756 0.12561035 C32.58197176 0.24275332 32.58197176 0.24275332 35.78491211 1.93554688 C38.17159895 4.64404764 38.37753678 7.25041854 38.43896484 10.71044922 C38.45502777 11.53495575 38.4710907 12.35946228 38.48764038 13.20895386 C38.53222804 16.96920799 38.57313641 20.72928943 38.59619141 24.48974609 C38.61276403 26.47228727 38.64007124 28.45476838 38.67822266 30.43701172 C38.73300423 33.29946798 38.7548648 36.16052759 38.76953125 39.0234375 C38.79220062 39.90691864 38.81487 40.79039978 38.83822632 41.70065308 C38.82389258 45.87906578 38.58537427 48.05812936 36.30712891 51.65478516 C32.04987866 54.35147374 28.69148278 54.27993081 23.74609375 54.1875 C22.37614258 54.18756042 22.37614258 54.18756042 20.97851562 54.18762207 C19.05201314 54.1822725 17.1255108 54.16471383 15.19921875 54.13574219 C12.25582963 54.09388844 9.31473031 54.09467565 6.37109375 54.1015625 C4.4960779 54.0910692 2.62107381 54.07813035 0.74609375 54.0625 C-0.13111328 54.06229858 -1.00832031 54.06209717 -1.91210938 54.06188965 C-6.65316069 53.97037698 -9.92030167 53.70094736 -13.75390625 50.59375 C-14.8876033 48.32635589 -14.90324624 47.01838483 -14.94677734 44.4987793 C-14.96284027 43.65417648 -14.9789032 42.80957367 -14.99545288 41.93937683 C-15.0399217 38.07490848 -15.08096845 34.21061166 -15.10400391 30.34594727 C-15.12056277 28.30807067 -15.14785183 26.27025214 -15.18603516 24.23266602 C-15.24081865 21.2941272 -15.26268001 18.35694955 -15.27734375 15.41796875 C-15.30001312 14.50947678 -15.3226825 13.6009848 -15.34603882 12.66496277 C-15.33193244 8.43776112 -15.11069533 6.16460348 -12.83081055 2.5168457 C-8.50302267 -0.18806464 -5.01067871 -0.09105495 0 0 Z " fill="#165C7F" transform="translate(61.75390625,44.40625)"/>
<path d="M0 0 C2.6875 1.25 2.6875 1.25 5.1875 3 C7.62811263 4.55698192 7.62811263 4.55698192 10.25 3.625 C12.71613938 2.31786113 12.71613938 2.31786113 14.8125 0.5625 C15.43125 0.129375 16.05 -0.30375 16.6875 -0.75 C17.6775 -0.42 18.6675 -0.09 19.6875 0.25 C19.94983625 4.29042673 20.10900491 8.32866481 20.25 12.375 C20.32541016 13.51710938 20.40082031 14.65921875 20.47851562 15.8359375 C20.69554031 24.13110332 20.69554031 24.13110332 17.75830078 27.39135742 C14.21253431 29.8401051 11.79123258 31.22877437 7.4375 31.3125 C4.6875 30.25 4.6875 30.25 2.1875 28.5625 C-0.32506545 26.90099582 -0.32506545 26.90099582 -3.4375 27.9375 C-6.42088247 29.20737832 -6.42088247 29.20737832 -9.3125 31.25 C-10.6325 31.25 -11.9525 31.25 -13.3125 31.25 C-13.57483625 27.20957327 -13.73400491 23.17133519 -13.875 19.125 C-13.95041016 17.98289062 -14.02582031 16.84078125 -14.10351562 15.6640625 C-14.3216031 7.32827449 -14.3216031 7.32827449 -11.33935547 4.14160156 C-9.05138046 2.60772771 -6.82480883 1.37185759 -4.3125 0.25 C-2.3125 -0.75 -2.3125 -0.75 0 0 Z " fill="#E8EFF3" transform="translate(70.3125,55.75)"/>
<path d="M0 0 C0 0.66 0 1.32 0 2 C0.66 2 1.32 2 2 2 C1.67 3.32 1.34 4.64 1 6 C0.01 5.34 -0.98 4.68 -2 4 C-4.00850974 3.68523739 -4.00850974 3.68523739 -6.22436523 3.70947266 C-7.07212021 3.69671295 -7.91987518 3.68395325 -8.7933197 3.67080688 C-9.70586014 3.66858124 -10.61840057 3.66635559 -11.55859375 3.6640625 C-12.49929214 3.6574057 -13.43999054 3.6507489 -14.40919495 3.64389038 C-16.39883468 3.63376478 -18.38850836 3.62907333 -20.37817383 3.62939453 C-23.42260651 3.62502139 -26.46558951 3.5887011 -29.50976562 3.55078125 C-31.44270337 3.54491309 -33.37564801 3.54094369 -35.30859375 3.5390625 C-36.21910995 3.52469147 -37.12962616 3.51032043 -38.06773376 3.49551392 C-41.78385034 3.52238668 -44.28812039 3.60348096 -47.56762695 5.43017578 C-49.77301584 9.38686974 -49.60327075 13.11632016 -49.609375 17.578125 C-49.62591125 18.5046991 -49.64244751 19.43127319 -49.65948486 20.38592529 C-49.70800726 23.340684 -49.72934524 26.29492789 -49.75 29.25 C-49.77815613 31.25523429 -49.80808305 33.26044456 -49.83984375 35.265625 C-49.91376745 40.17704096 -49.96331624 45.08817041 -50 50 C-50.33 50 -50.66 50 -51 50 C-51.33 48.35 -51.66 46.7 -52 45 C-52.33 45 -52.66 45 -53 45 C-53.17409588 40.01970985 -53.30055003 35.04121999 -53.38452148 30.05859375 C-53.41955043 28.36687337 -53.46719144 26.67536226 -53.52807617 24.984375 C-54.0847066 9.11806892 -54.0847066 9.11806892 -49.59765625 3.90625 C-45.03097339 -0.23077342 -41.18368486 -0.21206101 -35.1953125 -0.3515625 C-34.31978729 -0.37471527 -33.44426208 -0.39786804 -32.54220581 -0.42172241 C-30.68786447 -0.46938607 -28.83345926 -0.51461718 -26.97900391 -0.55761719 C-24.1433042 -0.62456784 -21.30804688 -0.70239332 -18.47265625 -0.78125 C-16.67189134 -0.82618048 -14.87111035 -0.87047231 -13.0703125 -0.9140625 C-12.22228058 -0.93796051 -11.37424866 -0.96185852 -10.5005188 -0.98648071 C-9.70644623 -1.0033493 -8.91237366 -1.0202179 -8.09423828 -1.03759766 C-7.05071701 -1.06305161 -7.05071701 -1.06305161 -5.9861145 -1.08901978 C-3.87421325 -0.9943621 -2.02855489 -0.5788113 0 0 Z " fill="#1380C5" transform="translate(97,42)"/>
<path d="M0 0 C2.2477975 2.05233685 3.0022242 3.00667261 4 6 C4.36996094 6.64453125 4.73992187 7.2890625 5.12109375 7.953125 C6.40102622 10.9339455 5.23639334 13.08942406 4.44140625 16.109375 C3.87801629 19.79883135 4.177009 23.30635192 4.5 27 C5.10948499 34.54226772 5.4927354 41.18516363 0.625 47.375 C-0.24125 48.24125 -1.1075 49.1075 -2 50 C-2.86625 50.928125 -2.86625 50.928125 -3.75 51.875 C-9.93221713 54.96610857 -18.20404633 52.66859137 -24.81738281 51.78686523 C-31.1950834 50.94046055 -37.5800339 50.41773752 -44 50 C-44 49.67 -44 49.34 -44 49 C-42.80922852 48.9906543 -41.61845703 48.98130859 -40.39160156 48.97167969 C-35.97064908 48.93178613 -31.55039297 48.86602927 -27.12988281 48.79248047 C-25.21721344 48.76426714 -23.3044274 48.74305439 -21.39160156 48.72900391 C-18.64066827 48.70757919 -15.89113825 48.6609326 -13.140625 48.609375 C-12.28631897 48.60814636 -11.43201294 48.60691772 -10.55181885 48.60565186 C-6.9829319 48.51774293 -4.60586607 48.33592114 -1.453125 46.58789062 C0.84046752 42.50319964 0.49152083 38.5870953 0.390625 33.984375 C0.38213531 32.52792572 0.38213531 32.52792572 0.37347412 31.04205322 C0.35110311 27.94419831 0.30090473 24.84750467 0.25 21.75 C0.22993597 19.64845422 0.21168503 17.54689028 0.1953125 15.4453125 C0.1512358 10.2964283 0.08220258 5.14841097 0 0 Z " fill="#1474B5" transform="translate(99,49)"/>
<path d="M0 0 C0.14510162 3.27036728 0.23399373 6.53991007 0.3125 9.8125 C0.35439453 10.74126953 0.39628906 11.67003906 0.43945312 12.62695312 C0.48546679 15.17611035 0.47778787 17.49463949 0 20 C-2.44962714 22.18588262 -3.72491771 23 -7 23 C-7.14510162 19.72963272 -7.23399373 16.46008993 -7.3125 13.1875 C-7.35439453 12.25873047 -7.39628906 11.32996094 -7.43945312 10.37304688 C-7.48546679 7.82388965 -7.47778787 5.50536051 -7 3 C-4.55037286 0.81411738 -3.27508229 0 0 0 Z " fill="#196183" transform="translate(67,60)"/>
<path d="M0 0 C4.75 1.875 4.75 1.875 7 3 C7 9.6 7 16.2 7 23 C1 21 1 21 0 20 C-0.08669432 18.5112814 -0.10703494 17.018555 -0.09765625 15.52734375 C-0.09443359 14.62822266 -0.09121094 13.72910156 -0.08789062 12.80273438 C-0.07951172 11.85720703 -0.07113281 10.91167969 -0.0625 9.9375 C-0.05798828 8.98810547 -0.05347656 8.03871094 -0.04882812 7.06054688 C-0.0370011 4.70696935 -0.02052025 2.35351523 0 0 Z " fill="#196082" transform="translate(71,60)"/>
<path d="M0 0 C0 6.6 0 13.2 0 20 C-1.98 20.99 -3.96 21.98 -6 23 C-6.11608726 19.72946483 -6.18720711 16.4594582 -6.25 13.1875 C-6.28351563 12.25873047 -6.31703125 11.32996094 -6.3515625 10.37304688 C-6.36445312 9.48037109 -6.37734375 8.58769531 -6.390625 7.66796875 C-6.41157227 6.84578857 -6.43251953 6.0236084 -6.45410156 5.17651367 C-6 3 -6 3 -4.10058594 1.20825195 C-2 0 -2 0 0 0 Z " fill="#1F6284" transform="translate(87,60)"/>
<path d="M0 0 C0.66 0.33 1.32 0.66 2 1 C2 8.66666667 2 16.33333333 2 24 C1.67 24 1.34 24 1 24 C1 17.4 1 10.8 1 4 C-1.31 5.32 -3.62 6.64 -6 8 C-6.66 8 -7.32 8 -8 8 C-8 15.59 -8 23.18 -8 31 C-8.33 31 -8.66 31 -9 31 C-9.26233625 26.95957327 -9.42150491 22.92133519 -9.5625 18.875 C-9.63791016 17.73289062 -9.71332031 16.59078125 -9.79101562 15.4140625 C-9.87902928 12.04998511 -9.85276253 9.25967214 -9 6 C-6.33894564 3.20859531 -3.51165249 1.54929727 0 0 Z " fill="#C4D7DF" transform="translate(66,56)"/>
<path d="M0 0 C0.54817383 0.1539624 1.09634766 0.3079248 1.66113281 0.46655273 C4.25818324 1.05888626 6.76728361 1.3139403 9.421875 1.53515625 C10.95908203 1.66567383 10.95908203 1.66567383 12.52734375 1.79882812 C13.59082031 1.88583984 14.65429688 1.97285156 15.75 2.0625 C17.36841797 2.19881836 17.36841797 2.19881836 19.01953125 2.33789062 C21.67945748 2.56151274 24.33959943 2.78210596 27 3 C27 3.66 27 4.32 27 5 C19.08 5 11.16 5 3 5 C3 4.34 3 3.68 3 3 C2.34 3 1.68 3 1 3 C0.67 2.01 0.34 1.02 0 0 Z " fill="#1387CF" transform="translate(51,97)"/>
<path d="M0 0 C0.99 0.33 1.98 0.66 3 1 C4.32816109 4.14308279 3.87284094 6.50863624 3.0625 9.75 C2.77052734 10.94882813 2.77052734 10.94882813 2.47265625 12.171875 C2.31667969 12.77515625 2.16070312 13.3784375 2 14 C1.67 14 1.34 14 1 14 C-0.20568053 9.32798795 -0.09382426 4.78503708 0 0 Z " fill="#137FC7" transform="translate(101,54)"/>
</svg>
