<svg version="1.1" id="Layer_1" xmlns="http://www.w3.org/2000/svg" xmlns:xlink="http://www.w3.org/1999/xlink" x="0px" y="0px"
	 width="100%" viewBox="0 0 561 511" enable-background="new 0 0 561 511" xml:space="preserve">
<path fill="#03A9F5" opacity="1.000000" stroke="none" 
	d="
M324.000000,512.000000 
	C216.025055,512.000000 108.550110,512.000000 1.037580,512.000000 
	C1.037580,341.731415 1.037580,171.462845 1.037580,1.097125 
	C187.891617,1.097125 374.783295,1.097125 561.837524,1.097125 
	C561.837524,171.333206 561.837524,341.666595 561.837524,512.000000 
	C482.796143,512.000000 403.648071,512.000000 324.000000,512.000000 
M373.500000,439.000000 
	C395.665680,439.000000 417.831329,439.001038 439.997009,438.997498 
	C441.329803,438.997284 442.701355,439.160645 443.989532,438.910919 
	C461.247345,435.566010 476.390411,428.548828 487.949646,414.656342 
	C497.822540,402.790558 503.875610,389.424652 503.914062,374.011261 
	C504.103210,298.182007 504.028748,222.352020 503.919678,146.522476 
	C503.913910,142.505554 502.965179,138.440186 502.073120,134.483582 
	C499.309357,122.225624 492.505127,112.464218 483.480072,103.874016 
	C470.619446,91.633026 454.988892,85.281982 437.809906,85.211136 
	C334.649933,84.785667 231.487320,84.986710 128.325638,85.051025 
	C124.405754,85.053467 120.411575,85.455086 116.579849,86.271019 
	C101.145729,89.557556 87.806671,96.612221 77.032898,108.404640 
	C66.896515,119.499405 61.104374,132.414810 61.071194,147.395309 
	C60.912472,219.058197 60.975380,290.721649 61.043095,362.384827 
	C61.049015,368.648071 61.410179,374.936218 62.041943,381.168640 
	C63.610638,396.643890 71.057289,409.297882 81.962273,419.923584 
	C96.863167,434.442902 115.523796,439.873810 135.711777,439.893707 
	C173.309494,439.930756 210.907272,439.190918 248.506088,439.038239 
	C289.836761,438.870422 331.168640,439.000000 373.500000,439.000000 
z"/>
<path fill="#FFFFFF" opacity="1.000000" stroke="none" 
	d="
M373.000000,439.000000 
	C331.168640,439.000000 289.836761,438.870422 248.506088,439.038239 
	C210.907272,439.190918 173.309494,439.930756 135.711777,439.893707 
	C115.523796,439.873810 96.863167,434.442902 81.962273,419.923584 
	C71.057289,409.297882 63.610638,396.643890 62.041943,381.168640 
	C61.410179,374.936218 61.049015,368.648071 61.043095,362.384827 
	C60.975380,290.721649 60.912472,219.058197 61.071194,147.395309 
	C61.104374,132.414810 66.896515,119.499405 77.032898,108.404640 
	C87.806671,96.612221 101.145729,89.557556 116.579849,86.271019 
	C120.411575,85.455086 124.405754,85.053467 128.325638,85.051025 
	C231.487320,84.986710 334.649933,84.785667 437.809906,85.211136 
	C454.988892,85.281982 470.619446,91.633026 483.480072,103.874016 
	C492.505127,112.464218 499.309357,122.225624 502.073120,134.483582 
	C502.965179,138.440186 503.913910,142.505554 503.919678,146.522476 
	C504.028748,222.352020 504.103210,298.182007 503.914062,374.011261 
	C503.875610,389.424652 497.822540,402.790558 487.949646,414.656342 
	C476.390411,428.548828 461.247345,435.566010 443.989532,438.910919 
	C442.701355,439.160645 441.329803,438.997284 439.997009,438.997498 
	C417.831329,439.001038 395.665680,439.000000 373.000000,439.000000 
M243.621475,388.959015 
	C246.309998,390.381287 249.035080,391.739288 251.676773,393.243805 
	C254.336533,394.758667 255.415329,393.971313 256.053864,391.055817 
	C258.234589,381.098846 259.299469,371.129517 259.180695,360.868896 
	C259.060150,350.460236 258.485809,340.242035 256.031616,330.105408 
	C250.435883,306.993225 239.720840,286.773773 223.172745,269.557526 
	C214.134811,260.154663 204.219864,251.924667 192.908249,245.583954 
	C183.016434,240.039108 172.701950,235.211731 161.162354,232.857025 
	C161.162354,245.774872 161.162354,258.237030 161.162354,270.663300 
	C175.507935,277.253998 188.988770,284.891144 199.233078,297.856781 
	C176.795334,310.726044 154.730682,323.357574 132.703873,336.054779 
	C130.684891,337.218567 127.402061,338.679504 127.277115,340.212097 
	C126.710785,347.158051 125.957916,354.454010 127.590874,361.049927 
	C128.333847,364.051025 134.453079,365.721100 138.133621,367.995026 
	C138.548599,368.251434 138.977005,368.488770 139.375778,368.768341 
	C143.179199,371.435059 146.506927,370.647247 150.373917,368.274445 
	C160.243988,362.218109 170.438675,356.692719 180.466660,350.891296 
	C192.857849,343.722687 205.211838,336.489777 217.698883,329.216492 
	C217.808151,329.767365 217.851791,330.218384 217.987793,330.639587 
	C222.335114,344.104523 224.527222,357.753418 222.119217,371.930237 
	C221.838913,373.580566 222.661377,376.353912 223.910934,377.170319 
	C230.102982,381.215546 236.610092,384.778473 243.621475,388.959015 
M422.584686,337.056976 
	C399.931580,323.942322 377.278473,310.827637 354.275818,297.510620 
	C355.437927,296.191650 355.941437,295.563202 356.502808,294.991516 
	C366.154755,285.162048 377.354034,277.593506 389.902405,271.938629 
	C391.136536,271.382477 392.846680,269.965240 392.864990,268.921844 
	C393.074371,256.995880 392.998199,245.064865 392.998199,232.028839 
	C385.134369,235.039948 377.946686,237.364792 371.123718,240.486664 
	C352.386627,249.059860 336.811188,261.707733 323.735809,277.651245 
	C314.749512,288.608765 307.895203,300.675659 302.998108,313.887939 
	C296.433228,331.599701 292.976746,349.814941 295.033661,368.774597 
	C295.786438,375.713013 297.229797,382.584686 297.797852,389.532593 
	C298.300903,395.685242 300.921448,394.223267 304.453156,392.155457 
	C313.484589,386.867706 322.605804,381.733307 332.169403,376.264038 
	C329.514191,360.496246 331.069733,344.737152 336.348022,329.315125 
	C343.799377,333.650146 351.315704,338.038208 358.846680,342.401031 
	C373.919861,351.133148 389.014679,359.827942 404.068420,368.593414 
	C407.447571,370.561005 410.615051,371.546265 414.275604,369.038910 
	C417.324829,366.950287 420.711884,365.357666 423.930542,363.512665 
	C426.172943,362.227264 427.280975,360.540192 427.088684,357.670685 
	C426.766266,352.860046 426.757507,347.995544 427.085419,343.185638 
	C427.306885,339.936401 425.989624,338.381683 422.584686,337.056976 
M295.000366,127.501862 
	C295.000366,122.836121 295.030579,118.170036 294.977997,113.504890 
	C294.965637,112.408043 295.050079,110.668251 294.451874,110.319832 
	C288.889038,107.079819 283.233551,103.985527 277.475922,101.107079 
	C276.575745,100.657051 274.880554,101.230438 273.804077,101.802826 
	C270.103149,103.770767 266.562836,106.040283 262.865814,108.016205 
	C260.041992,109.525429 258.864594,111.400841 258.893250,114.871590 
	C259.094086,139.198975 258.999634,163.528793 258.999634,187.857834 
	C258.999634,190.163803 258.999634,192.469772 258.999634,194.973709 
	C257.792999,194.973709 256.940979,195.140320 256.178864,194.948914 
	C243.084274,191.660172 230.730225,186.550446 220.042877,178.262772 
	C216.669006,175.646439 214.613525,175.988876 211.451614,177.885788 
	C203.016525,182.946152 194.457581,187.806702 185.843826,192.558044 
	C183.590820,193.800842 183.285034,194.895691 185.085220,196.547638 
	C188.479477,199.662354 191.705826,203.027557 195.414169,205.721146 
	C214.660431,219.700974 235.619034,229.999496 259.648743,231.837601 
	C272.737488,232.838776 286.119263,233.212128 299.096039,231.630402 
	C313.968201,229.817657 328.303619,224.532867 341.243683,216.802017 
	C350.537140,211.249756 358.955719,204.222855 367.697083,197.762436 
	C370.609253,195.610168 370.939972,193.943924 367.056213,191.886322 
	C358.505402,187.356049 350.268524,182.235123 341.874969,177.404831 
	C339.357147,175.955872 337.413361,175.806061 334.416077,177.775635 
	C326.910126,182.707901 318.921295,187.008774 310.785858,190.840302 
	C306.022980,193.083466 300.607330,193.940582 295.000366,195.561401 
	C295.000366,172.463333 295.000366,150.482147 295.000366,127.501862 
z"/>
<path fill="#231F20" opacity="1.000000" stroke="none" 
	d="
M243.313812,388.735199 
	C236.610092,384.778473 230.102982,381.215546 223.910934,377.170319 
	C222.661377,376.353912 221.838913,373.580566 222.119217,371.930237 
	C224.527222,357.753418 222.335114,344.104523 217.987793,330.639587 
	C217.851791,330.218384 217.808151,329.767365 217.698883,329.216492 
	C205.211838,336.489777 192.857849,343.722687 180.466660,350.891296 
	C170.438675,356.692719 160.243988,362.218109 150.373917,368.274445 
	C146.506927,370.647247 143.179199,371.435059 139.375778,368.768341 
	C138.977005,368.488770 138.548599,368.251434 138.133621,367.995026 
	C134.453079,365.721100 128.333847,364.051025 127.590874,361.049927 
	C125.957916,354.454010 126.710785,347.158051 127.277115,340.212097 
	C127.402061,338.679504 130.684891,337.218567 132.703873,336.054779 
	C154.730682,323.357574 176.795334,310.726044 199.233078,297.856781 
	C188.988770,284.891144 175.507935,277.253998 161.162354,270.663300 
	C161.162354,258.237030 161.162354,245.774872 161.162354,232.857025 
	C172.701950,235.211731 183.016434,240.039108 192.908249,245.583954 
	C204.219864,251.924667 214.134811,260.154663 223.172745,269.557526 
	C239.720840,286.773773 250.435883,306.993225 256.031616,330.105408 
	C258.485809,340.242035 259.060150,350.460236 259.180695,360.868896 
	C259.299469,371.129517 258.234589,381.098846 256.053864,391.055817 
	C255.415329,393.971313 254.336533,394.758667 251.676773,393.243805 
	C249.035080,391.739288 246.309998,390.381287 243.313812,388.735199 
z"/>
<path fill="#231F20" opacity="1.000000" stroke="none" 
	d="
M422.852966,337.346527 
	C425.989624,338.381683 427.306885,339.936401 427.085419,343.185638 
	C426.757507,347.995544 426.766266,352.860046 427.088684,357.670685 
	C427.280975,360.540192 426.172943,362.227264 423.930542,363.512665 
	C420.711884,365.357666 417.324829,366.950287 414.275604,369.038910 
	C410.615051,371.546265 407.447571,370.561005 404.068420,368.593414 
	C389.014679,359.827942 373.919861,351.133148 358.846680,342.401031 
	C351.315704,338.038208 343.799377,333.650146 336.348022,329.315125 
	C331.069733,344.737152 329.514191,360.496246 332.169403,376.264038 
	C322.605804,381.733307 313.484589,386.867706 304.453156,392.155457 
	C300.921448,394.223267 298.300903,395.685242 297.797852,389.532593 
	C297.229797,382.584686 295.786438,375.713013 295.033661,368.774597 
	C292.976746,349.814941 296.433228,331.599701 302.998108,313.887939 
	C307.895203,300.675659 314.749512,288.608765 323.735809,277.651245 
	C336.811188,261.707733 352.386627,249.059860 371.123718,240.486664 
	C377.946686,237.364792 385.134369,235.039948 392.998199,232.028839 
	C392.998199,245.064865 393.074371,256.995880 392.864990,268.921844 
	C392.846680,269.965240 391.136536,271.382477 389.902405,271.938629 
	C377.354034,277.593506 366.154755,285.162048 356.502808,294.991516 
	C355.941437,295.563202 355.437927,296.191650 354.275818,297.510620 
	C377.278473,310.827637 399.931580,323.942322 422.852966,337.346527 
z"/>
<path fill="#231F20" opacity="1.000000" stroke="none" 
	d="
M295.000366,128.001404 
	C295.000366,150.482147 295.000366,172.463333 295.000366,195.561401 
	C300.607330,193.940582 306.022980,193.083466 310.785858,190.840302 
	C318.921295,187.008774 326.910126,182.707901 334.416077,177.775635 
	C337.413361,175.806061 339.357147,175.955872 341.874969,177.404831 
	C350.268524,182.235123 358.505402,187.356049 367.056213,191.886322 
	C370.939972,193.943924 370.609253,195.610168 367.697083,197.762436 
	C358.955719,204.222855 350.537140,211.249756 341.243683,216.802017 
	C328.303619,224.532867 313.968201,229.817657 299.096039,231.630402 
	C286.119263,233.212128 272.737488,232.838776 259.648743,231.837601 
	C235.619034,229.999496 214.660431,219.700974 195.414169,205.721146 
	C191.705826,203.027557 188.479477,199.662354 185.085220,196.547638 
	C183.285034,194.895691 183.590820,193.800842 185.843826,192.558044 
	C194.457581,187.806702 203.016525,182.946152 211.451614,177.885788 
	C214.613525,175.988876 216.669006,175.646439 220.042877,178.262772 
	C230.730225,186.550446 243.084274,191.660172 256.178864,194.948914 
	C256.940979,195.140320 257.792999,194.973709 258.999634,194.973709 
	C258.999634,192.469772 258.999634,190.163803 258.999634,187.857834 
	C258.999634,163.528793 259.094086,139.198975 258.893250,114.871590 
	C258.864594,111.400841 260.041992,109.525429 262.865814,108.016205 
	C266.562836,106.040283 270.103149,103.770767 273.804077,101.802826 
	C274.880554,101.230438 276.575745,100.657051 277.475922,101.107079 
	C283.233551,103.985527 288.889038,107.079819 294.451874,110.319832 
	C295.050079,110.668251 294.965637,112.408043 294.977997,113.504890 
	C295.030579,118.170036 295.000366,122.836121 295.000366,128.001404 
z"/>
</svg>