<?xml version="1.0" encoding="UTF-8"?>
<svg version="1.1" xmlns="http://www.w3.org/2000/svg" width="167" height="141">
<path d="M0 0 C55.11 0 110.22 0 167 0 C167 46.53 167 93.06 167 141 C111.89 141 56.78 141 0 141 C0 94.47 0 47.94 0 0 Z " fill="#0F9BDB" transform="translate(0,0)"/>
<path d="M0 0 C0.91092911 -0.00478363 1.82185822 -0.00956726 2.76039124 -0.01449585 C4.68264497 -0.01789099 6.60495675 -0.00871557 8.52709961 0.01220703 C11.46014057 0.03894839 14.38934425 0.01246336 17.32226562 -0.01953125 C19.19401882 -0.01622648 21.06576964 -0.00981885 22.9375 0 C23.80954575 -0.01012115 24.68159149 -0.02024231 25.58006287 -0.03067017 C29.55680245 0.04536785 32.73146768 0.32316777 36.08520508 2.58447266 C39.52344797 6.90634568 39.40303318 10.21766186 39.33203125 15.6015625 C39.33777161 16.55925537 39.34351196 17.51694824 39.34942627 18.50366211 C39.35350108 20.52427542 39.34248571 22.5449682 39.31738281 24.56542969 C39.28525266 27.65479247 39.31708748 30.73892453 39.35546875 33.828125 C39.35150375 35.79428236 39.3438161 37.76043646 39.33203125 39.7265625 C39.35024933 41.10799438 39.35024933 41.10799438 39.36883545 42.51733398 C39.26887985 47.08569861 39.00377845 49.07542445 36.08520508 52.74145508 C31.99847 55.49691842 27.72476312 55.40162181 22.9375 55.36328125 C22.02561417 55.37043655 21.11372833 55.37759186 20.17420959 55.38496399 C18.25376357 55.3927216 16.33322895 55.38777003 14.4128418 55.37084961 C11.47731367 55.35159305 8.54650263 55.39106336 5.61132812 55.43554688 C3.74088261 55.43583719 1.87043275 55.43269825 0 55.42578125 C-1.31110497 55.44870491 -1.31110497 55.44870491 -2.6486969 55.47209167 C-7.09711861 55.38711744 -8.94148311 55.08172884 -12.51489258 52.22998047 C-15.34108986 48.08357012 -15.1839998 43.71362233 -15.12890625 38.84765625 C-15.13368988 37.91357437 -15.13847351 36.97949249 -15.1434021 36.0171051 C-15.14679342 34.04955351 -15.13764489 32.08194498 -15.11669922 30.11450195 C-15.08989183 27.10695703 -15.11648801 24.10313357 -15.1484375 21.09570312 C-15.14513386 19.17967929 -15.13872856 17.26365776 -15.12890625 15.34765625 C-15.1390274 14.45171249 -15.14914856 13.55576874 -15.15957642 12.63267517 C-15.08107867 8.44327796 -14.80475588 6.19812501 -12.51489258 2.6003418 C-8.28172531 -0.0870231 -4.92375099 -0.05701379 0 0 Z " fill="#165C80" transform="translate(68.46484375,42.3359375)"/>
<path d="M0 0 C0.69038361 -0.00095673 1.38076721 -0.00191345 2.09207153 -0.00289917 C3.54950044 -0.00357811 5.00693241 -0.00174382 6.46435547 0.00244141 C8.68073425 0.0077774 10.89690888 0.00249518 13.11328125 -0.00390625 C14.53385461 -0.0032451 15.95442784 -0.00196317 17.375 0 C18.65874512 0.00112793 19.94249023 0.00225586 21.26513672 0.00341797 C24.54496803 0.12279104 27.60259699 0.50860916 30.8203125 1.1328125 C30.8203125 1.7928125 30.8203125 2.4528125 30.8203125 3.1328125 C31.8103125 2.8028125 32.8003125 2.4728125 33.8203125 2.1328125 C36.8203125 3.1328125 36.8203125 3.1328125 38.8203125 6.1328125 C38.89936314 8.46480638 38.90830019 10.80113872 38.8203125 13.1328125 C39.4803125 13.1328125 40.1403125 13.1328125 40.8203125 13.1328125 C41.1503125 12.1428125 41.4803125 11.1528125 41.8203125 10.1328125 C42.9453125 17.7578125 42.9453125 17.7578125 41.8203125 21.1328125 C41.4903125 21.1328125 41.1603125 21.1328125 40.8203125 21.1328125 C40.88931763 22.09936768 40.88931763 22.09936768 40.9597168 23.08544922 C41.16121183 26.05863227 41.33463765 29.03285079 41.5078125 32.0078125 C41.58064453 33.02101562 41.65347656 34.03421875 41.72851562 35.078125 C42.09848958 41.86823525 41.67154563 47.8702826 38.8203125 54.1328125 C36.1328125 57.0078125 36.1328125 57.0078125 32.8203125 59.1328125 C31.23476562 60.20402344 31.23476562 60.20402344 29.6171875 61.296875 C23.71508453 64.20221312 17.29172482 63.29869407 10.92944336 62.79980469 C8.76045387 62.63301561 6.59201281 62.50940164 4.41992188 62.390625 C-2.65589239 61.93996665 -8.42008831 61.51045123 -14.1796875 57.1328125 C-14.7984375 56.6790625 -15.4171875 56.2253125 -16.0546875 55.7578125 C-17.71036028 53.36628515 -17.86334315 50.97991164 -18.1796875 48.1328125 C-18.5096875 48.1328125 -18.8396875 48.1328125 -19.1796875 48.1328125 C-19.25397512 42.67019612 -19.30835464 37.20787534 -19.34448242 31.74487305 C-19.35954696 29.88739905 -19.38000259 28.02996049 -19.40600586 26.17260742 C-19.44249209 23.49909711 -19.4594372 20.82605806 -19.47265625 18.15234375 C-19.48814011 17.32507278 -19.50362396 16.49780182 -19.51957703 15.64546204 C-19.52093435 10.9705625 -19.21310214 7.93035938 -16.1796875 4.1328125 C-10.84373593 0.30187291 -6.47262097 0.00569701 0 0 Z M-14.22973633 5.0690918 C-16.96161224 9.36135557 -16.90018545 12.82063384 -16.84375 17.81640625 C-16.84853363 18.7495314 -16.85331726 19.68265656 -16.85824585 20.64405823 C-16.86164141 22.61338999 -16.85246305 24.58277838 -16.83154297 26.55200195 C-16.80480204 29.55743948 -16.83128619 32.55913232 -16.86328125 35.56445312 C-16.8599765 37.48177904 -16.85356892 39.39910263 -16.84375 41.31640625 C-16.85387115 42.21032578 -16.86399231 43.1042453 -16.87442017 44.0252533 C-16.79893376 48.06903373 -16.54835515 51.29700577 -14.22973633 54.69873047 C-10.02457519 58.0546463 -6.95658512 57.98617906 -1.71484375 57.89453125 C-0.34845009 57.89958427 -0.34845009 57.89958427 1.04554749 57.90473938 C2.96784116 57.90444101 4.89018289 57.88923705 6.81225586 57.86010742 C9.74546514 57.82047931 12.67413957 57.83938939 15.60742188 57.86523438 C17.47918412 57.85767342 19.35093636 57.84671809 21.22265625 57.83203125 C22.094702 57.83901535 22.96674774 57.84599945 23.86521912 57.85319519 C27.8392943 57.76164655 31.01943602 57.46955188 34.37036133 55.21020508 C37.80961154 50.89015038 37.68817741 47.57830227 37.6171875 42.1953125 C37.62292786 41.23761963 37.62866821 40.27992676 37.63458252 39.29321289 C37.63865733 37.27259958 37.62764196 35.2519068 37.60253906 33.23144531 C37.57040891 30.14208253 37.60224373 27.05795047 37.640625 23.96875 C37.63666 22.00259264 37.62897235 20.03643854 37.6171875 18.0703125 C37.62933289 17.14935791 37.64147827 16.22840332 37.6539917 15.27954102 C37.55402362 10.7106059 37.28803714 8.7207426 34.37036133 5.05322266 C30.28096272 2.29588778 26.01077847 2.413178 21.22265625 2.46875 C19.8548275 2.46157455 19.8548275 2.46157455 18.45936584 2.45425415 C16.53889228 2.45086336 14.61836035 2.46000821 12.69799805 2.48095703 C9.76285011 2.50776649 6.83151508 2.48116667 3.89648438 2.44921875 C2.02603325 2.45252239 0.1555845 2.45892768 -1.71484375 2.46875 C-2.58891373 2.45862885 -3.4629837 2.44850769 -4.36354065 2.43807983 C-8.49187487 2.51731947 -10.68011508 2.81566619 -14.22973633 5.0690918 Z " fill="#1084B9" transform="translate(70.1796875,39.8671875)"/>
<path d="M0 0 C1.22589844 0.01353516 1.22589844 0.01353516 2.4765625 0.02734375 C3.41628906 0.04474609 3.41628906 0.04474609 4.375 0.0625 C3.84915924 6.16225276 3.26632346 11.60925585 -1.6875 15.8125 C-3.93516632 18.42269314 -4.04886625 19.77668941 -4.5625 23.125 C-5.3420765 27.80935792 -5.3420765 27.80935792 -8 30.1875 C-10.625 31.0625 -10.625 31.0625 -14.625 31.0625 C-14.66238281 30.44761719 -14.69976562 29.83273438 -14.73828125 29.19921875 C-14.83689453 27.98685547 -14.83689453 27.98685547 -14.9375 26.75 C-14.99550781 25.94949219 -15.05351563 25.14898437 -15.11328125 24.32421875 C-15.72896652 21.60298386 -16.3634203 20.67791407 -18.625 19.0625 C-20.89661255 18.48926193 -20.89661255 18.48926193 -23.3125 18.375 C-24.52486328 18.27638672 -24.52486328 18.27638672 -25.76171875 18.17578125 C-26.37660156 18.13839844 -26.99148437 18.10101563 -27.625 18.0625 C-27.12121607 13.65439062 -25.90260318 11.08797986 -22.625 8.0625 C-20.68396193 7.83604556 -18.73998115 7.61716183 -16.7890625 7.50390625 C-13.29060425 6.79032181 -10.99095499 4.67651848 -8.2890625 2.4375 C-5.43820692 0.08186346 -3.62122138 -0.05173173 0 0 Z " fill="#BDD3DC" transform="translate(93.625,52.9375)"/>
<path d="M0 0 C2 0.75 2 0.75 4 3.75 C4.07905064 6.08199388 4.08798769 8.41832622 4 10.75 C4.66 10.75 5.32 10.75 6 10.75 C6.33 9.76 6.66 8.77 7 7.75 C8.125 15.375 8.125 15.375 7 18.75 C6.67 18.75 6.34 18.75 6 18.75 C6.06900513 19.71655518 6.06900513 19.71655518 6.1394043 20.70263672 C6.34089933 23.67581977 6.51432515 26.65003829 6.6875 29.625 C6.76033203 30.63820313 6.83316406 31.65140625 6.90820312 32.6953125 C7.2902484 39.70696691 7.39655948 47.81015063 2.54541016 53.43725586 C-2.06249156 57.37839014 -4.93330439 57.8873528 -10.875 57.875 C-12.10992187 57.87757812 -13.34484375 57.88015625 -14.6171875 57.8828125 C-18 57.75 -18 57.75 -19.89990234 57.26147461 C-22.29314936 56.67860406 -24.52390618 56.53861376 -26.984375 56.43359375 C-28.38623047 56.37075195 -28.38623047 56.37075195 -29.81640625 56.30664062 C-31.26853516 56.24766602 -31.26853516 56.24766602 -32.75 56.1875 C-34.22533203 56.12272461 -34.22533203 56.12272461 -35.73046875 56.05664062 C-38.15351275 55.95077948 -40.5766554 55.84869829 -43 55.75 C-43 55.42 -43 55.09 -43 54.75 C-41.26713745 54.73598145 -41.26713745 54.73598145 -39.49926758 54.72167969 C-35.20314318 54.6817339 -30.90773144 54.61596254 -26.61206055 54.54248047 C-24.75473197 54.51429741 -22.89728405 54.4930696 -21.03979492 54.47900391 C-18.36575339 54.45753716 -15.69314265 54.41086931 -13.01953125 54.359375 C-12.19226028 54.35814636 -11.36498932 54.35691772 -10.51264954 54.35565186 C-6.81887759 54.26232387 -4.3564229 53.91783174 -0.9777832 52.3269043 C2.04634744 48.38668718 1.71698645 44.75285522 1.6640625 39.91015625 C1.66884613 38.95104843 1.67362976 37.99194061 1.67855835 37.00376892 C1.68195784 34.97718667 1.67275196 32.95054963 1.65185547 30.92407227 C1.62511986 27.82638783 1.65158642 24.73233648 1.68359375 21.63476562 C1.68028909 19.66405452 1.67388168 17.69334567 1.6640625 15.72265625 C1.67418365 14.79856461 1.68430481 13.87447296 1.69473267 12.92237854 C1.59831751 7.20134349 1.59831751 7.20134349 -1.54150391 2.62670898 C-2.35280762 2.00739502 -3.16411133 1.38808105 -4 0.75 C-2 -0.25 -2 -0.25 0 0 Z " fill="#117CB5" transform="translate(105,42.25)"/>
<path d="M0 0 C0.79921875 0.01804688 1.5984375 0.03609375 2.421875 0.0546875 C3.02515625 0.07789063 3.6284375 0.10109375 4.25 0.125 C3.72415924 6.22475276 3.14132346 11.67175585 -1.8125 15.875 C-4.06016632 18.48519314 -4.17386625 19.83918941 -4.6875 23.1875 C-5.4670765 27.87185792 -5.4670765 27.87185792 -8.125 30.25 C-10.75 31.125 -10.75 31.125 -14.75 31.125 C-14.75 29.145 -14.75 27.165 -14.75 25.125 C-14.09 24.795 -13.43 24.465 -12.75 24.125 C-12.75 25.115 -12.75 26.105 -12.75 27.125 C-10.7337767 26.40936734 -10.7337767 26.40936734 -8.75 25.125 C-7.94471111 23.07499129 -7.94471111 23.07499129 -7.75 21.125 C-8.74 20.795 -9.73 20.465 -10.75 20.125 C-10.0075 19.403125 -9.265 18.68125 -8.5 17.9375 C-3.76209281 13.0919131 -1.28966758 9.66858721 0.25 3.125 C-1.04217171 3.60280303 -2.33372046 4.08229106 -3.625 4.5625 C-4.34429687 4.82933594 -5.06359375 5.09617187 -5.8046875 5.37109375 C-7.78648845 6.10416854 -7.78648845 6.10416854 -9.75 7.125 C-9.5 4.75 -9.5 4.75 -8.75 2.125 C-5.80248618 0.17753551 -3.48464831 -0.10248966 0 0 Z " fill="#EDF4F6" transform="translate(93.75,52.875)"/>
<path d="M0 0 C-0.25982474 6.36570608 -2.39223366 9.65586208 -7 14 C-10 16 -10 16 -12.6875 15.625 C-13.450625 15.41875 -14.21375 15.2125 -15 15 C-15.73046875 13.2890625 -15.73046875 13.2890625 -16 11 C-14.48828125 8.7109375 -14.48828125 8.7109375 -12.3125 6.375 C-11.60738281 5.59898438 -10.90226562 4.82296875 -10.17578125 4.0234375 C-6.64686639 0.74161004 -4.87663798 0 0 0 Z " fill="#1A6082" transform="translate(94,56)"/>
<path d="M0 0 C1.23180496 -0.01429802 1.23180496 -0.01429802 2.48849487 -0.02888489 C3.36772614 -0.02797348 4.2469574 -0.02706207 5.15283203 -0.02612305 C6.06517609 -0.03040817 6.97752014 -0.0346933 7.91751099 -0.03910828 C9.84571504 -0.04484557 11.77394073 -0.04535626 13.70214844 -0.04101562 C16.64311945 -0.0378606 19.58307944 -0.06130506 22.52392578 -0.08666992 C24.4002266 -0.08894356 26.27653011 -0.08964611 28.15283203 -0.08862305 C29.02801483 -0.09783279 29.90319763 -0.10704254 30.80490112 -0.11653137 C35.90046456 -0.0781762 39.32567461 0.52702249 43.78564453 3.2746582 C41.71010805 3.8281346 39.94198489 4.2746582 37.78564453 4.2746582 C37.78564453 3.6146582 37.78564453 2.9546582 37.78564453 2.2746582 C32.53868654 2.19999157 27.2920441 2.145814 22.04467773 2.10986328 C20.26304734 2.09486178 18.48145334 2.07445387 16.69995117 2.04833984 C14.12555918 2.01157311 11.55165924 1.99484536 8.97705078 1.98168945 C8.19229874 1.9662056 7.40754669 1.95072174 6.59901428 1.93476868 C0.99853818 1.93309914 -4.19715151 2.63778084 -9.21435547 5.2746582 C-12.20364195 9.31702088 -11.46723265 14.87438143 -11.40966797 19.73168945 C-11.40542313 21.08613411 -11.40542313 21.08613411 -11.40109253 22.46794128 C-11.38993154 25.34115055 -11.36483444 28.21404375 -11.33935547 31.0871582 C-11.32932039 33.03962765 -11.32019546 34.992102 -11.31201172 36.94458008 C-11.29000555 41.72139386 -11.25550378 46.49797251 -11.21435547 51.2746582 C-11.87435547 51.2746582 -12.53435547 51.2746582 -13.21435547 51.2746582 C-13.50702743 45.58322026 -13.75788242 39.89198721 -13.97119141 34.19702148 C-14.04940812 32.26261217 -14.13876708 30.3286184 -14.23974609 28.39526367 C-14.38347802 25.60542693 -14.48621802 22.81651863 -14.58154297 20.0246582 C-14.63438446 19.16912354 -14.68722595 18.31358887 -14.7416687 17.43212891 C-14.88695843 11.61139231 -13.54514467 8.40906344 -9.90457153 3.87719727 C-6.84137379 0.97289754 -4.18096208 0.0267864 0 0 Z " fill="#0F93CD" transform="translate(63.21435546875,38.725341796875)"/>
<path d="M0 0 C1.11375 1.175625 1.11375 1.175625 2.25 2.375 C5.89761178 5.85681125 8.4265305 7.22057573 13.45703125 7.34375 C14.74540894 7.38640991 14.74540894 7.38640991 16.05981445 7.42993164 C17.4223938 7.46461548 17.4223938 7.46461548 18.8125 7.5 C27.6601127 7.81207023 36.2558808 8.61652185 45 10 C43.94042969 11.50024414 43.94042969 11.50024414 42 13 C38.83300781 13.22045898 38.83300781 13.22045898 34.953125 12.99609375 C34.26369812 12.95694351 33.57427124 12.91779327 32.86395264 12.87745667 C31.40425111 12.79003661 29.94501481 12.6945283 28.48632812 12.59155273 C26.27285688 12.43907453 24.05952978 12.3222913 21.84375 12.20898438 C20.42173708 12.11934933 18.99985446 12.02761774 17.578125 11.93359375 C16.29325195 11.85165771 15.00837891 11.76972168 13.68457031 11.68530273 C8.57083946 10.73418674 3.11439238 8.39678924 0 4 C0 2.68 0 1.36 0 0 Z " fill="#1088C0" transform="translate(53,90)"/>
<path d="M0 0 C2 0.75 2 0.75 4 3.75 C4.07905064 6.08199388 4.08798769 8.41832622 4 10.75 C4.66 10.75 5.32 10.75 6 10.75 C6.33 9.76 6.66 8.77 7 7.75 C8.125 15.375 8.125 15.375 7 18.75 C6.67 18.75 6.34 18.75 6 18.75 C6.05329468 19.7558313 6.05329468 19.7558313 6.10766602 20.78198242 C6.26571836 23.83352736 6.41420082 26.88546617 6.5625 29.9375 C6.61857422 30.99259766 6.67464844 32.04769531 6.73242188 33.13476562 C6.78076172 34.15634766 6.82910156 35.17792969 6.87890625 36.23046875 C6.9260376 37.16785889 6.97316895 38.10524902 7.02172852 39.07104492 C6.99989432 41.76302932 6.61586406 44.13516976 6 46.75 C5.67 46.75 5.34 46.75 5 46.75 C4.97494385 46.18490723 4.9498877 45.61981445 4.92407227 45.03759766 C4.80820044 42.48316258 4.68543463 39.9291045 4.5625 37.375 C4.52318359 36.48554687 4.48386719 35.59609375 4.44335938 34.6796875 C4.38051758 33.40351562 4.38051758 33.40351562 4.31640625 32.1015625 C4.27974854 31.31604004 4.24309082 30.53051758 4.20532227 29.72119141 C4.109109 27.67476504 4.109109 27.67476504 3 25.75 C2.8002996 22.21086517 2.65446779 18.67830425 2.5703125 15.13476562 C2.33712591 9.54314546 1.21283873 6.12675271 -2.6875 1.9375 C-3.120625 1.545625 -3.55375 1.15375 -4 0.75 C-2 -0.25 -2 -0.25 0 0 Z " fill="#1181BD" transform="translate(105,42.25)"/>
<path d="M0 0 C2.9375 0.375 2.9375 0.375 4.9375 2.375 C4.9375 5.3125 4.9375 5.3125 3.9375 8.375 C0.25054792 10.88883097 -2.62387104 11.76664373 -7.0625 11.375 C-6.03986299 0.73957506 -6.03986299 0.73957506 0 0 Z " fill="#C8DBE2" transform="translate(71.0625,74.625)"/>
<path d="M0 0 C0.33 0 0.66 0 1 0 C1.06058594 1.20398437 1.12117188 2.40796875 1.18359375 3.6484375 C1.26799732 5.22397077 1.35264541 6.79949096 1.4375 8.375 C1.47681641 9.1690625 1.51613281 9.963125 1.55664062 10.78125 C1.68893404 15.02601221 1.68893404 15.02601221 3 19 C3.2630026 22.13969311 3.2314599 25.28799981 3.25 28.4375 C3.270625 29.30955078 3.29125 30.18160156 3.3125 31.08007812 C3.31765625 31.91861328 3.3228125 32.75714844 3.328125 33.62109375 C3.3374707 34.3886499 3.34681641 35.15620605 3.35644531 35.94702148 C3 38 3 38 0 41 C0 27.47 0 13.94 0 0 Z " fill="#1273AA" transform="translate(107,51)"/>
<path d="M0 0 C18.81 0.495 18.81 0.495 38 1 C35 4 35 4 31.76953125 4.1887207 C29.81080078 4.05856567 29.81080078 4.05856567 27.8125 3.92578125 C27.11358643 3.88188766 26.41467285 3.83799408 25.69458008 3.79277039 C24.21807564 3.69663564 22.74205833 3.59275052 21.26660156 3.48168945 C19.00931373 3.31319522 16.75151892 3.17127338 14.4921875 3.03320312 C3.43134885 2.2875659 3.43134885 2.2875659 0 0 Z " fill="#118DCD" transform="translate(60,99)"/>
<path d="M0 0 C0.79921875 0.01804688 1.5984375 0.03609375 2.421875 0.0546875 C3.02515625 0.07789063 3.6284375 0.10109375 4.25 0.125 C4.25 1.775 4.25 3.425 4.25 5.125 C3.59 4.465 2.93 3.805 2.25 3.125 C1.59 3.785 0.93 4.445 0.25 5.125 C0.25 4.465 0.25 3.805 0.25 3.125 C-1.04217171 3.60280303 -2.33372046 4.08229106 -3.625 4.5625 C-4.70394531 4.96275391 -4.70394531 4.96275391 -5.8046875 5.37109375 C-7.78648845 6.10416854 -7.78648845 6.10416854 -9.75 7.125 C-9.5 4.75 -9.5 4.75 -8.75 2.125 C-5.80248618 0.17753551 -3.48464831 -0.10248966 0 0 Z " fill="#DFEAEF" transform="translate(93.75,52.875)"/>
<path d="M0 0 C2.875 -0.125 2.875 -0.125 6 0 C6.66 0.66 7.32 1.32 8 2 C7.625 4.625 7.625 4.625 7 7 C5.68 7.33 4.36 7.66 3 8 C0 3.375 0 3.375 0 0 Z " fill="#ECF3F6" transform="translate(78,72)"/>
<path d="M0 0 C0.99 0 1.98 0 3 0 C3.66 1.98 4.32 3.96 5 6 C4.34 6 3.68 6 3 6 C2.67 6.66 2.34 7.32 2 8 C1.34 7.34 0.68 6.68 0 6 C-2.65537372 5.43479997 -5.29144713 5.26211802 -8 5 C-7.67 4.01 -7.34 3.02 -7 2 C-4.69 2.33 -2.38 2.66 0 3 C0 2.01 0 1.02 0 0 Z " fill="#EEF4F6" transform="translate(75,66)"/>
<path d="M0 0 C2.32590854 3.63423209 2.16265833 6.77088331 2 11 C1.01 11 0.02 11 -1 11 C-1.125 3.375 -1.125 3.375 0 0 Z " fill="#118CCB" transform="translate(111,50)"/>
<path d="M0 0 C-0.33 1.65 -0.66 3.3 -1 5 C-1.99 5.33 -2.98 5.66 -4 6 C-4 4.35 -4 2.7 -4 1 C-2 0 -2 0 0 0 Z " fill="#2A6B8C" transform="translate(86,74)"/>
</svg>
