<?xml version="1.0" encoding="UTF-8"?>
<svg version="1.1" xmlns="http://www.w3.org/2000/svg" width="167" height="141">
<path d="M0 0 C55.11 0 110.22 0 167 0 C167 46.53 167 93.06 167 141 C111.89 141 56.78 141 0 141 C0 94.47 0 47.94 0 0 Z " fill="#0F9CDC" transform="translate(0,0)"/>
<path d="M0 0 C1.34302437 -0.00855011 1.34302437 -0.00855011 2.71318054 -0.01727295 C4.61045142 -0.0267289 6.50773876 -0.03325929 8.4050293 -0.03710938 C11.30221405 -0.04680139 14.19868537 -0.07781331 17.09570312 -0.109375 C18.93879787 -0.11590643 20.78189769 -0.12115635 22.625 -0.125 C23.48974442 -0.1373468 24.35448883 -0.1496936 25.24543762 -0.16241455 C29.98602981 -0.14493706 33.19041358 0.07797568 37.01171875 3.203125 C39.03175045 6.23317254 39.2642147 6.82908921 39.28637695 10.22802734 C39.30067497 11.43475601 39.30067497 11.43475601 39.31526184 12.66586304 C39.31435043 13.53151886 39.31343903 14.39717468 39.3125 15.2890625 C39.31678513 16.18299713 39.32107025 17.07693176 39.32548523 17.99795532 C39.33122831 19.88925327 39.33172895 21.78057331 39.32739258 23.671875 C39.32423824 26.56028146 39.34767219 29.44765811 39.37304688 32.3359375 C39.37532049 34.17447788 39.37602308 36.013021 39.375 37.8515625 C39.38420975 38.71316986 39.39341949 39.57477722 39.40290833 40.4624939 C39.36680793 45.16161529 39.179168 48.46128177 36.01171875 52.203125 C33.21966575 53.87654605 31.11208839 54.46059999 27.87329102 54.50952148 C26.66667564 54.53350258 26.66667564 54.53350258 25.4356842 54.55796814 C24.57518967 54.56333084 23.71469513 54.56869354 22.828125 54.57421875 C21.48934547 54.58776146 21.48934547 54.58776146 20.1235199 54.60157776 C18.23822376 54.61606728 16.35287749 54.62496377 14.4675293 54.62866211 C11.58751671 54.64057002 8.70963945 54.68977621 5.83007812 54.74023438 C3.99610418 54.74969781 2.16211711 54.75693323 0.328125 54.76171875 C-0.53034531 54.78125107 -1.38881561 54.80078339 -2.27330017 54.82090759 C-6.70173362 54.78757913 -8.43143843 54.64750979 -12.00805664 51.79321289 C-15.42530303 47.32353383 -15.18024385 43.67517177 -15.2265625 38.21484375 C-15.23463425 37.31949417 -15.24270599 36.42414459 -15.25102234 35.50166321 C-15.26486555 33.60440001 -15.27558664 31.70711187 -15.28344727 29.80981445 C-15.30065171 26.91244106 -15.34453402 24.01621121 -15.38867188 21.11914062 C-15.39879957 19.27605006 -15.40731543 17.43294979 -15.4140625 15.58984375 C-15.43157059 14.72509933 -15.44907867 13.86035492 -15.46711731 12.96940613 C-15.45230421 8.84776848 -15.32980692 6.74626 -13.08666992 3.17895508 C-9.10609423 -0.56913091 -5.20502146 0.02540224 0 0 Z " fill="#165C80" transform="translate(70.98828125,43.796875)"/>
<path d="M0 0 C4.99543387 2.80935014 7.57024072 5.82583266 9.72265625 11.1171875 C10.68018513 16.69726958 9.54757518 21.19636098 6.72265625 26.1171875 C2.50676303 30.45018886 -0.87503768 33.25257566 -7.02734375 33.4296875 C-11.92965901 33.36620428 -14.52383867 32.43423851 -18.27734375 29.1171875 C-23.04708569 24.03637543 -24.70739386 20.72492936 -24.6171875 13.7890625 C-23.97007923 8.70145267 -21.50624299 5.11980255 -17.73828125 1.734375 C-12.40973759 -1.87691289 -5.96415581 -2.31200551 0 0 Z " fill="#196082" transform="translate(90.27734375,54.8828125)"/>
<path d="M0 0 C0.82310165 0.00187317 1.64620331 0.00374634 2.49424744 0.00567627 C4.22643107 0.01237102 5.95860024 0.02623396 7.69067383 0.046875 C10.33494205 0.07806718 12.97861271 0.08785547 15.62304688 0.09375 C17.31120515 0.10292004 18.99935739 0.11329581 20.6875 0.125 C21.86736229 0.13137482 21.86736229 0.13137482 23.07106018 0.13787842 C26.92244961 0.18781115 30.53232851 0.39850798 34.27734375 1.328125 C34.27734375 1.988125 34.27734375 2.648125 34.27734375 3.328125 C34.89150146 3.39870117 35.50565918 3.46927734 36.13842773 3.54199219 C38.27734375 4.328125 38.27734375 4.328125 39.52758789 6.27832031 C42.33115013 13.85490679 42.86720045 21.00999946 42.74389648 29.01806641 C42.71468093 31.08967034 42.72338289 33.15874231 42.73632812 35.23046875 C42.68938528 45.32159715 41.26432917 51.82989674 34.27734375 59.328125 C31.09489303 62.21527031 29.03120004 62.71161433 24.76171875 62.7265625 C23.68245117 62.73276611 22.60318359 62.73896973 21.49121094 62.74536133 C19.77659668 62.72445435 19.77659668 62.72445435 18.02734375 62.703125 C16.86106445 62.69369873 15.69478516 62.68427246 14.49316406 62.67456055 C-9.58997258 62.25628852 -9.58997258 62.25628852 -17.72265625 54.328125 C-19.00360436 50.48528067 -18.92436286 46.82766662 -18.9609375 42.8203125 C-18.96900925 41.98025665 -18.97708099 41.14020081 -18.98539734 40.27468872 C-18.99922748 38.49434464 -19.00995442 36.71397416 -19.01782227 34.93359375 C-19.02931057 33.1239437 -19.04971221 31.31432669 -19.0793457 29.50488281 C-19.12231514 26.88062675 -19.13823424 24.25737807 -19.1484375 21.6328125 C-19.16594559 20.83559784 -19.18345367 20.03838318 -19.20149231 19.2170105 C-19.17904766 13.30622435 -18.01920359 8.31201001 -14.72265625 3.328125 C-10.09798974 -0.16322897 -5.56511069 -0.08758048 0 0 Z M-15.72265625 7.328125 C-17.41937033 10.72155315 -16.90755781 14.58235012 -16.92578125 18.31640625 C-16.93148132 19.21175583 -16.9371814 20.10710541 -16.9430542 21.02958679 C-16.95251015 22.92685767 -16.95904054 24.82414501 -16.96289062 26.72143555 C-16.97258264 29.6186203 -17.00359456 32.51509162 -17.03515625 35.41210938 C-17.04168768 37.25520412 -17.0469376 39.09830394 -17.05078125 40.94140625 C-17.06312805 41.80615067 -17.07547485 42.67089508 -17.0881958 43.56184387 C-17.07071831 48.30243606 -16.84780557 51.50681983 -13.72265625 55.328125 C-10.69260871 57.3481567 -10.09669204 57.58062095 -6.69775391 57.6027832 C-5.89326813 57.61231522 -5.08878235 57.62184723 -4.25991821 57.63166809 C-3.39426239 57.63075668 -2.52860657 57.62984528 -1.63671875 57.62890625 C-0.2958168 57.63533394 -0.2958168 57.63533394 1.07217407 57.64189148 C2.96347202 57.64763456 4.85479206 57.6481352 6.74609375 57.64379883 C9.63450021 57.64064449 12.52187686 57.66407844 15.41015625 57.68945312 C17.24869663 57.69172674 19.08723975 57.69242933 20.92578125 57.69140625 C22.21819229 57.70522087 22.21819229 57.70522087 23.53671265 57.71931458 C28.23583404 57.68321418 31.53550052 57.49557425 35.27734375 54.328125 C36.9507648 51.536072 37.53481874 49.42849464 37.58374023 46.18969727 C37.59972763 45.38528702 37.61571503 44.58087677 37.63218689 43.75209045 C37.63754959 42.89159592 37.64291229 42.03110138 37.6484375 41.14453125 C37.65746597 40.25201157 37.66649445 39.35949188 37.67579651 38.43992615 C37.69028603 36.55463001 37.69918252 34.66928374 37.70288086 32.78393555 C37.71478877 29.90392296 37.76399496 27.0260457 37.81445312 24.14648438 C37.82391656 22.31251043 37.83115198 20.47852336 37.8359375 18.64453125 C37.85546982 17.78606094 37.87500214 16.92759064 37.89512634 16.04310608 C37.86179788 11.61467263 37.72172854 9.88496782 34.86743164 6.30834961 C30.39775258 2.89110322 26.74939052 3.1361624 21.2890625 3.08984375 C19.94603813 3.07773613 19.94603813 3.07773613 18.57588196 3.06538391 C16.67861876 3.0515407 14.78133062 3.04081961 12.8840332 3.03295898 C9.98665981 3.01575454 7.09042996 2.97187223 4.19335938 2.92773438 C2.35026881 2.91760668 0.50716854 2.90909082 -1.3359375 2.90234375 C-2.20068192 2.88483566 -3.06542633 2.86732758 -3.95637512 2.84928894 C-9.14869245 2.86795005 -11.98472627 3.35833528 -15.72265625 7.328125 Z " fill="#1181BE" transform="translate(72.72265625,40.671875)"/>
<path d="M0 0 C4.99543387 2.80935014 7.57024072 5.82583266 9.72265625 11.1171875 C10.68018513 16.69726958 9.54757518 21.19636098 6.72265625 26.1171875 C2.50676303 30.45018886 -0.87503768 33.25257566 -7.02734375 33.4296875 C-11.92965901 33.36620428 -14.52383867 32.43423851 -18.27734375 29.1171875 C-23.04708569 24.03637543 -24.70739386 20.72492936 -24.6171875 13.7890625 C-23.97007923 8.70145267 -21.50624299 5.11980255 -17.73828125 1.734375 C-12.40973759 -1.87691289 -5.96415581 -2.31200551 0 0 Z M-19.27734375 8.1171875 C-21.50838955 11.89736476 -21.65638888 14.72026404 -21.27734375 19.1171875 C-19.28890258 24.45458223 -16.37066727 27.57052574 -11.27734375 30.1171875 C-6.03425806 30.52050178 -2.71606822 29.97769883 1.72265625 27.1171875 C5.12390508 23.44016173 6.56097942 20.83096187 7.03515625 15.8046875 C6.59577162 10.61994889 4.52511904 7.70116995 0.66015625 4.3046875 C-7.11557227 -0.46108159 -13.75642001 1.61145034 -19.27734375 8.1171875 Z " fill="#E7EEF2" transform="translate(90.27734375,54.8828125)"/>
<path d="M0 0 C0.33 0 0.66 0 1 0 C1.01981934 1.22106445 1.03963867 2.44212891 1.06005859 3.70019531 C1.13616123 8.23279354 1.22487161 12.7650727 1.31738281 17.29736328 C1.35565327 19.2585622 1.39050954 21.21983084 1.421875 23.18115234 C1.4675674 26.00122997 1.525555 28.82082838 1.5859375 31.640625 C1.60326431 32.95489471 1.60326431 32.95489471 1.62094116 34.29571533 C1.64081085 35.11626404 1.66068054 35.93681274 1.68115234 36.78222656 C1.69447601 37.50170471 1.70779968 38.22118286 1.7215271 38.96246338 C2.24885126 42.82080038 3.6486651 44.69955151 6.58911133 47.21411133 C10.8086357 49.42338917 13.89275235 49.58583742 18.57421875 49.57421875 C19.78269218 49.59546562 19.78269218 49.59546562 21.01557922 49.61714172 C23.57302405 49.65885259 26.12976378 49.67424748 28.6875 49.6875 C31.2556205 49.71659302 33.82356493 49.75114548 36.39155579 49.78999329 C37.98521439 49.81241468 39.57898196 49.82827416 41.17277527 49.83683777 C44.37374664 49.86806054 46.94118266 49.98039422 50 51 C46.89513841 54.10486159 43.63297284 53.29250473 39.38964844 53.3293457 C37.64989746 53.32100708 37.64989746 53.32100708 35.875 53.3125 C34.1120459 53.30512817 34.1120459 53.30512817 32.31347656 53.29760742 C8.18019767 52.97448264 8.18019767 52.97448264 0 45 C-1.30466446 41.08600663 -1.1427824 37.36027995 -1.1328125 33.28125 C-1.13376923 32.42696411 -1.13472595 31.57267822 -1.13571167 30.69250488 C-1.13639193 28.88696214 -1.13454835 27.08141694 -1.13037109 25.27587891 C-1.12502068 22.51068636 -1.13032127 19.74565624 -1.13671875 16.98046875 C-1.13605794 15.22656214 -1.13477672 13.47265563 -1.1328125 11.71875 C-1.13483673 10.89056763 -1.13686096 10.06238525 -1.13894653 9.20910645 C-1.12536316 5.88712618 -1.05782192 3.17346575 0 0 Z " fill="#0F85BD" transform="translate(55,50)"/>
<path d="M0 0 C2.20974776 -0.00219439 4.41900191 -0.02040807 6.62866211 -0.03930664 C8.04337396 -0.0422398 9.45808816 -0.04422511 10.87280273 -0.04516602 C12.7871814 -0.05132935 12.7871814 -0.05132935 14.74023438 -0.05761719 C18.00146501 0.17471076 20.22643306 0.77632206 23.15014648 2.18530273 C19.92032592 3.80021302 16.39716641 3.26317375 12.85327148 3.21264648 C11.1553569 3.19999355 9.45744012 3.18763308 7.75952148 3.17553711 C5.08236852 3.1507759 2.40532975 3.12286762 -0.27172852 3.08935547 C-2.85506898 3.05902224 -5.43826595 3.04133269 -8.02172852 3.02514648 C-8.81569031 3.01168686 -9.6096521 2.99822723 -10.42767334 2.98435974 C-14.92812707 2.96418952 -18.69554519 3.22944947 -22.84985352 5.18530273 C-27.26865969 13.54240524 -26.41213967 23.51350663 -26.53735352 32.74780273 C-26.57057621 34.44118776 -26.60507034 36.13454834 -26.64086914 37.82788086 C-26.72520673 41.94688561 -26.79228092 46.0658405 -26.84985352 50.18530273 C-31.89535315 45.1398031 -30.11260031 34.48386606 -30.16235352 27.81030273 C-30.19135742 26.52124023 -30.22036133 25.23217773 -30.25024414 23.90405273 C-30.2995733 16.5122685 -29.99474426 11.39889121 -25.84985352 5.18530273 C-18.39462433 -1.13543506 -9.25269916 -0.00103071 0 0 Z " fill="#0F93D0" transform="translate(80.849853515625,38.814697265625)"/>
<path d="M0 0 C0.99 0.33 1.98 0.66 3 1 C3.33 3.31 3.66 5.62 4 8 C5.32 7.34 6.64 6.68 8 6 C8 10 8 10 6.6875 11.703125 C6.130625 12.21359375 5.57375 12.7240625 5 13.25 C4.443125 13.77078125 3.88625 14.2915625 3.3125 14.828125 C2.6628125 15.40820312 2.6628125 15.40820312 2 16 C-1.81684226 14.44499019 -4.19195732 11.96404505 -7 9 C-6.67 8.01 -6.34 7.02 -6 6 C-4.68 6.66 -3.36 7.32 -2 8 C-1.855625 6.865625 -1.71125 5.73125 -1.5625 4.5625 C-1 1 -1 1 0 0 Z " fill="#D3E1E7" transform="translate(82,63)"/>
<path d="M0 0 C0.99 0.33 1.98 0.66 3 1 C5.76667564 1.14206857 8.51283025 1.23333969 11.28125 1.28125 C12.0911438 1.29965942 12.9010376 1.31806885 13.73547363 1.33703613 C16.32357568 1.39575746 18.911743 1.4485904 21.5 1.5 C24.9063896 1.56765986 28.31256992 1.64132526 31.71875 1.71875 C32.50318481 1.73232544 33.28761963 1.74590088 34.0958252 1.7598877 C37.30493973 1.83329245 39.93498294 1.97832765 43 3 C39.89481445 6.10518555 36.63196043 5.29287036 32.38818359 5.328125 C31.22883301 5.32296875 30.06948242 5.3178125 28.875 5.3125 C27.70404785 5.31121094 26.5330957 5.30992188 25.32666016 5.30859375 C16.24038253 5.20848327 7.80691652 4.23498788 -1 2 C-0.67 1.34 -0.34 0.68 0 0 Z " fill="#128ACB" transform="translate(62,98)"/>
<path d="M0 0 C1.29099609 0.00837891 2.58199219 0.01675781 3.91210938 0.02539062 C5.27343927 0.05460511 6.63476739 0.08390244 7.99609375 0.11328125 C9.33006427 0.12478519 10.66405081 0.13456663 11.99804688 0.14257812 C19.5207224 0.22835975 26.95629296 0.59214009 34.43359375 1.42578125 C34.43359375 1.75578125 34.43359375 2.08578125 34.43359375 2.42578125 C32.66314697 2.43194458 32.66314697 2.43194458 30.85693359 2.43823242 C26.46196308 2.46006653 22.0678824 2.51440035 17.67333984 2.57836914 C15.7743383 2.60151191 13.87520909 2.61593611 11.97607422 2.62133789 C9.23975405 2.63065485 6.5054316 2.67170356 3.76953125 2.71875 C2.50355606 2.71285103 2.50355606 2.71285103 1.21200562 2.70683289 C-4.73919346 2.85288905 -7.382216 4.17353133 -11.56640625 8.42578125 C-10.59054216 1.59473265 -6.37918776 -0.07978944 0 0 Z " fill="#0F83B9" transform="translate(67.56640625,41.57421875)"/>
<path d="M0 0 C0.33 1.32 0.66 2.64 1 4 C-0.28627711 5.17260611 -1.57919783 6.3379283 -2.875 7.5 C-3.59429687 8.1496875 -4.31359375 8.799375 -5.0546875 9.46875 C-7 11 -7 11 -9 11 C-8.66579964 7.88079662 -8.05211466 7.04525746 -5.625 4.9375 C-4.75875 4.298125 -3.8925 3.65875 -3 3 C-1.9826127 2.01769502 -0.97403883 1.02530403 0 0 Z " fill="#EEF3F6" transform="translate(97,76)"/>
<path d="M0 0 C-1.485 5.445 -1.485 5.445 -3 11 C-3.66 11 -4.32 11 -5 11 C-5.36717663 3.5340751 -5.36717663 3.5340751 -3.625 1 C-2 0 -2 0 0 0 Z " fill="#F2F6F8" transform="translate(72,61)"/>
<path d="M0 0 C0.66 0.33 1.32 0.66 2 1 C0.8125 3.4375 0.8125 3.4375 -1 6 C-3.6875 6.8125 -3.6875 6.8125 -6 7 C-4.60667426 3.63279613 -3.0210714 2.0140476 0 0 Z " fill="#DDE8EC" transform="translate(75,55)"/>
</svg>
