<?xml version="1.0" encoding="UTF-8"?>
<svg version="1.1" xmlns="http://www.w3.org/2000/svg" width="382" height="288">
<path d="M0 0 C126.06 0 252.12 0 382 0 C382 95.04 382 190.08 382 288 C255.94 288 129.88 288 0 288 C0 192.96 0 97.92 0 0 Z " fill="#FFFFFF" transform="translate(0,0)"/>
<path d="M0 0 C2.140625 1.390625 2.140625 1.390625 4 4 C4.49839195 7.42796413 4.37579925 10.79535912 4.25 14.25 C4.23195313 15.18585938 4.21390625 16.12171875 4.1953125 17.0859375 C4.14826909 19.39106438 4.07652778 21.69566354 4 24 C6.97 24 9.94 24 13 24 C12.95359375 22.60265625 12.9071875 21.2053125 12.859375 19.765625 C12.82185418 17.92710471 12.78545435 16.0885613 12.75 14.25 C12.71648437 13.32960938 12.68296875 12.40921875 12.6484375 11.4609375 C12.54950346 4.63448881 12.54950346 4.63448881 14.85546875 1.38671875 C17.51911873 -0.33567787 18.88586152 -0.55894793 22 0 C23.6340332 1.20825195 23.6340332 1.20825195 25 3 C25.34057617 5.36010742 25.34057617 5.36010742 25.29296875 8.10546875 C25.28330078 9.08837891 25.27363281 10.07128906 25.26367188 11.08398438 C25.23853516 12.10814453 25.21339844 13.13230469 25.1875 14.1875 C25.16719727 15.74114258 25.16719727 15.74114258 25.14648438 17.32617188 C25.11111805 19.88433612 25.05731096 22.44223329 25 25 C28.3 25 31.6 25 35 25 C34.94779297 22.67001953 34.94779297 22.67001953 34.89453125 20.29296875 C34.8663956 18.25782329 34.8390952 16.22266617 34.8125 14.1875 C34.78736328 13.16333984 34.76222656 12.13917969 34.73632812 11.08398438 C34.72666016 10.10107422 34.71699219 9.11816406 34.70703125 8.10546875 C34.6913208 7.19949951 34.67561035 6.29353027 34.65942383 5.36010742 C35 3 35 3 36.2956543 1.1730957 C38 0 38 0 41.5625 0.125 C45 1 45 1 47 4 C47.22705078 6.26831055 47.22705078 6.26831055 47.1953125 8.88671875 C47.18886719 9.82451172 47.18242187 10.76230469 47.17578125 11.72851562 C47.15064453 13.19321289 47.15064453 13.19321289 47.125 14.6875 C47.11597656 15.67556641 47.10695313 16.66363281 47.09765625 17.68164062 C47.07408566 20.12119706 47.03821469 22.56062901 47 25 C50.3 25 53.6 25 57 25 C56.94779297 22.67001953 56.94779297 22.67001953 56.89453125 20.29296875 C56.8663956 18.25782329 56.8390952 16.22266617 56.8125 14.1875 C56.78736328 13.16333984 56.76222656 12.13917969 56.73632812 11.08398438 C56.72666016 10.10107422 56.71699219 9.11816406 56.70703125 8.10546875 C56.6913208 7.19949951 56.67561035 6.29353027 56.65942383 5.36010742 C57 3 57 3 58.3659668 1.20825195 C60 0 60 0 62.4375 -0.4375 C66.00693429 0.17191561 66.89266346 1.03198285 69 4 C69.49796983 7.42805315 69.3758007 10.79531911 69.25 14.25 C69.23195312 15.18585938 69.21390625 16.12171875 69.1953125 17.0859375 C69.14825673 19.39167015 69.08253713 21.69530945 69 24 C69.83402344 23.94199219 70.66804687 23.88398437 71.52734375 23.82421875 C79.25643899 23.51434666 84.92658539 23.92616821 91 29 C95.78732902 34.25915712 97.1319179 38.67629201 97.0625 45.6875 C97.05347656 46.86699219 97.04445313 48.04648438 97.03515625 49.26171875 C97.01775391 50.61716797 97.01775391 50.61716797 97 52 C98.31355469 51.95359375 99.62710938 51.9071875 100.98046875 51.859375 C102.71612304 51.82184734 104.45180199 51.78544825 106.1875 51.75 C107.05181641 51.71648437 107.91613281 51.68296875 108.80664062 51.6484375 C113.0255624 51.5837797 115.37723538 51.63092503 119.078125 53.82421875 C121 56 121 56 121.5625 59.0625 C121 62 121 62 119.26269531 63.6652832 C116.65474525 65.20365858 115.23618231 65.35069581 112.234375 65.29296875 C111.34492188 65.28330078 110.45546875 65.27363281 109.5390625 65.26367188 C108.15847656 65.2259668 108.15847656 65.2259668 106.75 65.1875 C105.81414062 65.17396484 104.87828125 65.16042969 103.9140625 65.14648438 C101.60912779 65.11120476 99.30448995 65.05739966 97 65 C97 67.97 97 70.94 97 74 C99.09601563 73.94779297 99.09601563 73.94779297 101.234375 73.89453125 C103.07290464 73.86639049 104.91144729 73.83909064 106.75 73.8125 C107.67039062 73.78736328 108.59078125 73.76222656 109.5390625 73.73632812 C110.87324219 73.72182617 110.87324219 73.72182617 112.234375 73.70703125 C113.05131836 73.6913208 113.86826172 73.67561035 114.70996094 73.65942383 C117.57420224 74.08539575 118.9246094 75.00616348 121 77 C121.58607467 80.44318866 121.50135041 82.21558377 119.609375 85.17578125 C115.54503226 88.01717056 111.57676269 87.42576447 106.75 87.25 C105.81414062 87.23195313 104.87828125 87.21390625 103.9140625 87.1953125 C101.60893562 87.14826909 99.30433646 87.07652778 97 87 C97 89.97 97 92.94 97 96 C99.09601563 95.94779297 99.09601563 95.94779297 101.234375 95.89453125 C103.07290464 95.86639049 104.91144729 95.83909064 106.75 95.8125 C107.67039062 95.78736328 108.59078125 95.76222656 109.5390625 95.73632812 C110.87324219 95.72182617 110.87324219 95.72182617 112.234375 95.70703125 C113.05131836 95.6913208 113.86826172 95.67561035 114.70996094 95.65942383 C117.57578897 96.08563173 118.92760744 96.99986619 121 99 C121.45566142 102.12453548 121.6851041 104.05353471 119.79174805 106.66918945 C117.38583528 108.45616731 115.87076725 108.34457978 112.89453125 108.29296875 C111.91162109 108.28330078 110.92871094 108.27363281 109.91601562 108.26367188 C108.89185547 108.23853516 107.86769531 108.21339844 106.8125 108.1875 C105.25885742 108.16719727 105.25885742 108.16719727 103.67382812 108.14648438 C101.11566388 108.11111805 98.55776671 108.05731096 96 108 C96 111.3 96 114.6 96 118 C97.55332031 117.96519531 99.10664063 117.93039063 100.70703125 117.89453125 C102.74217671 117.8663956 104.77733383 117.8390952 106.8125 117.8125 C107.83666016 117.78736328 108.86082031 117.76222656 109.91601562 117.73632812 C110.89892578 117.72666016 111.88183594 117.71699219 112.89453125 117.70703125 C113.80050049 117.6913208 114.70646973 117.67561035 115.63989258 117.65942383 C118 118 118 118 119.79174805 119.33081055 C121.6851041 121.94646529 121.45566142 123.87546452 121 127 C118.92760744 129.00013381 117.57578897 129.91436827 114.70996094 130.34057617 C113.4845459 130.3170105 113.4845459 130.3170105 112.234375 130.29296875 C111.34492188 130.28330078 110.45546875 130.27363281 109.5390625 130.26367188 C108.61867188 130.23853516 107.69828125 130.21339844 106.75 130.1875 C105.81414062 130.17396484 104.87828125 130.16042969 103.9140625 130.14648438 C101.60878673 130.11119954 99.3046894 130.06190281 97 130 C97.04640625 130.76183594 97.0928125 131.52367187 97.140625 132.30859375 C97.41221711 140.07806817 96.88977308 146.54205782 91.609375 152.59375 C84.8439026 158.7182829 77.59594529 158.25036734 69 158 C69.01571045 158.58491211 69.0314209 159.16982422 69.04760742 159.77246094 C69.11010267 162.43154164 69.14903569 165.09046764 69.1875 167.75 C69.21263672 168.67039062 69.23777344 169.59078125 69.26367188 170.5390625 C69.27817383 171.87324219 69.27817383 171.87324219 69.29296875 173.234375 C69.31653442 174.45979004 69.31653442 174.45979004 69.34057617 175.70996094 C68.91205771 178.59132524 68.03771428 179.93689091 66 182 C62.4375 182.375 62.4375 182.375 59 182 C57 180 57 180 56.77294922 177.75341797 C56.78342285 176.84221191 56.79389648 175.93100586 56.8046875 174.9921875 C56.81113281 174.00605469 56.81757813 173.01992188 56.82421875 172.00390625 C56.84935547 170.45509766 56.84935547 170.45509766 56.875 168.875 C56.88402344 167.83472656 56.89304687 166.79445313 56.90234375 165.72265625 C56.92596133 163.14834003 56.96183316 160.57414162 57 158 C53.7 158 50.4 158 47 158 C47.03480469 159.48113281 47.06960937 160.96226562 47.10546875 162.48828125 C47.13360491 164.42967618 47.16090525 166.37108335 47.1875 168.3125 C47.21263672 169.28896484 47.23777344 170.26542969 47.26367188 171.27148438 C47.27333984 172.20927734 47.28300781 173.14707031 47.29296875 174.11328125 C47.3086792 174.97735596 47.32438965 175.84143066 47.34057617 176.73168945 C47 179 47 179 45.7043457 180.78198242 C42.87401239 182.80469162 40.34439764 182.36484338 37 182 C34.83073341 178.74610012 34.75919951 177.86604043 34.8046875 174.11328125 C34.81113281 173.17548828 34.81757813 172.23769531 34.82421875 171.27148438 C34.84935547 169.80678711 34.84935547 169.80678711 34.875 168.3125 C34.88402344 167.32443359 34.89304687 166.33636719 34.90234375 165.31835938 C34.92591434 162.87880294 34.96178531 160.43937099 35 158 C31.7 158 28.4 158 25 158 C25.04640625 159.46953125 25.0928125 160.9390625 25.140625 162.453125 C25.17814483 164.38539635 25.21454476 166.31768967 25.25 168.25 C25.28351563 169.21808594 25.31703125 170.18617188 25.3515625 171.18359375 C25.45041573 178.3504531 25.45041573 178.3504531 23.14453125 181.67578125 C21 183 21 183 18.4375 182.9375 C15.80225862 181.92394562 14.72523002 181.20625931 13 179 C12.65942383 176.73168945 12.65942383 176.73168945 12.70703125 174.11328125 C12.71669922 173.17548828 12.72636719 172.23769531 12.73632812 171.27148438 C12.76146484 170.29501953 12.78660156 169.31855469 12.8125 168.3125 C12.83280273 166.83040039 12.83280273 166.83040039 12.85351562 165.31835938 C12.88887339 162.87867383 12.94268038 160.43926837 13 158 C9.7 158 6.4 158 3 158 C3.02320313 159.56492188 3.04640625 161.12984375 3.0703125 162.7421875 C3.08906723 164.78645358 3.10726775 166.8307248 3.125 168.875 C3.14175781 169.90753906 3.15851563 170.94007813 3.17578125 172.00390625 C3.18222656 172.99003906 3.18867188 173.97617187 3.1953125 174.9921875 C3.20578613 175.90339355 3.21625977 176.81459961 3.22705078 177.75341797 C3 180 3 180 1 182 C-2.4375 182.375 -2.4375 182.375 -6 182 C-8.03771428 179.93689091 -8.91205771 178.59132524 -9.34057617 175.70996094 C-9.32486572 174.89301758 -9.30915527 174.07607422 -9.29296875 173.234375 C-9.2784668 171.90019531 -9.2784668 171.90019531 -9.26367188 170.5390625 C-9.23853516 169.61867188 -9.21339844 168.69828125 -9.1875 167.75 C-9.16719727 166.34621094 -9.16719727 166.34621094 -9.14648438 164.9140625 C-9.11119954 162.60878673 -9.06190281 160.3046894 -9 158 C-9.85722656 158.03480469 -10.71445313 158.06960937 -11.59765625 158.10546875 C-25.27625027 158.4293137 -25.27625027 158.4293137 -30.6796875 153.453125 C-37.31632681 146.27666335 -37.27417769 139.41343405 -37 130 C-37.93066284 130.02356567 -37.93066284 130.02356567 -38.88012695 130.04760742 C-41.69082528 130.10996214 -44.50137812 130.14899148 -47.3125 130.1875 C-48.28896484 130.21263672 -49.26542969 130.23777344 -50.27148438 130.26367188 C-51.67817383 130.27817383 -51.67817383 130.27817383 -53.11328125 130.29296875 C-53.97735596 130.3086792 -54.84143066 130.32438965 -55.73168945 130.34057617 C-58 130 -58 130 -59.78198242 128.66918945 C-61.66806532 126.08447332 -61.38757492 124.10059936 -61 121 C-59.78198242 119.33081055 -59.78198242 119.33081055 -58 118 C-55.73168945 117.65942383 -55.73168945 117.65942383 -53.11328125 117.70703125 C-51.7065918 117.7215332 -51.7065918 117.7215332 -50.27148438 117.73632812 C-49.29501953 117.76146484 -48.31855469 117.78660156 -47.3125 117.8125 C-46.32443359 117.82603516 -45.33636719 117.83957031 -44.31835938 117.85351562 C-41.87867383 117.88887339 -39.43926837 117.94268038 -37 118 C-37 114.7 -37 111.4 -37 108 C-38.48113281 108.03480469 -39.96226563 108.06960937 -41.48828125 108.10546875 C-43.42967618 108.13360491 -45.37108335 108.16090525 -47.3125 108.1875 C-48.28896484 108.21263672 -49.26542969 108.23777344 -50.27148438 108.26367188 C-51.20927734 108.27333984 -52.14707031 108.28300781 -53.11328125 108.29296875 C-54.40939331 108.31653442 -54.40939331 108.31653442 -55.73168945 108.34057617 C-58 108 -58 108 -59.78198242 106.66918945 C-61.66806532 104.08447332 -61.38757492 102.10059936 -61 99 C-59.78198242 97.33081055 -59.78198242 97.33081055 -58 96 C-55.73168945 95.65942383 -55.73168945 95.65942383 -53.11328125 95.70703125 C-51.7065918 95.7215332 -51.7065918 95.7215332 -50.27148438 95.73632812 C-49.29501953 95.76146484 -48.31855469 95.78660156 -47.3125 95.8125 C-46.32443359 95.82603516 -45.33636719 95.83957031 -44.31835938 95.85351562 C-41.87867383 95.88887339 -39.43926837 95.94268038 -37 96 C-37 93.03 -37 90.06 -37 87 C-38.39734375 87.04640625 -39.7946875 87.0928125 -41.234375 87.140625 C-43.07289529 87.17814582 -44.9114387 87.21454565 -46.75 87.25 C-47.67039062 87.28351563 -48.59078125 87.31703125 -49.5390625 87.3515625 C-56.35580782 87.45035591 -56.35580782 87.45035591 -59.609375 85.17578125 C-61.50135041 82.21558377 -61.58607467 80.44318866 -61 77 C-58.13384128 74.24646921 -56.15941702 73.63154967 -52.234375 73.70703125 C-51.34492187 73.71669922 -50.45546875 73.72636719 -49.5390625 73.73632812 C-48.15847656 73.7740332 -48.15847656 73.7740332 -46.75 73.8125 C-45.81414062 73.82603516 -44.87828125 73.83957031 -43.9140625 73.85351562 C-41.60912779 73.88879524 -39.30448995 73.94260034 -37 74 C-37 71.03 -37 68.06 -37 65 C-39.09601563 65.05220703 -39.09601563 65.05220703 -41.234375 65.10546875 C-43.07290464 65.13360951 -44.91144729 65.16090936 -46.75 65.1875 C-47.67039062 65.21263672 -48.59078125 65.23777344 -49.5390625 65.26367188 C-50.42851563 65.27333984 -51.31796875 65.28300781 -52.234375 65.29296875 C-53.05131836 65.3086792 -53.86826172 65.32438965 -54.70996094 65.34057617 C-57.57420224 64.91460425 -58.9246094 63.99383652 -61 62 C-61.58607467 58.55681134 -61.50135041 56.78441623 -59.609375 53.82421875 C-55.54503226 50.98282944 -51.57676269 51.57423553 -46.75 51.75 C-45.34621094 51.77707031 -45.34621094 51.77707031 -43.9140625 51.8046875 C-41.60832985 51.85174327 -39.30469055 51.91746287 -37 52 C-37.04640625 51.154375 -37.0928125 50.30875 -37.140625 49.4375 C-37.39407424 41.47195236 -37.18078165 35.46713656 -31.57421875 29.4765625 C-26.41831632 24.86689262 -21.97676326 23.73784317 -15.1875 23.875 C-13.44533203 23.90207031 -13.44533203 23.90207031 -11.66796875 23.9296875 C-10.78753906 23.95289062 -9.90710938 23.97609375 -9 24 C-9.02094727 23.41508789 -9.04189453 22.83017578 -9.06347656 22.22753906 C-9.14680115 19.56853535 -9.19870897 16.90980645 -9.25 14.25 C-9.28351563 13.32960938 -9.31703125 12.40921875 -9.3515625 11.4609375 C-9.45052892 4.63225486 -9.45052892 4.63225486 -7.140625 1.390625 C-4.4416821 -0.36270287 -3.15818991 -0.63163798 0 0 Z " fill="#042859" transform="translate(161,93)"/>
<path d="M0 0 C1.13719482 0.00572021 2.27438965 0.01144043 3.44604492 0.01733398 C25.58938075 0.48293191 43.79798386 10.27065411 59.0625 26.1875 C66.87881595 35.20848113 75.375 48.3089842 75.375 60.5 C76.26960938 60.46519531 77.16421875 60.43039063 78.0859375 60.39453125 C93.66503792 60.04574542 106.82187706 64.82432943 118.375 75.5 C124.78339054 82.16707786 131.43716979 91.33497723 132.66796875 100.73828125 C133.26652968 102.80112065 133.26652968 102.80112065 135.9296875 103.73828125 C137.02539062 104.09277344 138.12109375 104.44726562 139.25 104.8125 C156.78611034 111.16145162 169.82336038 124.08936282 178.375 140.5 C185.65604396 156.44147036 187.67514321 177.56288107 181.70605469 194.38525391 C173.7549146 215.28325041 159.91251816 229.92517963 139.9375 239.875 C130.55235748 243.67790162 118.4696282 246.18243803 108.375 244.5 C106.56640625 243.19921875 106.56640625 243.19921875 105.375 241.5 C105.0625 237.9375 105.0625 237.9375 105.375 234.5 C108.14879452 231.72620548 109.99893218 232.20153287 113.875 232.0625 C120.14743941 231.6908948 125.51426897 230.73027819 131.375 228.5 C132.10976563 228.22285156 132.84453125 227.94570312 133.6015625 227.66015625 C148.61158223 221.48111986 160.18318201 211.64111474 166.6328125 196.55859375 C167.61379506 193.88814122 168.5170264 191.21217248 169.375 188.5 C169.90867187 187.17935547 169.90867187 187.17935547 170.453125 185.83203125 C173.99320444 173.03674413 172.22108059 158.25402446 166.375 146.5 C165.92898438 145.6028125 165.48296875 144.705625 165.0234375 143.78125 C157.66779868 130.4671328 147.21961298 122.18533076 133.375 116.5 C131.74673676 115.82026471 130.12164903 115.1328673 128.5 114.4375 C127.78070313 114.13714844 127.06140625 113.83679688 126.3203125 113.52734375 C122.94908524 111.74695666 121.65894338 110.33676375 120.41796875 106.6796875 C120.13566406 105.58914062 119.85335938 104.49859375 119.5625 103.375 C116.15541405 91.83445699 109.63410404 84.00333306 99.421875 77.66796875 C90.94400416 73.37880898 83.76823048 72.97449384 74.39550781 73.54492188 C67.87339641 73.87963789 67.87339641 73.87963789 65.375 71.9765625 C64.05938305 68.7183549 63.27929835 65.42632036 62.5625 62 C58.89643776 46.25182519 50.75620136 33.45564243 37.2578125 24.28125 C21.25215854 14.39157763 3.51280784 10.21947205 -15.1484375 14.37890625 C-32.84117872 19.11073389 -46.755688 30.8937057 -55.8359375 46.59375 C-59.66066096 53.84059445 -61.77358044 61.37564667 -63.09765625 69.43359375 C-63.625 71.5 -63.625 71.5 -65.625 73.5 C-67.6652832 73.64770508 -67.6652832 73.64770508 -70.17578125 73.51953125 C-71.09584961 73.48657959 -72.01591797 73.45362793 -72.96386719 73.41967773 C-73.94516602 73.38430908 -74.92646484 73.34894043 -75.9375 73.3125 C-87.96465876 73.1270635 -96.46253034 74.76341091 -106.0625 82.5625 C-112.41889682 88.78453396 -116.26522893 96.15128694 -117.625 104.9375 C-118.23014819 108.50559072 -118.582128 109.44810231 -121 112.375 C-124.74875884 115.00186751 -129.1376015 116.01102897 -133.46484375 117.3515625 C-147.85484632 122.58105664 -157.79185153 134.17179901 -164.13671875 147.73046875 C-171.23876431 164.43757305 -170.03643228 180.92068713 -163.375 197.63671875 C-156.94326788 211.9071244 -145.15151847 222.51229074 -130.62890625 228.1328125 C-123.20275515 230.74262771 -116.10599771 232.0732259 -108.19921875 232.26171875 C-105.625 232.5 -105.625 232.5 -102.625 234.5 C-101.97551546 240.45360825 -101.97551546 240.45360825 -103.6796875 243.19921875 C-106.65230222 245.186931 -109.67149641 244.94541435 -113.125 244.875 C-113.84623047 244.86339844 -114.56746094 244.85179687 -115.31054688 244.83984375 C-130.7604406 244.37124751 -146.25057209 236.84623103 -157.625 226.5 C-158.85283203 225.42685547 -158.85283203 225.42685547 -160.10546875 224.33203125 C-172.55280006 212.78859086 -180.87562498 196.08802817 -181.75048828 179.05712891 C-182.52404781 157.36247714 -178.52818026 139.9352829 -163.625 123.5 C-162.92503906 122.71882813 -162.22507813 121.93765625 -161.50390625 121.1328125 C-153.09804058 112.23248414 -143.15282964 106.51531145 -131.625 102.5 C-130.965 102.5 -130.305 102.5 -129.625 102.5 C-129.604375 101.283125 -129.58375 100.06625 -129.5625 98.8125 C-128.07592364 86.03597882 -118.94031918 76.46301546 -109.40625 68.69140625 C-98.24401094 60.58260577 -86.88983716 59.93420126 -73.625 60.5 C-73.51285156 59.32050781 -73.40070313 58.14101563 -73.28515625 56.92578125 C-71.86434336 45.69024 -65.55967989 36.15017722 -58.625 27.5 C-57.449375 25.9221875 -57.449375 25.9221875 -56.25 24.3125 C-41.60535849 8.62181267 -21.34273908 -0.12564844 0 0 Z " fill="#072B5B" transform="translate(189.625,4.5)"/>
<path d="M0 0 C0.99 0.66 1.98 1.32 3 2 C3.51715747 5.39846339 3.47446461 7.25422183 1.61328125 10.1796875 C-2.45539955 13.01377607 -6.42310789 12.42576918 -11.25 12.25 C-12.18585938 12.23195312 -13.12171875 12.21390625 -14.0859375 12.1953125 C-16.39167015 12.14825673 -18.69530945 12.08253713 -21 12 C-21 11.67 -21 11.34 -21 11 C-14.73 11 -8.46 11 -2 11 C-2 9.35 -2 7.7 -2 6 C-1.34 5.01 -0.68 4.02 0 3 C0 2.01 0 1.02 0 0 Z " fill="#324A74" transform="translate(279,168)"/>
<path d="M0 0 C0.66 0.66 1.32 1.32 2 2 C-0.31 4.31 -2.62 6.62 -5 9 C-5.66 8.67 -6.32 8.34 -7 8 C-7 7.34 -7 6.68 -7 6 C-6.38125 5.9175 -5.7625 5.835 -5.125 5.75 C-2.82618538 5.19392091 -2.82618538 5.19392091 -1.8125 3 C-1.544375 2.34 -1.27625 1.68 -1 1 C-0.67 0.67 -0.34 0.34 0 0 Z " fill="#0F2E65" transform="translate(147,30)"/>
<path d="M0 0 C0 1.32 0 2.64 0 4 C-2.64 4 -5.28 4 -8 4 C-2.7826087 0 -2.7826087 0 0 0 Z " fill="#15345F" transform="translate(160,11)"/>
<path d="M0 0 C0.66 0.33 1.32 0.66 2 1 C-0.475 4.465 -0.475 4.465 -3 8 C-3.33 6.68 -3.66 5.36 -4 4 C-2.68 3.34 -1.36 2.68 0 2 C0 1.34 0 0.68 0 0 Z " fill="#1A3A6A" transform="translate(361,215)"/>
</svg>
