<svg xmlns="http://www.w3.org/2000/svg" xmlns:xlink="http://www.w3.org/1999/xlink" width="400" height="400" viewBox="0 0 400 400">
<rect data-name="background" width="100%" height="100%" fill="#ffffff"></rect><g data-name="watermark" class="watermark-logodesign" stroke="#ffffff" transform="translate(10, 320) scale(1.5) rotate(-45)" style="opacity:0.040000010281801224;"><path fill="#000000" d="M22.92,19.2q3.04,1.68,4.8,4.7t1.76,6.78t-1.76,6.78t-4.8,4.7t-6.68,1.68t-6.7-1.68t-4.84-4.7t-1.78-6.78t1.78-6.78t4.84-4.7t6.7-1.68t6.68,1.68z M11.14,21.74q-2.26,1.3-3.54,3.62t-1.28,5.32t1.28,5.32t3.54,3.6t5.1,1.28t5.08-1.28t3.52-3.6t1.28-5.32t-1.28-5.32t-3.54-3.62t-5.06-1.3q-2.84,0-5.1,1.3z M21.4,24.76l-1.8,2.32q-0.72-0.56-1.4-0.78t-1.48-0.22q-1.44,0-2.3,1.1t-0.86,3.46q0,2.32,0.82,3.44t2.26,1.12q0.96,0,1.74-0.3t1.54-0.9l1.64,2.44q-2.24,2.04-5.2,2.04q-3.2,0-5.08-2.04t-1.88-5.8q0-2.4,0.9-4.16t2.48-2.7t3.54-0.94q2.92,0,5.08,1.92z M41.2,20.32l0,22.96l10.96,0l-0.64,4.72l-16.2,0l0-27.68l5.88,0z M71.92,29.14q2.68,2.98,2.68,8.26q0,3.36-1.22,5.9t-3.52,3.94t-5.42,1.4q-4.76,0-7.46-2.98t-2.7-8.26q0-3.36,1.22-5.9t3.52-3.94t5.46-1.4q4.76,0,7.44,2.98z M61.26,32.1q-1.06,1.7-1.06,5.3t1.06,5.3t3.18,1.7t3.18-1.7t1.06-5.3t-1.04-5.3t-3.16-1.7q-2.16,0-3.22,1.7z M97.88,27.96q-2.08,0.8-6.12,0.8q2,0.88,2.96,2.18t0.96,3.26q0,2.04-1.06,3.66t-3.04,2.54t-4.62,0.92q-1.4,0-2.48-0.28q-0.8,0.52-0.8,1.4q0,0.64,0.5,1.02t1.94,0.38l3.24,0q2.36,0,4.14,0.78t2.76,2.16t0.98,3.14q0,3.24-2.78,5.06t-8.02,1.82q-3.76,0-5.94-0.78t-3.06-2.26t-0.88-3.72l5.08,0q0,1.04,0.4,1.66t1.46,0.92t3.06,0.3q2.76,0,3.86-0.68t1.1-1.92q0-1.12-0.84-1.72t-2.48-0.6l-3.12,0q-3.16,0-4.72-1.18t-1.56-2.98q0-1.12,0.66-2.18t1.82-1.78q-1.96-1.08-2.86-2.54t-0.9-3.5q0-2.32,1.14-4.06t3.2-2.68t4.7-0.94q3.28,0.08,5.4-0.56t4.52-2z M84.14,30.98q-0.94,1.02-0.94,2.78q0,1.8,0.94,2.84t2.58,1.04q1.72,0,2.6-1t0.88-2.96q0-3.72-3.52-3.72q-1.6,0-2.54,1.02z M117.04,29.14q2.68,2.98,2.68,8.26q0,3.36-1.22,5.9t-3.52,3.94t-5.42,1.4q-4.76,0-7.46-2.98t-2.7-8.26q0-3.36,1.22-5.9t3.52-3.94t5.46-1.4q4.76,0,7.44,2.98z M106.38,32.1q-1.06,1.7-1.06,5.3t1.06,5.3t3.18,1.7t3.18-1.7t1.06-5.3t-1.04-5.3t-3.16-1.7q-2.16,0-3.22,1.7z M141.78,23.26q3.9,2.94,3.9,10.78q0,7.68-3.82,10.82t-9.78,3.14l-7.92,0l0-27.68l7.24,0q6.48,0,10.38,2.94z M130.04,24.64l0,19.04l2.4,0q3.4,0,5.26-2.1t1.86-7.54q0-3.76-0.94-5.84t-2.5-2.82t-3.8-0.74l-2.28,0z M167.84,39.12l-13.24,0q0.28,2.88,1.56,4.08t3.48,1.2q1.36,0,2.56-0.44t2.6-1.4l2.36,3.2q-3.56,2.88-8.04,2.88q-5,0-7.68-3t-2.68-8.12q0-3.24,1.14-5.82t3.32-4.06t5.18-1.48q4.52,0,7.04,2.84t2.52,7.92q0,0.4-0.12,2.2z M162.32,35.32q0-5.28-3.8-5.28q-1.76,0-2.74,1.3t-1.18,4.22l7.72,0l0-0.24z M186.8,28.72l-2.16,3.24q-2.68-1.68-5.28-1.68q-1.4,0-2.16,0.52t-0.76,1.4q0,0.64,0.34,1.08t1.28,0.84t2.82,0.96q3.36,0.92,5,2.46t1.64,4.22q0,2.12-1.22,3.68t-3.3,2.38t-4.64,0.82q-2.68,0-4.88-0.82t-3.76-2.26l2.8-3.12q2.68,2.08,5.68,2.08q1.6,0,2.54-0.62t0.94-1.7q0-0.84-0.36-1.32t-1.32-0.9t-3-0.98q-3.2-0.88-4.74-2.5t-1.54-4.02q0-1.8,1.04-3.24t2.94-2.26t4.42-0.82q4.48,0,7.68,2.56z M196.92,26.8l0,21.2l-5.68,0l0-21.2l5.68,0z M196.54,16.82q0.98,0.94,0.98,2.38t-0.98,2.38t-2.5,0.94t-2.48-0.94t-0.96-2.38t0.96-2.38t2.48-0.94t2.5,0.94z M221.48,27.96q-2.08,0.8-6.12,0.8q2,0.88,2.96,2.18t0.96,3.26q0,2.04-1.06,3.66t-3.04,2.54t-4.62,0.92q-1.4,0-2.48-0.28q-0.8,0.52-0.8,1.4q0,0.64,0.5,1.02t1.94,0.38l3.24,0q2.36,0,4.14,0.78t2.76,2.16t0.98,3.14q0,3.24-2.78,5.06t-8.02,1.82q-3.76,0-5.94-0.78t-3.06-2.26t-0.88-3.72l5.08,0q0,1.04,0.4,1.66t1.46,0.92t3.06,0.3q2.76,0,3.86-0.68t1.1-1.92q0-1.12-0.84-1.72t-2.48-0.6l-3.12,0q-3.16,0-4.72-1.18t-1.56-2.98q0-1.12,0.66-2.18t1.82-1.78q-1.96-1.08-2.86-2.54t-0.9-3.5q0-2.32,1.14-4.06t3.2-2.68t4.7-0.94q3.28,0.08,5.4-0.56t4.52-2z M207.74,30.98q-0.94,1.02-0.94,2.78q0,1.8,0.94,2.84t2.58,1.04q1.72,0,2.6-1t0.88-2.96q0-3.72-3.52-3.72q-1.6,0-2.54,1.02z M240.48,27.86q1.56,1.7,1.56,4.7l0,15.44l-5.68,0l0-14.48q0-1.72-0.58-2.42t-1.74-0.7q-1.2,0-2.18,0.74t-1.9,2.22l0,14.64l-5.68,0l0-21.2l4.92,0l0.44,2.68q1.32-1.64,2.9-2.48t3.58-0.84q2.8,0,4.36,1.7z M251.84,42.8q1,1,1,2.4t-1,2.42t-2.44,1.02q-1.4,0-2.4-1.02t-1-2.42t1-2.4t2.4-1q1.44,0,2.44,1z M271.8,48l-1.56-6.2l-8.68,0l-1.56,6.2l-6.12,0l8.52-27.68l7.16,0l8.48,27.68l-6.24,0z M262.68,37.44l6.44,0l-3.24-12.76z M286.48,20.32l0,27.68l-5.88,0l0-27.68l5.88,0z"></path></g><g data-name="icon" fill="#216a78" data="id:4296357" transform="translate(137.6, 112.56996765141425) scale(2.6)">
  <g transform="matrix(1,0,0,1,-77,-68)"><g><g transform="matrix(1,0,0,1,1,0)"><path d="M100,68C98.344,68 97,69.344 97,71C97,72.656 98.344,74 100,74C101.656,74 103,72.656 103,71C103,69.344 101.656,68 100,68ZM100,70C100.552,70 101,70.448 101,71C101,71.552 100.552,72 100,72C99.448,72 99,71.552 99,71C99,70.448 99.448,70 100,70Z"></path></g><g transform="matrix(1,0,0,1,9,0)"><path d="M100,68C98.344,68 97,69.344 97,71C97,72.656 98.344,74 100,74C101.656,74 103,72.656 103,71C103,69.344 101.656,68 100,68ZM100,70C100.552,70 101,70.448 101,71C101,71.552 100.552,72 100,72C99.448,72 99,71.552 99,71C99,70.448 99.448,70 100,70Z"></path></g><g transform="matrix(1,0,0,1,-15,0)"><path d="M100,68C98.344,68 97,69.344 97,71C97,72.656 98.344,74 100,74C101.656,74 103,72.656 103,71C103,69.344 101.656,68 100,68ZM100,70C100.552,70 101,70.448 101,71C101,71.552 100.552,72 100,72C99.448,72 99,71.552 99,71C99,70.448 99.448,70 100,70Z"></path></g><g transform="matrix(1,0,0,1,17,0)"><path d="M100,68C98.344,68 97,69.344 97,71C97,72.656 98.344,74 100,74C101.656,74 103,72.656 103,71C103,69.344 101.656,68 100,68ZM100,70C100.552,70 101,70.448 101,71C101,71.552 100.552,72 100,72C99.448,72 99,71.552 99,71C99,70.448 99.448,70 100,70Z"></path></g><g transform="matrix(1,0,0,1,-7,0)"><path d="M100,68C98.344,68 97,69.344 97,71C97,72.656 98.344,74 100,74C101.656,74 103,72.656 103,71C103,69.344 101.656,68 100,68ZM100,70C100.552,70 101,70.448 101,71C101,71.552 100.552,72 100,72C99.448,72 99,71.552 99,71C99,70.448 99.448,70 100,70Z"></path></g><path d="M100,73L100,82.591C100,83.143 100.448,83.591 101,83.591C101.552,83.591 102,83.143 102,82.591L102,73C102,72.448 101.552,72 101,72C100.448,72 100,72.448 100,73Z"></path><g transform="matrix(1,0,0,1,8,0)"><path d="M100,73L100,82.591C100,83.143 100.448,83.591 101,83.591C101.552,83.591 102,83.143 102,82.591L102,73C102,72.448 101.552,72 101,72C100.448,72 100,72.448 100,73Z"></path></g><g transform="matrix(1,0,0,1,-16,0)"><path d="M100,73L100,82.591C100,83.143 100.448,83.591 101,83.591C101.552,83.591 102,83.143 102,82.591L102,73C102,72.448 101.552,72 101,72C100.448,72 100,72.448 100,73Z"></path></g><g transform="matrix(1,0,0,1,16,0)"><path d="M100,73L100,82.591C100,83.143 100.448,83.591 101,83.591C101.552,83.591 102,83.143 102,82.591L102,73C102,72.448 101.552,72 101,72C100.448,72 100,72.448 100,73Z"></path></g><g transform="matrix(1,0,0,1,-8,0)"><path d="M100,73L100,82.591C100,83.143 100.448,83.591 101,83.591C101.552,83.591 102,83.143 102,82.591L102,73C102,72.448 101.552,72 101,72C100.448,72 100,72.448 100,73Z"></path></g><path d="M78,108L124,108C124.552,108 125,108.448 125,109L125,109C125,112.866 121.866,116 118,116L84,116C80.134,116 77,112.866 77,109L77,109C77,108.448 77.448,108 78,108ZM122.9,110L79.1,110C79.563,112.282 81.581,114 84,114L118,114C120.419,114 122.437,112.282 122.9,110Z"></path><g transform="matrix(1.55556,0,0,1.625,-56.8889,-69.75)"><path d="M115.643,95.231C115.643,94.211 114.779,93.385 113.714,93.385L89.286,93.385C88.221,93.385 87.357,94.211 87.357,95.231L87.357,110C87.357,110.34 87.645,110.615 88,110.615L115,110.615C115.355,110.615 115.643,110.34 115.643,110L115.643,95.231ZM114.357,95.231L114.357,109.385C114.357,109.385 88.643,109.385 88.643,109.385C88.643,109.385 88.643,95.231 88.643,95.231C88.643,94.891 88.931,94.615 89.286,94.615C89.286,94.615 113.714,94.615 113.714,94.615C114.069,94.615 114.357,94.891 114.357,95.231Z"></path></g><g transform="matrix(1,0,0,1,-16.3708,1)"><path d="M104,88.938L103.621,88.719C103.047,88.387 102.364,88.298 101.724,88.469C101.083,88.641 100.537,89.06 100.206,89.634C99.889,90.182 99.522,90.818 99.206,91.366C98.874,91.94 98.784,92.623 98.956,93.263C99.128,93.904 99.547,94.45 100.121,94.781C100.121,94.781 100.5,95 100.5,95C100.5,95 100.121,95.219 100.121,95.219C99.547,95.55 99.128,96.096 98.956,96.737C98.784,97.377 98.874,98.06 99.206,98.634C99.522,99.182 99.889,99.818 100.206,100.366C100.537,100.94 101.083,101.359 101.724,101.531C102.364,101.702 103.047,101.613 103.621,101.281C103.621,101.281 104,101.062 104,101.062C104,101.062 104,101.5 104,101.5C104,102.163 104.263,102.799 104.732,103.268C105.201,103.737 105.837,104 106.5,104L108.5,104C109.163,104 109.799,103.737 110.268,103.268C110.737,102.799 111,102.163 111,101.5C111,101.5 111,101.062 111,101.062C111,101.062 111.379,101.281 111.379,101.281C111.953,101.613 112.636,101.702 113.276,101.531C113.917,101.359 114.463,100.94 114.794,100.366C115.111,99.818 115.478,99.182 115.794,98.634C116.126,98.06 116.216,97.377 116.044,96.737C115.872,96.096 115.453,95.55 114.879,95.219C114.879,95.219 114.5,95 114.5,95C114.5,95 114.879,94.781 114.879,94.781C115.453,94.45 115.872,93.904 116.044,93.263C116.216,92.623 116.126,91.94 115.794,91.366C115.478,90.818 115.111,90.182 114.794,89.634C114.463,89.06 113.917,88.641 113.276,88.469C112.636,88.298 111.953,88.387 111.379,88.719C111.379,88.719 111,88.938 111,88.938C111,88.938 111,88.5 111,88.5C111,87.837 110.737,87.201 110.268,86.732C109.799,86.263 109.163,86 108.5,86L106.5,86C105.837,86 105.201,86.263 104.732,86.732C104.263,87.201 104,87.837 104,88.5L104,88.938ZM104.5,91.536C104.809,91.715 105.191,91.715 105.5,91.536C105.809,91.357 106,91.027 106,90.67L106,88.5C106,88.367 106.053,88.24 106.146,88.146C106.24,88.053 106.367,88 106.5,88L108.5,88C108.633,88 108.76,88.053 108.854,88.146C108.947,88.24 109,88.367 109,88.5L109,90.67C109,91.027 109.191,91.357 109.5,91.536C109.809,91.715 110.191,91.715 110.5,91.536L112.379,90.451C112.494,90.385 112.63,90.367 112.759,90.401C112.887,90.435 112.996,90.519 113.062,90.634C113.378,91.182 113.746,91.818 114.062,92.366C114.128,92.481 114.146,92.617 114.112,92.745C114.078,92.874 113.994,92.983 113.879,93.049C113.879,93.049 112,94.134 112,94.134C111.691,94.313 111.5,94.643 111.5,95C111.5,95.357 111.691,95.687 112,95.866L113.879,96.951C113.994,97.017 114.078,97.126 114.112,97.255C114.146,97.383 114.128,97.519 114.062,97.634C113.746,98.182 113.378,98.818 113.062,99.366C112.996,99.481 112.887,99.565 112.759,99.599C112.63,99.633 112.494,99.615 112.379,99.549C112.379,99.549 110.5,98.464 110.5,98.464C110.191,98.285 109.809,98.285 109.5,98.464C109.191,98.643 109,98.973 109,99.33L109,101.5C109,101.633 108.947,101.76 108.854,101.854C108.76,101.947 108.633,102 108.5,102L106.5,102C106.367,102 106.24,101.947 106.146,101.854C106.053,101.76 106,101.633 106,101.5L106,99.33C106,98.973 105.809,98.643 105.5,98.464C105.191,98.285 104.809,98.285 104.5,98.464L102.621,99.549C102.506,99.615 102.37,99.633 102.241,99.599C102.113,99.565 102.004,99.481 101.938,99.366C101.622,98.818 101.254,98.182 100.938,97.634C100.872,97.519 100.854,97.383 100.888,97.255C100.922,97.126 101.006,97.017 101.121,96.951C101.121,96.951 103,95.866 103,95.866C103.309,95.687 103.5,95.357 103.5,95C103.5,94.643 103.309,94.313 103,94.134L101.121,93.049C101.006,92.983 100.922,92.874 100.888,92.745C100.854,92.617 100.872,92.481 100.938,92.366C101.254,91.818 101.622,91.182 101.938,90.634C102.004,90.519 102.113,90.435 102.241,90.401C102.37,90.367 102.506,90.385 102.621,90.451C102.621,90.451 104.5,91.536 104.5,91.536Z"></path></g><g transform="matrix(1,0,0,1,3.37083,1)"><path d="M104,88.938L103.621,88.719C103.047,88.387 102.364,88.298 101.724,88.469C101.083,88.641 100.537,89.06 100.206,89.634C99.889,90.182 99.522,90.818 99.206,91.366C98.874,91.94 98.784,92.623 98.956,93.263C99.128,93.904 99.547,94.45 100.121,94.781C100.121,94.781 100.5,95 100.5,95C100.5,95 100.121,95.219 100.121,95.219C99.547,95.55 99.128,96.096 98.956,96.737C98.784,97.377 98.874,98.06 99.206,98.634C99.522,99.182 99.889,99.818 100.206,100.366C100.537,100.94 101.083,101.359 101.724,101.531C102.364,101.702 103.047,101.613 103.621,101.281C103.621,101.281 104,101.062 104,101.062C104,101.062 104,101.5 104,101.5C104,102.163 104.263,102.799 104.732,103.268C105.201,103.737 105.837,104 106.5,104L108.5,104C109.163,104 109.799,103.737 110.268,103.268C110.737,102.799 111,102.163 111,101.5C111,101.5 111,101.062 111,101.062C111,101.062 111.379,101.281 111.379,101.281C111.953,101.613 112.636,101.702 113.276,101.531C113.917,101.359 114.463,100.94 114.794,100.366C115.111,99.818 115.478,99.182 115.794,98.634C116.126,98.06 116.216,97.377 116.044,96.737C115.872,96.096 115.453,95.55 114.879,95.219C114.879,95.219 114.5,95 114.5,95C114.5,95 114.879,94.781 114.879,94.781C115.453,94.45 115.872,93.904 116.044,93.263C116.216,92.623 116.126,91.94 115.794,91.366C115.478,90.818 115.111,90.182 114.794,89.634C114.463,89.06 113.917,88.641 113.276,88.469C112.636,88.298 111.953,88.387 111.379,88.719C111.379,88.719 111,88.938 111,88.938C111,88.938 111,88.5 111,88.5C111,87.837 110.737,87.201 110.268,86.732C109.799,86.263 109.163,86 108.5,86L106.5,86C105.837,86 105.201,86.263 104.732,86.732C104.263,87.201 104,87.837 104,88.5L104,88.938ZM104.5,91.536C104.809,91.715 105.191,91.715 105.5,91.536C105.809,91.357 106,91.027 106,90.67L106,88.5C106,88.367 106.053,88.24 106.146,88.146C106.24,88.053 106.367,88 106.5,88L108.5,88C108.633,88 108.76,88.053 108.854,88.146C108.947,88.24 109,88.367 109,88.5L109,90.67C109,91.027 109.191,91.357 109.5,91.536C109.809,91.715 110.191,91.715 110.5,91.536L112.379,90.451C112.494,90.385 112.63,90.367 112.759,90.401C112.887,90.435 112.996,90.519 113.062,90.634C113.378,91.182 113.746,91.818 114.062,92.366C114.128,92.481 114.146,92.617 114.112,92.745C114.078,92.874 113.994,92.983 113.879,93.049C113.879,93.049 112,94.134 112,94.134C111.691,94.313 111.5,94.643 111.5,95C111.5,95.357 111.691,95.687 112,95.866L113.879,96.951C113.994,97.017 114.078,97.126 114.112,97.255C114.146,97.383 114.128,97.519 114.062,97.634C113.746,98.182 113.378,98.818 113.062,99.366C112.996,99.481 112.887,99.565 112.759,99.599C112.63,99.633 112.494,99.615 112.379,99.549C112.379,99.549 110.5,98.464 110.5,98.464C110.191,98.285 109.809,98.285 109.5,98.464C109.191,98.643 109,98.973 109,99.33L109,101.5C109,101.633 108.947,101.76 108.854,101.854C108.76,101.947 108.633,102 108.5,102L106.5,102C106.367,102 106.24,101.947 106.146,101.854C106.053,101.76 106,101.633 106,101.5L106,99.33C106,98.973 105.809,98.643 105.5,98.464C105.191,98.285 104.809,98.285 104.5,98.464L102.621,99.549C102.506,99.615 102.37,99.633 102.241,99.599C102.113,99.565 102.004,99.481 101.938,99.366C101.622,98.818 101.254,98.182 100.938,97.634C100.872,97.519 100.854,97.383 100.888,97.255C100.922,97.126 101.006,97.017 101.121,96.951C101.121,96.951 103,95.866 103,95.866C103.309,95.687 103.5,95.357 103.5,95C103.5,94.643 103.309,94.313 103,94.134L101.121,93.049C101.006,92.983 100.922,92.874 100.888,92.745C100.854,92.617 100.872,92.481 100.938,92.366C101.254,91.818 101.622,91.182 101.938,90.634C102.004,90.519 102.113,90.435 102.241,90.401C102.37,90.367 102.506,90.385 102.621,90.451C102.621,90.451 104.5,91.536 104.5,91.536Z"></path></g><g transform="matrix(1.33333,0,0,1.33333,-52.2042,-30)"><path d="M107.5,92.25C106.258,92.25 105.25,93.258 105.25,94.5C105.25,95.742 106.258,96.75 107.5,96.75C108.742,96.75 109.75,95.742 109.75,94.5C109.75,93.258 108.742,92.25 107.5,92.25ZM107.5,93.75C107.914,93.75 108.25,94.086 108.25,94.5C108.25,94.914 107.914,95.25 107.5,95.25C107.086,95.25 106.75,94.914 106.75,94.5C106.75,94.086 107.086,93.75 107.5,93.75Z"></path></g><g transform="matrix(1.33333,0,0,1.33333,-32.4625,-30)"><path d="M107.5,92.25C106.258,92.25 105.25,93.258 105.25,94.5C105.25,95.742 106.258,96.75 107.5,96.75C108.742,96.75 109.75,95.742 109.75,94.5C109.75,93.258 108.742,92.25 107.5,92.25ZM107.5,93.75C107.914,93.75 108.25,94.086 108.25,94.5C108.25,94.914 107.914,95.25 107.5,95.25C107.086,95.25 106.75,94.914 106.75,94.5C106.75,94.086 107.086,93.75 107.5,93.75Z"></path></g></g></g>
  </g></svg>